<?xml version="1.0" standalone="yes"?><svg xmlns="http://www.w3.org/2000/svg" version="1.1" width="222" height="222" viewBox="0 0 222 222" shape-rendering="crispEdges"><rect x="0" y="0" width="222" height="222" fill="#ffffff"/><path fill="#000000" d="M24 24h6v6H24V24M30 24h6v6H30V24M36 24h6v6H36V24M42 24h6v6H42V24M48 24h6v6H48V24M54 24h6v6H54V24M60 24h6v6H60V24M78 24h6v6H78V24M84 24h6v6H84V24M120 24h6v6H120V24M126 24h6v6H126V24M132 24h6v6H132V24M138 24h6v6H138V24M144 24h6v6H144V24M156 24h6v6H156V24M162 24h6v6H162V24M168 24h6v6H168V24M174 24h6v6H174V24M180 24h6v6H180V24M186 24h6v6H186V24M192 24h6v6H192V24M24 30h6v6H24V30M60 30h6v6H60V30M90 30h6v6H90V30M96 30h6v6H96V30M108 30h6v6H108V30M114 30h6v6H114V30M126 30h6v6H126V30M156 30h6v6H156V30M192 30h6v6H192V30M24 36h6v6H24V36M36 36h6v6H36V36M42 36h6v6H42V36M48 36h6v6H48V36M60 36h6v6H60V36M72 36h6v6H72V36M78 36h6v6H78V36M108 36h6v6H108V36M114 36h6v6H114V36M156 36h6v6H156V36M168 36h6v6H168V36M174 36h6v6H174V36M180 36h6v6H180V36M192 36h6v6H192V36M24 42h6v6H24V42M36 42h6v6H36V42M42 42h6v6H42V42M48 42h6v6H48V42M60 42h6v6H60V42M72 42h6v6H72V42M78 42h6v6H78V42M84 42h6v6H84V42M90 42h6v6H90V42M96 42h6v6H96V42M102 42h6v6H102V42M114 42h6v6H114V42M120 42h6v6H120V42M126 42h6v6H126V42M144 42h6v6H144V42M156 42h6v6H156V42M168 42h6v6H168V42M174 42h6v6H174V42M180 42h6v6H180V42M192 42h6v6H192V42M24 48h6v6H24V48M36 48h6v6H36V48M42 48h6v6H42V48M48 48h6v6H48V48M60 48h6v6H60V48M72 48h6v6H72V48M78 48h6v6H78V48M84 48h6v6H84V48M96 48h6v6H96V48M102 48h6v6H102V48M120 48h6v6H120V48M138 48h6v6H138V48M144 48h6v6H144V48M156 48h6v6H156V48M168 48h6v6H168V48M174 48h6v6H174V48M180 48h6v6H180V48M192 48h6v6H192V48M24 54h6v6H24V54M60 54h6v6H60V54M72 54h6v6H72V54M96 54h6v6H96V54M102 54h6v6H102V54M108 54h6v6H108V54M114 54h6v6H114V54M120 54h6v6H120V54M126 54h6v6H126V54M132 54h6v6H132V54M144 54h6v6H144V54M156 54h6v6H156V54M192 54h6v6H192V54M24 60h6v6H24V60M30 60h6v6H30V60M36 60h6v6H36V60M42 60h6v6H42V60M48 60h6v6H48V60M54 60h6v6H54V60M60 60h6v6H60V60M72 60h6v6H72V60M84 60h6v6H84V60M96 60h6v6H96V60M108 60h6v6H108V60M120 60h6v6H120V60M132 60h6v6H132V60M144 60h6v6H144V60M156 60h6v6H156V60M162 60h6v6H162V60M168 60h6v6H168V60M174 60h6v6H174V60M180 60h6v6H180V60M186 60h6v6H186V60M192 60h6v6H192V60M72 66h6v6H72V66M78 66h6v6H78V66M96 66h6v6H96V66M114 66h6v6H114V66M144 66h6v6H144V66M24 72h6v6H24V72M36 72h6v6H36V72M42 72h6v6H42V72M48 72h6v6H48V72M54 72h6v6H54V72M60 72h6v6H60V72M84 72h6v6H84V72M96 72h6v6H96V72M102 72h6v6H102V72M108 72h6v6H108V72M114 72h6v6H114V72M126 72h6v6H126V72M138 72h6v6H138V72M156 72h6v6H156V72M162 72h6v6H162V72M168 72h6v6H168V72M174 72h6v6H174V72M180 72h6v6H180V72M48 78h6v6H48V78M66 78h6v6H66V78M72 78h6v6H72V78M78 78h6v6H78V78M96 78h6v6H96V78M120 78h6v6H120V78M132 78h6v6H132V78M138 78h6v6H138V78M144 78h6v6H144V78M156 78h6v6H156V78M162 78h6v6H162V78M168 78h6v6H168V78M192 78h6v6H192V78M24 84h6v6H24V84M42 84h6v6H42V84M48 84h6v6H48V84M60 84h6v6H60V84M66 84h6v6H66V84M84 84h6v6H84V84M90 84h6v6H90V84M102 84h6v6H102V84M114 84h6v6H114V84M120 84h6v6H120V84M132 84h6v6H132V84M144 84h6v6H144V84M150 84h6v6H150V84M168 84h6v6H168V84M24 90h6v6H24V90M30 90h6v6H30V90M36 90h6v6H36V90M42 90h6v6H42V90M48 90h6v6H48V90M54 90h6v6H54V90M66 90h6v6H66V90M96 90h6v6H96V90M108 90h6v6H108V90M138 90h6v6H138V90M144 90h6v6H144V90M156 90h6v6H156V90M162 90h6v6H162V90M168 90h6v6H168V90M174 90h6v6H174V90M186 90h6v6H186V90M24 96h6v6H24V96M48 96h6v6H48V96M60 96h6v6H60V96M66 96h6v6H66V96M78 96h6v6H78V96M90 96h6v6H90V96M102 96h6v6H102V96M108 96h6v6H108V96M114 96h6v6H114V96M126 96h6v6H126V96M138 96h6v6H138V96M174 96h6v6H174V96M180 96h6v6H180V96M24 102h6v6H24V102M30 102h6v6H30V102M48 102h6v6H48V102M72 102h6v6H72V102M84 102h6v6H84V102M90 102h6v6H90V102M96 102h6v6H96V102M102 102h6v6H102V102M120 102h6v6H120V102M132 102h6v6H132V102M138 102h6v6H138V102M144 102h6v6H144V102M150 102h6v6H150V102M156 102h6v6H156V102M162 102h6v6H162V102M168 102h6v6H168V102M192 102h6v6H192V102M30 108h6v6H30V108M42 108h6v6H42V108M54 108h6v6H54V108M60 108h6v6H60V108M102 108h6v6H102V108M108 108h6v6H108V108M114 108h6v6H114V108M120 108h6v6H120V108M126 108h6v6H126V108M132 108h6v6H132V108M144 108h6v6H144V108M150 108h6v6H150V108M174 108h6v6H174V108M180 108h6v6H180V108M24 114h6v6H24V114M36 114h6v6H36V114M48 114h6v6H48V114M54 114h6v6H54V114M78 114h6v6H78V114M84 114h6v6H84V114M90 114h6v6H90V114M108 114h6v6H108V114M132 114h6v6H132V114M138 114h6v6H138V114M156 114h6v6H156V114M162 114h6v6H162V114M186 114h6v6H186V114M30 120h6v6H30V120M60 120h6v6H60V120M66 120h6v6H66V120M72 120h6v6H72V120M78 120h6v6H78V120M96 120h6v6H96V120M102 120h6v6H102V120M108 120h6v6H108V120M114 120h6v6H114V120M120 120h6v6H120V120M126 120h6v6H126V120M174 120h6v6H174V120M180 120h6v6H180V120M24 126h6v6H24V126M72 126h6v6H72V126M84 126h6v6H84V126M90 126h6v6H90V126M102 126h6v6H102V126M120 126h6v6H120V126M126 126h6v6H126V126M132 126h6v6H132V126M138 126h6v6H138V126M144 126h6v6H144V126M150 126h6v6H150V126M156 126h6v6H156V126M162 126h6v6H162V126M168 126h6v6H168V126M180 126h6v6H180V126M192 126h6v6H192V126M24 132h6v6H24V132M60 132h6v6H60V132M78 132h6v6H78V132M108 132h6v6H108V132M114 132h6v6H114V132M150 132h6v6H150V132M162 132h6v6H162V132M168 132h6v6H168V132M180 132h6v6H180V132M24 138h6v6H24V138M36 138h6v6H36V138M48 138h6v6H48V138M72 138h6v6H72V138M90 138h6v6H90V138M96 138h6v6H96V138M108 138h6v6H108V138M114 138h6v6H114V138M120 138h6v6H120V138M132 138h6v6H132V138M138 138h6v6H138V138M144 138h6v6H144V138M168 138h6v6H168V138M186 138h6v6H186V138M24 144h6v6H24V144M36 144h6v6H36V144M48 144h6v6H48V144M60 144h6v6H60V144M78 144h6v6H78V144M90 144h6v6H90V144M96 144h6v6H96V144M114 144h6v6H114V144M126 144h6v6H126V144M138 144h6v6H138V144M144 144h6v6H144V144M150 144h6v6H150V144M156 144h6v6H156V144M162 144h6v6H162V144M168 144h6v6H168V144M180 144h6v6H180V144M186 144h6v6H186V144M192 144h6v6H192V144M72 150h6v6H72V150M78 150h6v6H78V150M102 150h6v6H102V150M120 150h6v6H120V150M132 150h6v6H132V150M144 150h6v6H144V150M168 150h6v6H168V150M174 150h6v6H174V150M180 150h6v6H180V150M186 150h6v6H186V150M192 150h6v6H192V150M24 156h6v6H24V156M30 156h6v6H30V156M36 156h6v6H36V156M42 156h6v6H42V156M48 156h6v6H48V156M54 156h6v6H54V156M60 156h6v6H60V156M84 156h6v6H84V156M90 156h6v6H90V156M96 156h6v6H96V156M102 156h6v6H102V156M108 156h6v6H108V156M114 156h6v6H114V156M138 156h6v6H138V156M144 156h6v6H144V156M156 156h6v6H156V156M168 156h6v6H168V156M174 156h6v6H174V156M180 156h6v6H180V156M24 162h6v6H24V162M60 162h6v6H60V162M72 162h6v6H72V162M78 162h6v6H78V162M90 162h6v6H90V162M102 162h6v6H102V162M120 162h6v6H120V162M144 162h6v6H144V162M168 162h6v6H168V162M24 168h6v6H24V168M36 168h6v6H36V168M42 168h6v6H42V168M48 168h6v6H48V168M60 168h6v6H60V168M72 168h6v6H72V168M78 168h6v6H78V168M84 168h6v6H84V168M90 168h6v6H90V168M108 168h6v6H108V168M126 168h6v6H126V168M144 168h6v6H144V168M150 168h6v6H150V168M156 168h6v6H156V168M162 168h6v6H162V168M168 168h6v6H168V168M180 168h6v6H180V168M186 168h6v6H186V168M192 168h6v6H192V168M24 174h6v6H24V174M36 174h6v6H36V174M42 174h6v6H42V174M48 174h6v6H48V174M60 174h6v6H60V174M72 174h6v6H72V174M84 174h6v6H84V174M90 174h6v6H90V174M102 174h6v6H102V174M120 174h6v6H120V174M126 174h6v6H126V174M132 174h6v6H132V174M138 174h6v6H138V174M174 174h6v6H174V174M180 174h6v6H180V174M186 174h6v6H186V174M192 174h6v6H192V174M24 180h6v6H24V180M36 180h6v6H36V180M42 180h6v6H42V180M48 180h6v6H48V180M60 180h6v6H60V180M72 180h6v6H72V180M96 180h6v6H96V180M114 180h6v6H114V180M120 180h6v6H120V180M138 180h6v6H138V180M156 180h6v6H156V180M162 180h6v6H162V180M168 180h6v6H168V180M174 180h6v6H174V180M180 180h6v6H180V180M186 180h6v6H186V180M24 186h6v6H24V186M60 186h6v6H60V186M90 186h6v6H90V186M102 186h6v6H102V186M114 186h6v6H114V186M132 186h6v6H132V186M144 186h6v6H144V186M150 186h6v6H150V186M168 186h6v6H168V186M174 186h6v6H174V186M186 186h6v6H186V186M24 192h6v6H24V192M30 192h6v6H30V192M36 192h6v6H36V192M42 192h6v6H42V192M48 192h6v6H48V192M54 192h6v6H54V192M60 192h6v6H60V192M72 192h6v6H72V192M84 192h6v6H84V192M102 192h6v6H102V192M114 192h6v6H114V192M126 192h6v6H126V192M138 192h6v6H138V192M150 192h6v6H150V192M162 192h6v6H162V192M180 192h6v6H180V192"/></svg>