<?xml version="1.0" standalone="yes"?><svg xmlns="http://www.w3.org/2000/svg" version="1.1" width="222" height="222" viewBox="0 0 222 222" shape-rendering="crispEdges"><rect x="0" y="0" width="222" height="222" fill="#ffffff"/><path fill="#000000" d="M24 24h6v6H24V24M30 24h6v6H30V24M36 24h6v6H36V24M42 24h6v6H42V24M48 24h6v6H48V24M54 24h6v6H54V24M60 24h6v6H60V24M72 24h6v6H72V24M96 24h6v6H96V24M108 24h6v6H108V24M132 24h6v6H132V24M156 24h6v6H156V24M162 24h6v6H162V24M168 24h6v6H168V24M174 24h6v6H174V24M180 24h6v6H180V24M186 24h6v6H186V24M192 24h6v6H192V24M24 30h6v6H24V30M60 30h6v6H60V30M84 30h6v6H84V30M120 30h6v6H120V30M138 30h6v6H138V30M144 30h6v6H144V30M156 30h6v6H156V30M192 30h6v6H192V30M24 36h6v6H24V36M36 36h6v6H36V36M42 36h6v6H42V36M48 36h6v6H48V36M60 36h6v6H60V36M102 36h6v6H102V36M114 36h6v6H114V36M126 36h6v6H126V36M132 36h6v6H132V36M144 36h6v6H144V36M156 36h6v6H156V36M168 36h6v6H168V36M174 36h6v6H174V36M180 36h6v6H180V36M192 36h6v6H192V36M24 42h6v6H24V42M36 42h6v6H36V42M42 42h6v6H42V42M48 42h6v6H48V42M60 42h6v6H60V42M72 42h6v6H72V42M108 42h6v6H108V42M120 42h6v6H120V42M132 42h6v6H132V42M138 42h6v6H138V42M156 42h6v6H156V42M168 42h6v6H168V42M174 42h6v6H174V42M180 42h6v6H180V42M192 42h6v6H192V42M24 48h6v6H24V48M36 48h6v6H36V48M42 48h6v6H42V48M48 48h6v6H48V48M60 48h6v6H60V48M72 48h6v6H72V48M102 48h6v6H102V48M108 48h6v6H108V48M114 48h6v6H114V48M120 48h6v6H120V48M126 48h6v6H126V48M132 48h6v6H132V48M156 48h6v6H156V48M168 48h6v6H168V48M174 48h6v6H174V48M180 48h6v6H180V48M192 48h6v6H192V48M24 54h6v6H24V54M60 54h6v6H60V54M72 54h6v6H72V54M78 54h6v6H78V54M90 54h6v6H90V54M102 54h6v6H102V54M108 54h6v6H108V54M120 54h6v6H120V54M138 54h6v6H138V54M144 54h6v6H144V54M156 54h6v6H156V54M192 54h6v6H192V54M24 60h6v6H24V60M30 60h6v6H30V60M36 60h6v6H36V60M42 60h6v6H42V60M48 60h6v6H48V60M54 60h6v6H54V60M60 60h6v6H60V60M72 60h6v6H72V60M84 60h6v6H84V60M96 60h6v6H96V60M108 60h6v6H108V60M120 60h6v6H120V60M132 60h6v6H132V60M144 60h6v6H144V60M156 60h6v6H156V60M162 60h6v6H162V60M168 60h6v6H168V60M174 60h6v6H174V60M180 60h6v6H180V60M186 60h6v6H186V60M192 60h6v6H192V60M72 66h6v6H72V66M84 66h6v6H84V66M90 66h6v6H90V66M108 66h6v6H108V66M126 66h6v6H126V66M138 66h6v6H138V66M24 72h6v6H24V72M48 72h6v6H48V72M60 72h6v6H60V72M66 72h6v6H66V72M72 72h6v6H72V72M78 72h6v6H78V72M84 72h6v6H84V72M90 72h6v6H90V72M96 72h6v6H96V72M102 72h6v6H102V72M108 72h6v6H108V72M114 72h6v6H114V72M126 72h6v6H126V72M138 72h6v6H138V72M144 72h6v6H144V72M150 72h6v6H150V72M156 72h6v6H156V72M162 72h6v6H162V72M168 72h6v6H168V72M174 72h6v6H174V72M192 72h6v6H192V72M24 78h6v6H24V78M48 78h6v6H48V78M54 78h6v6H54V78M78 78h6v6H78V78M114 78h6v6H114V78M120 78h6v6H120V78M132 78h6v6H132V78M156 78h6v6H156V78M168 78h6v6H168V78M174 78h6v6H174V78M180 78h6v6H180V78M186 78h6v6H186V78M192 78h6v6H192V78M42 84h6v6H42V84M48 84h6v6H48V84M60 84h6v6H60V84M66 84h6v6H66V84M72 84h6v6H72V84M90 84h6v6H90V84M96 84h6v6H96V84M102 84h6v6H102V84M108 84h6v6H108V84M114 84h6v6H114V84M126 84h6v6H126V84M144 84h6v6H144V84M168 84h6v6H168V84M192 84h6v6H192V84M36 90h6v6H36V90M42 90h6v6H42V90M72 90h6v6H72V90M78 90h6v6H78V90M90 90h6v6H90V90M102 90h6v6H102V90M120 90h6v6H120V90M126 90h6v6H126V90M132 90h6v6H132V90M150 90h6v6H150V90M174 90h6v6H174V90M186 90h6v6H186V90M192 90h6v6H192V90M24 96h6v6H24V96M30 96h6v6H30V96M42 96h6v6H42V96M54 96h6v6H54V96M60 96h6v6H60V96M66 96h6v6H66V96M84 96h6v6H84V96M90 96h6v6H90V96M96 96h6v6H96V96M102 96h6v6H102V96M126 96h6v6H126V96M138 96h6v6H138V96M144 96h6v6H144V96M150 96h6v6H150V96M162 96h6v6H162V96M186 96h6v6H186V96M36 102h6v6H36V102M48 102h6v6H48V102M54 102h6v6H54V102M66 102h6v6H66V102M84 102h6v6H84V102M90 102h6v6H90V102M96 102h6v6H96V102M102 102h6v6H102V102M108 102h6v6H108V102M114 102h6v6H114V102M120 102h6v6H120V102M126 102h6v6H126V102M132 102h6v6H132V102M156 102h6v6H156V102M162 102h6v6H162V102M168 102h6v6H168V102M174 102h6v6H174V102M180 102h6v6H180V102M186 102h6v6H186V102M192 102h6v6H192V102M36 108h6v6H36V108M42 108h6v6H42V108M48 108h6v6H48V108M60 108h6v6H60V108M66 108h6v6H66V108M90 108h6v6H90V108M96 108h6v6H96V108M114 108h6v6H114V108M120 108h6v6H120V108M132 108h6v6H132V108M144 108h6v6H144V108M150 108h6v6H150V108M156 108h6v6H156V108M174 108h6v6H174V108M180 108h6v6H180V108M192 108h6v6H192V108M24 114h6v6H24V114M66 114h6v6H66V114M72 114h6v6H72V114M78 114h6v6H78V114M84 114h6v6H84V114M90 114h6v6H90V114M108 114h6v6H108V114M126 114h6v6H126V114M138 114h6v6H138V114M186 114h6v6H186V114M192 114h6v6H192V114M30 120h6v6H30V120M36 120h6v6H36V120M42 120h6v6H42V120M48 120h6v6H48V120M60 120h6v6H60V120M66 120h6v6H66V120M78 120h6v6H78V120M102 120h6v6H102V120M108 120h6v6H108V120M114 120h6v6H114V120M126 120h6v6H126V120M138 120h6v6H138V120M150 120h6v6H150V120M186 120h6v6H186V120M24 126h6v6H24V126M36 126h6v6H36V126M84 126h6v6H84V126M96 126h6v6H96V126M114 126h6v6H114V126M132 126h6v6H132V126M156 126h6v6H156V126M162 126h6v6H162V126M168 126h6v6H168V126M174 126h6v6H174V126M186 126h6v6H186V126M192 126h6v6H192V126M42 132h6v6H42V132M48 132h6v6H48V132M60 132h6v6H60V132M66 132h6v6H66V132M78 132h6v6H78V132M84 132h6v6H84V132M102 132h6v6H102V132M108 132h6v6H108V132M114 132h6v6H114V132M126 132h6v6H126V132M132 132h6v6H132V132M144 132h6v6H144V132M180 132h6v6H180V132M192 132h6v6H192V132M36 138h6v6H36V138M42 138h6v6H42V138M48 138h6v6H48V138M66 138h6v6H66V138M78 138h6v6H78V138M102 138h6v6H102V138M114 138h6v6H114V138M126 138h6v6H126V138M138 138h6v6H138V138M144 138h6v6H144V138M162 138h6v6H162V138M168 138h6v6H168V138M186 138h6v6H186V138M192 138h6v6H192V138M24 144h6v6H24V144M30 144h6v6H30V144M36 144h6v6H36V144M48 144h6v6H48V144M54 144h6v6H54V144M60 144h6v6H60V144M84 144h6v6H84V144M90 144h6v6H90V144M96 144h6v6H96V144M102 144h6v6H102V144M126 144h6v6H126V144M144 144h6v6H144V144M150 144h6v6H150V144M156 144h6v6H156V144M162 144h6v6H162V144M168 144h6v6H168V144M174 144h6v6H174V144M192 144h6v6H192V144M72 150h6v6H72V150M78 150h6v6H78V150M84 150h6v6H84V150M102 150h6v6H102V150M108 150h6v6H108V150M114 150h6v6H114V150M120 150h6v6H120V150M138 150h6v6H138V150M144 150h6v6H144V150M168 150h6v6H168V150M192 150h6v6H192V150M24 156h6v6H24V156M30 156h6v6H30V156M36 156h6v6H36V156M42 156h6v6H42V156M48 156h6v6H48V156M54 156h6v6H54V156M60 156h6v6H60V156M72 156h6v6H72V156M90 156h6v6H90V156M114 156h6v6H114V156M120 156h6v6H120V156M138 156h6v6H138V156M144 156h6v6H144V156M156 156h6v6H156V156M168 156h6v6H168V156M174 156h6v6H174V156M180 156h6v6H180V156M192 156h6v6H192V156M24 162h6v6H24V162M60 162h6v6H60V162M78 162h6v6H78V162M84 162h6v6H84V162M96 162h6v6H96V162M108 162h6v6H108V162M114 162h6v6H114V162M120 162h6v6H120V162M126 162h6v6H126V162M132 162h6v6H132V162M138 162h6v6H138V162M144 162h6v6H144V162M168 162h6v6H168V162M186 162h6v6H186V162M192 162h6v6H192V162M24 168h6v6H24V168M36 168h6v6H36V168M42 168h6v6H42V168M48 168h6v6H48V168M60 168h6v6H60V168M72 168h6v6H72V168M78 168h6v6H78V168M90 168h6v6H90V168M96 168h6v6H96V168M102 168h6v6H102V168M108 168h6v6H108V168M120 168h6v6H120V168M126 168h6v6H126V168M138 168h6v6H138V168M144 168h6v6H144V168M150 168h6v6H150V168M156 168h6v6H156V168M162 168h6v6H162V168M168 168h6v6H168V168M174 168h6v6H174V168M186 168h6v6H186V168M24 174h6v6H24V174M36 174h6v6H36V174M42 174h6v6H42V174M48 174h6v6H48V174M60 174h6v6H60V174M90 174h6v6H90V174M96 174h6v6H96V174M102 174h6v6H102V174M114 174h6v6H114V174M120 174h6v6H120V174M132 174h6v6H132V174M138 174h6v6H138V174M144 174h6v6H144V174M150 174h6v6H150V174M192 174h6v6H192V174M24 180h6v6H24V180M36 180h6v6H36V180M42 180h6v6H42V180M48 180h6v6H48V180M60 180h6v6H60V180M78 180h6v6H78V180M84 180h6v6H84V180M90 180h6v6H90V180M96 180h6v6H96V180M114 180h6v6H114V180M150 180h6v6H150V180M174 180h6v6H174V180M180 180h6v6H180V180M186 180h6v6H186V180M192 180h6v6H192V180M24 186h6v6H24V186M60 186h6v6H60V186M78 186h6v6H78V186M84 186h6v6H84V186M90 186h6v6H90V186M114 186h6v6H114V186M120 186h6v6H120V186M126 186h6v6H126V186M132 186h6v6H132V186M138 186h6v6H138V186M144 186h6v6H144V186M162 186h6v6H162V186M168 186h6v6H168V186M174 186h6v6H174V186M186 186h6v6H186V186M192 186h6v6H192V186M24 192h6v6H24V192M30 192h6v6H30V192M36 192h6v6H36V192M42 192h6v6H42V192M48 192h6v6H48V192M54 192h6v6H54V192M60 192h6v6H60V192M72 192h6v6H72V192M96 192h6v6H96V192M108 192h6v6H108V192M126 192h6v6H126V192M144 192h6v6H144V192M150 192h6v6H150V192M162 192h6v6H162V192M168 192h6v6H168V192M186 192h6v6H186V192"/></svg>