<svg xmlns="http://www.w3.org/2000/svg" viewBox="0 0 852.48 185.23"><defs><style>.cls-1{fill:#304e83;}.cls-2{fill:#f2623e;}</style></defs><g id="Layer_2" data-name="Layer 2"><g id="Layer_1-2" data-name="Layer 1"><g id="Group_797" data-name="Group 797"><path id="Path_735" data-name="Path 735" class="cls-1" d="M253.18,141.22q-11.48,0-17.24-6.23t-5.82-18.79l-.22-52.67-14,.06L215.8,43l14-.05-.12-28.51L253,3.15l.16,39.69L275,42.75l.08,20.6-21.82.09.2,48.44q0,4.52,1.86,6.67c1.23,1.43,3.16,2.15,5.79,2.14q7,0,15.22-4.39l-2.64,20.51a39.53,39.53,0,0,1-9.39,3.29A53.64,53.64,0,0,1,253.18,141.22Z"/><path id="Path_736" data-name="Path 736" class="cls-1" d="M330.51,140.9q-13.83.06-23.87-6.11a40.62,40.62,0,0,1-15.5-17.48q-5.46-11.31-5.52-26.64-.06-15.51,5.39-26.83a40.38,40.38,0,0,1,15.45-17.41q10-6.12,23.63-6.17a45.63,45.63,0,0,1,21.18,4.8A36.22,36.22,0,0,1,366.48,60q5.68,10.09,5.75,25.71,0,2.45-.12,6t-.49,7.1L308.89,99A27,27,0,0,0,312,110.55a19.24,19.24,0,0,0,7.41,7.64,21.78,21.78,0,0,0,11.11,2.68,26.34,26.34,0,0,0,21.5-9.78l13.6,14a48,48,0,0,1-14.9,11.44A45.07,45.07,0,0,1,330.51,140.9Zm-21.6-60.2,40.54-.17a28.29,28.29,0,0,0-2.87-10.85,16.85,16.85,0,0,0-6.61-7,20.08,20.08,0,0,0-10.27-2.4,20.78,20.78,0,0,0-14.09,5.13q-5.81,5.11-6.7,15.27Z"/><path id="Path_737" data-name="Path 737" class="cls-1" d="M389.2,138.4l-.39-96.12,23.51-.1,0,9.22a29.6,29.6,0,0,1,11-8.66,35.93,35.93,0,0,1,14.71-2.93q16.08-.06,24.87,9.82t8.87,28.51l.25,59.92-23.42.09-.22-52.67q0-12.14-4.26-17.71t-13.05-5.54q-9.58,0-14.13,5.65T412.5,85.25l.22,53.05Z"/><path id="Path_738" data-name="Path 738" class="cls-1" d="M533.13,140.06q-20.31.09-32.13-13.32T489.09,90q-.07-15.43,5.25-26.78a40.48,40.48,0,0,1,15.12-17.56q9.8-6.21,23.25-6.26t23.17,6A39.68,39.68,0,0,1,571,62.78q5.32,11.27,5.38,26.78t-5.11,26.92a39.22,39.22,0,0,1-14.93,17.42Q546.58,140,533.13,140.06Zm-.1-22.48q9.51,0,14.74-7.39T553,89.66q-.06-13.17-5.41-20.53a17.11,17.11,0,0,0-14.75-7.32A17.28,17.28,0,0,0,518,69.3q-5.34,7.45-5.28,20.62.06,13,5.45,20.34A17.32,17.32,0,0,0,533,117.58Z"/><path id="Path_739" data-name="Path 739" class="cls-1" d="M616.41,137.46l-35.57-96,24.37-.1,20.36,57.1a40.43,40.43,0,0,1,1.52,4.42q.66,2.34,1.34,4.7.65-2.35,1.34-4.72c.46-1.57.91-3,1.34-4.42l19.81-57.27,24.26-.1L640.4,137.36Z"/><path id="Path_740" data-name="Path 740" class="cls-1" d="M724.7,139.27q-20.31.07-32.12-13.32T680.67,89.22q-.07-15.42,5.24-26.77A40.57,40.57,0,0,1,701,44.88q9.81-6.19,23.26-6.25t23.16,6A39.71,39.71,0,0,1,762.57,62q5.31,11.25,5.38,26.78t-5.11,26.92A39.13,39.13,0,0,1,747.9,133.1Q738.17,139.22,724.7,139.27Zm-.09-22.48q9.5,0,14.73-7.4t5.19-20.52q-.06-13.17-5.4-20.53A17.12,17.12,0,0,0,724.38,61a17.32,17.32,0,0,0-14.83,7.5q-5.34,7.44-5.28,20.62.06,13,5.45,20.34a17.37,17.37,0,0,0,14.89,7.32Z"/><path id="Path_741" data-name="Path 741" class="cls-1" d="M815.73,138.89a50.57,50.57,0,0,1-21.61-4.71,42,42,0,0,1-16.37-12.81l15.37-13.05a36.43,36.43,0,0,0,11.13,8,28.36,28.36,0,0,0,12.06,2.91q7.14,0,11-2.45a7.51,7.51,0,0,0,3.83-6.74,7.61,7.61,0,0,0-1.86-5,20.24,20.24,0,0,0-6.46-4.49,126.17,126.17,0,0,0-13-5.26q-16.21-5.85-23-12.74T780,65a23.15,23.15,0,0,1,9.52-19.27q9.56-7.43,25-7.49a47.26,47.26,0,0,1,19.44,3.87,42,42,0,0,1,15.33,11.51L834,66.38q-8.49-8.52-19.78-8.47A17.53,17.53,0,0,0,805,60.06a6.44,6.44,0,0,0-3.47,5.71c0,2.31,1.39,4.38,4.13,6.18s7.84,3.92,15.3,6.34A76.18,76.18,0,0,1,839,86.11a29.35,29.35,0,0,1,10.2,10.22,27.17,27.17,0,0,1,3.3,13.44q.06,13.55-9.73,21.3T815.73,138.89Z"/><path id="Path_732" data-name="Path 732" class="cls-1" d="M176.12,69.14a11.54,11.54,0,0,0-5.44-9.63v0l-5.62-3.23h0L69,1a7.6,7.6,0,0,0-7-.29L50.79,6a7.44,7.44,0,0,0-3.35,3.12c0,.08-.11.14-.15.22s-.06.14-.1.21l-.06.12a6.87,6.87,0,0,0-.23,5.68,7.59,7.59,0,0,0,3.32,4.05l90.87,52.27s6.13,3,6.95,12.26h0V84h0a4.8,4.8,0,0,0,5.22,4.34,4.69,4.69,0,0,0,1.6-.43h0l.07,0,.09,0,15.91-8.65v-.08A11.51,11.51,0,0,0,176.12,69.14Z"/><path id="Path_733" data-name="Path 733" class="cls-1" d="M5.66,5.93A11.59,11.59,0,0,0,0,15.46l0,0V22H0L.06,132.81A7.54,7.54,0,0,0,3.28,139l10.12,7.09a7.5,7.5,0,0,0,4.38,1.34c.09,0,.17,0,.26,0a1.81,1.81,0,0,1,.23,0h.14a6.89,6.89,0,0,0,5-2.63,7.6,7.6,0,0,0,1.85-4.89l0-104.84s-.46-6.8,7.17-12.14h0l.08-.06h0a4.81,4.81,0,0,0,1.16-6.7A4.86,4.86,0,0,0,32.52,15h0l-.07,0-.09-.06L17,5.42l-.07,0A11.55,11.55,0,0,0,5.66,5.93Z"/><path id="Path_734" data-name="Path 734" class="cls-1" d="M38.57,183.79a11.57,11.57,0,0,0,11.07.06l0,0,5.58-3.27h0L151,124.66a7.6,7.6,0,0,0,3.72-5.9l1-12.31a7.58,7.58,0,0,0-1.05-4.46,2.56,2.56,0,0,1-.11-.24c0-.07-.09-.12-.13-.18l-.09-.12a6.86,6.86,0,0,0-4.81-3,7.55,7.55,0,0,0-5.16.88L53.83,152.16s-5.64,3.83-14.09-.07h0l-.1,0h0a4.8,4.8,0,0,0-6.37,2.36,5,5,0,0,0-.42,1.62v.17l-.4,18.1.06,0A11.55,11.55,0,0,0,38.57,183.79Z"/><g id="Path_742" data-name="Path 742"><path class="cls-2" d="M114.5,82.09a5.19,5.19,0,0,1,1.89,7.08,5.24,5.24,0,0,1-1.9,1.9L55.35,125.14a5.18,5.18,0,0,1-7.77-4.49l0-68.21a5.28,5.28,0,0,1,5.25-5.23,5.17,5.17,0,0,1,2.6.7Z"/></g></g></g></g></svg>