<?xml version="1.0" encoding="utf-8"?>
<!-- Generator: Adobe Illustrator 22.1.0, SVG Export Plug-In . SVG Version: 6.00 Build 0)  -->
<svg version="1.1" id="Layer_1" xmlns="http://www.w3.org/2000/svg" xmlns:xlink="http://www.w3.org/1999/xlink" x="0px" y="0px"
	 viewBox="0 0 663.5 146.1" style="enable-background:new 0 0 663.3 146.1;" xml:space="preserve">
<style type="text/css">
	.st0{fill:#0D0116;}
</style>
<path class="st0" d="M39.4,33.3C17.7,33.3,0,51,0,72.8s17.7,39.4,39.4,39.4c21.7,0,39.4-17.7,39.4-39.4S61.1,33.3,39.4,33.3z
	 M39.4,98.3c-14.1,0-25.5-11.4-25.5-25.5c0-14.1,11.4-25.5,25.5-25.5c14.1,0,25.5,11.4,25.5,25.5C64.9,86.8,53.5,98.3,39.4,98.3z
	 M242.7,36.1h14.6v73.8h-14.6V36.1z M249.9,0c2.7,0,5,0.9,6.9,2.7c1.9,1.8,2.9,4.1,2.9,6.8c0,2.7-1,4.9-2.9,6.7
	c-1.9,1.8-4.2,2.6-6.9,2.6c-2.7,0-4.9-0.9-6.8-2.7c-1.8-1.8-2.8-4-2.8-6.6c0-2.7,0.9-5,2.8-6.8C245,0.9,247.3,0,249.9,0 M389.5,43
	c2.3,2.7,4,5.9,5.1,9.5c1.1,3.6,1.6,7.5,1.6,11.7v45.8h-14.6V68.9c0-3-0.3-5.9-0.8-8.6c-0.5-2.7-1.4-5.1-2.6-7.2
	c-1.2-2.1-2.9-3.7-5-5c-2.1-1.2-4.7-1.9-7.9-1.9c-3.3,0-6.2,0.7-8.6,2.1c-2.4,1.4-4.3,3.2-5.8,5.4c-1.5,2.2-2.6,4.7-3.3,7.6
	c-0.7,2.8-1,5.7-1,8.6v39.8h-14.6V66c0-2.9-0.3-5.6-0.8-7.9c-0.5-2.4-1.4-4.4-2.6-6.1c-1.2-1.7-2.9-3.1-4.8-4c-2-1-4.4-1.5-7.3-1.5
	c-5.4,0-9.9,2.2-13.5,6.6c-3.6,4.4-5.4,10.3-5.4,17.7v39.2h-14.6V52c0-2-0.1-4.5-0.2-7.6c-0.1-3.1-0.3-5.9-0.5-8.2h13.8
	c0.3,1.9,0.6,6.7,0.6,8.2c0,0,8-10.2,23.9-10.2c5,0,9.5,1.1,13.5,3.4c3,1.7,5.5,4.3,7.5,7.7c6.1-6.4,14.2-11.1,26.9-11.1
	c4.8,0,8.9,0.8,12.3,2.4C384.3,38.1,387.2,40.3,389.5,43 M564,36.1h15.5L550,109.9h-15.9l-30-73.8h16.2l21.6,55.7h0.3L564,36.1z
	 M135.5,33.5c-9.4,0-18,3.3-24.8,8.8v-6H96.1V80l0,0v66.1h14.6v-42.6c6.8,5.5,15.4,8.8,24.8,8.8c21.7,0,39.4-17.7,39.4-39.4
	C174.9,51.2,157.2,33.5,135.5,33.5 M135.5,98.7c-14.2,0-25.7-11.6-25.7-25.8c0-14.2,11.5-25.8,25.7-25.8c14.2,0,25.7,11.6,25.7,25.8
	C161.2,87.1,149.7,98.7,135.5,98.7 M206.5,36.1h18.6v12.6h-18.6v30.5c0,8.5,5.5,17.6,13.3,22.4l-5.5,12.6
	c-13.2-6.4-22.4-19.9-22.4-35.6c0,0,0-0.1,0-0.1V18h14.6V36.1z M660.8,56.4c-1.7-4.7-4-8.7-7.1-12.1c-3.1-3.3-6.8-5.9-11.2-7.6
	c-4.4-1.8-9.3-2.6-14.7-2.6c-5.4,0-10.4,1-15.1,2.9c-4.7,1.9-8.7,4.6-12.2,8c-3.4,3.4-6.1,7.5-8,12.4c-1.9,4.8-2.9,10.1-2.9,15.8
	c0,5.8,1,11.1,3,15.9c2,4.8,4.7,8.8,8.1,12.2c3.4,3.4,7.5,6,12.3,7.9c4.8,1.9,10,2.8,15.6,2.8c6.5,0,12.5-1.2,17.8-3.7
	c5.3-2.5,10-6.3,13.9-11.6l-10.3-8.2c-2.1,3.1-4.9,5.8-8.5,7.9c-3.6,2.2-7.9,3.3-12.9,3.3c-3.2,0-6.2-0.6-9.1-1.7
	c-2.9-1.1-5.4-2.7-7.5-4.7c-2.2-2-3.9-4.4-5.2-7.1c-1.3-2.7-2-5.6-2.1-8.7h58.6c0.1-0.8,0.2-1.7,0.2-2.5v-2.5
	C663.3,66.5,662.5,61.1,660.8,56.4 M604.6,65.4c0.3-2.5,1-4.9,2.1-7.1c1.3-2.5,3-4.7,5-6.6c2-1.9,4.4-3.4,7.2-4.4
	c2.7-1.1,5.7-1.6,8.8-1.6c3.4,0,6.4,0.5,8.9,1.6c2.5,1.1,4.7,2.6,6.4,4.4c1.7,1.9,3,4.1,3.9,6.6c0.8,2.2,1.2,4.6,1.4,7.1H604.6z
	 M477.6,109.9h-43.1L413,72.5l21.6-37.4h43.1l21.6,37.4L477.6,109.9z M442.8,95.5h26.5l13.2-22.9l-13.2-22.9h-26.5l-13.2,22.9
	L442.8,95.5z"/>
</svg>
