<svg width="126" height="40" viewBox="0 0 126 40.0008" fill="none" xmlns="http://www.w3.org/2000/svg">
                <path d="M106.363 20.8008V40.0008H126V20.8008H106.363ZM120.301 34.6529H118.676V29.2916L116.296 31.7233L113.922 29.2916V34.6529H112.311V26.1655H113.15L116.31 29.488L119.469 26.1655H120.27L120.301 34.6529Z" fill="currentColor"></path>
                <path d="M95.0178 29.2122C94.9794 29.3002 94.9164 29.4459 94.8354 29.6423C94.7548 29.8388 94.6353 30.0962 94.4844 30.4044C94.3334 30.7126 94.1682 31.0817 93.9648 31.5288H96.1064C95.7202 30.6685 95.4568 30.0521 95.3058 29.6762C95.1549 29.3002 95.0776 29.097 95.0673 29.0632C95.0567 29.0293 95.0567 29.1343 95.0178 29.2122Z" fill="currentColor"></path>
                <path d="M85.0898 20.8008V40.0008H104.726V20.8008H85.0898ZM99.1159 34.6563H97.3323L96.6303 32.9629H93.4459L92.6732 34.6563H90.9673V34.5412L94.9342 26.1452H95.2856L99.0983 34.5547L99.1159 34.6563Z" fill="currentColor"></path>
                <path d="M63.8164 20.8008V40.0008H83.4528V20.8008H63.8164ZM76.1362 34.6496H71.4034V26.1655H75.9954V27.6964H73.0291V29.5524H75.8199V31.0663H73.0291V33.1492H76.1468L76.1362 34.6496Z" fill="currentColor"></path>
                <path d="M52.651 27.9704C52.5172 27.8382 52.3572 27.7334 52.1805 27.6622C51.9498 27.5728 51.7023 27.5313 51.454 27.5403H50.7344V30.2836H51.2257C51.4143 30.2823 51.6025 30.2641 51.7874 30.2294C51.9968 30.1907 52.1961 30.1124 52.3736 29.9991C52.5622 29.8801 52.7176 29.7185 52.8265 29.5283C52.9598 29.2871 53.0216 29.0153 53.0056 28.7426C53.0048 28.6137 52.9786 28.4861 52.9283 28.3666C52.8678 28.2162 52.7733 28.0808 52.651 27.9704Z" fill="currentColor"></path>
                <path d="M42.5469 20.8008V40.0008H62.1832V20.8008H42.5469ZM55.846 34.5446L53.9466 34.7275L51.7244 31.6793H50.7344V34.6191H49.1508V26.1655C49.5018 26.1317 49.8811 26.1079 50.2357 26.0876C50.5904 26.0673 50.9377 26.0605 51.247 26.0605C51.4966 26.0592 51.7461 26.0705 51.9948 26.0944C52.219 26.1161 52.4411 26.1569 52.6584 26.2163C52.9713 26.2947 53.2679 26.4241 53.5359 26.5991C53.7731 26.7599 53.9818 26.9566 54.154 27.1816C54.3078 27.3975 54.4261 27.6352 54.505 27.8861C54.5836 28.1411 54.6236 28.4057 54.6245 28.6718C54.6183 29.163 54.4931 29.646 54.2583 30.0819C54.0235 30.5179 53.686 30.8945 53.2724 31.1815L55.8321 34.4125L55.846 34.5446Z" fill="currentColor"></path>
                <path d="M21.2734 20.8008V40.0008H40.9098V20.8008H21.2734ZM34.3374 27.6523H31.8447V34.6055H30.2051V27.6523H27.7264V26.1655H34.3374V27.6523Z" fill="currentColor"></path>
                <path d="M0 20.8008V40.0008H19.6364V20.8008H0ZM12.4171 33.3016C12.2595 33.6118 12.0374 33.8873 11.7647 34.1111C11.4787 34.3451 11.1521 34.5285 10.8 34.6529C10.4177 34.7869 10.0142 34.8557 9.60746 34.8562C9.21886 34.8535 8.83137 34.8161 8.44994 34.7444C8.02493 34.6589 7.61335 34.5201 7.22577 34.3312L7.61862 32.8275C7.91624 32.9973 8.23754 33.125 8.5727 33.2068C8.89679 33.2893 9.23024 33.3326 9.56536 33.3355C9.954 33.3683 10.3409 33.2556 10.6457 33.0205C10.7502 32.9377 10.8355 32.8347 10.8959 32.7179C10.9564 32.6012 10.9906 32.4735 10.9965 32.3431C10.9981 32.2079 10.9694 32.0738 10.9123 31.9503C10.8526 31.823 10.7681 31.708 10.6632 31.6116C10.5306 31.4925 10.3847 31.3881 10.2283 31.3C10.0564 31.1916 9.84248 31.0799 9.60042 30.9613C9.31443 30.8233 9.03686 30.6695 8.76911 30.5007C8.51257 30.3453 8.27693 30.1599 8.0676 29.9486C7.88032 29.7489 7.72969 29.5199 7.62214 29.2713C7.51103 28.9926 7.45625 28.696 7.46075 28.3975C7.45474 28.0173 7.55276 27.6422 7.74491 27.3103C7.93915 26.9933 8.19953 26.7188 8.50958 26.5042C8.78924 26.3026 9.10939 26.1595 9.44963 26.0843C9.8075 26.0059 10.1735 25.9672 10.5405 25.9691C10.8338 25.9683 11.1269 25.9875 11.4174 26.0267C11.7086 26.0639 11.9927 26.1147 12.2733 26.1757L12.0032 27.6287C11.7629 27.565 11.5178 27.5197 11.2701 27.4932C11.0378 27.4604 10.8034 27.4435 10.5685 27.4424C10.2061 27.4332 9.84624 27.5039 9.51627 27.649C9.38315 27.7024 9.27029 27.7942 9.19309 27.9117C9.1159 28.0293 9.0781 28.167 9.0848 28.306C9.0801 28.4314 9.10784 28.5559 9.16548 28.6684C9.22614 28.7766 9.30841 28.8722 9.40754 28.9495C9.53599 29.0507 9.67467 29.1392 9.82141 29.2137C9.98628 29.3085 10.1722 29.4101 10.4212 29.5253C10.7334 29.6811 11.0175 29.8437 11.2876 30.0062C11.5467 30.1648 11.7826 30.3562 11.9891 30.5752C12.1912 30.7947 12.3515 31.0469 12.4627 31.3203C12.5856 31.6315 12.6452 31.9627 12.6381 32.2957C12.6457 32.643 12.5701 32.9873 12.4171 33.3016Z" fill="currentColor"></path>
                <path d="M85.0898 0V19.2H104.726V0H85.0898ZM95.8436 10.3604V13.8522H94.2183V10.3739L90.8687 5.48328V5.3512H92.8208L95.0573 8.76516L97.3217 5.3512H99.2072V5.5104L95.8436 10.3604Z" fill="currentColor"></path>
                <path d="M73.9343 7.16961C73.7965 7.03885 73.6345 6.93428 73.4565 6.8614C73.2274 6.77204 72.9807 6.73048 72.7337 6.73948H72.0312V9.48281H72.5193C72.7058 9.48001 72.8912 9.46073 73.074 9.42525C73.2822 9.38645 73.4802 9.30817 73.657 9.19493C73.846 9.07573 74.0027 8.91421 74.1131 8.72417C74.2461 8.48277 74.3091 8.21137 74.296 7.93841C74.2825 7.64881 74.1573 7.37445 73.9446 7.16961H73.9343Z" fill="currentColor"></path>
                <path d="M63.8164 0V19.2H83.4528V0H63.8164ZM77.1225 13.7438L75.2231 13.9267L73.0009 10.8785H72.0109V13.8183H70.4273V5.37832C70.7783 5.34444 71.1612 5.32072 71.5122 5.3004C71.8632 5.28008 72.2146 5.27332 72.5268 5.27332C72.7755 5.27212 73.0238 5.28344 73.2713 5.30716C73.4959 5.3286 73.7176 5.3694 73.9349 5.42912C74.2474 5.50808 74.5444 5.63748 74.8124 5.8118C75.2832 6.11448 75.6297 6.56604 75.7921 7.08864C75.8752 7.3428 75.9165 7.60792 75.9149 7.8744C75.9116 8.3664 75.7868 8.8506 75.5512 9.28696C75.3155 9.72332 74.9756 10.0994 74.5595 10.384L77.1225 13.6151V13.7438Z" fill="currentColor"></path>
                <path d="M54.5528 7.45074C54.2987 7.18366 53.9903 6.9703 53.6466 6.82418C53.2887 6.67046 52.9013 6.59194 52.5094 6.59386C52.1125 6.59038 51.719 6.6665 51.3541 6.81738C51.0092 6.96026 50.6987 7.17006 50.4414 7.43378C50.1763 7.7039 49.9709 8.02306 49.8376 8.37194C49.6895 8.75654 49.6154 9.16402 49.6199 9.57426C49.6163 9.60918 49.6163 9.64434 49.6199 9.67926C49.6216 9.71426 49.6216 9.7493 49.6199 9.78426C49.6416 10.1699 49.7357 10.5486 49.8973 10.9019C50.0474 11.2353 50.2581 11.5403 50.5187 11.8028C50.7814 12.0568 51.0923 12.2593 51.4351 12.3989C51.7775 12.5452 52.1485 12.6191 52.5233 12.6157C52.9131 12.6171 53.2989 12.5374 53.654 12.382C53.9968 12.2243 54.3044 12.0034 54.5597 11.7317C54.8219 11.4495 55.0269 11.122 55.1635 10.7665C55.312 10.3785 55.3861 9.96754 55.3812 9.55394C55.3857 9.1547 55.3116 8.75826 55.1635 8.3855C55.0249 8.03846 54.8174 7.7209 54.5528 7.45074Z" fill="currentColor"></path>
                <path d="M42.5469 0V19.2H62.1832V0H42.5469ZM56.7448 11.4272C56.4965 11.9728 56.1385 12.4654 55.6918 12.8768C55.036 13.4779 54.2137 13.8824 53.324 14.0411C52.4346 14.1998 51.5166 14.106 50.6816 13.7709C50.1302 13.5504 49.6299 13.2257 49.2106 12.8158C48.7818 12.405 48.4427 11.9156 48.2136 11.3764C47.9653 10.8132 47.8397 10.2068 47.8446 9.59492C47.8426 8.99036 47.9616 8.39116 48.196 7.83036C48.4173 7.29552 48.7466 6.80852 49.1647 6.39776C49.5869 5.99092 50.0848 5.6646 50.6326 5.43588C51.22 5.19624 51.8521 5.0752 52.4898 5.08028C53.1141 5.078 53.7331 5.19304 54.3119 5.41896C54.8576 5.634 55.3559 5.94784 55.7793 6.34356C56.2011 6.74928 56.5353 7.2316 56.7624 7.76264C57.0021 8.32304 57.1216 8.92444 57.1134 9.53056C57.1277 10.1806 57.0021 10.8263 56.7448 11.4272Z" fill="currentColor"></path>
                <path d="M21.2734 0V19.2H40.9098V0H21.2734ZM34.3409 6.8482H31.8482V13.8082H30.2051V6.8482H27.7475V5.3512H34.3409V6.8482Z" fill="currentColor"></path>
                <path d="M0 0V19.2H19.6364V0H0ZM12.4285 12.5008C12.2729 12.8104 12.0516 13.085 11.779 13.3069C11.492 13.5426 11.1639 13.7272 10.81 13.8522C10.4284 13.9858 10.0258 14.0545 9.61981 14.0554C9.2297 14.0529 8.84066 14.0155 8.45771 13.9436C8.03315 13.8636 7.62124 13.7304 7.2324 13.5474L7.62214 12.0436C7.92213 12.2117 8.24461 12.3394 8.5806 12.4229C8.90615 12.5055 9.24108 12.5488 9.57768 12.5516C9.9655 12.5833 10.3511 12.4706 10.6555 12.2366C10.7608 12.1545 10.8466 12.0515 10.9072 11.9347C10.9677 11.8178 11.0016 11.6898 11.0066 11.5593C11.0077 11.4244 10.9802 11.2907 10.9259 11.1664C10.8648 11.039 10.779 10.924 10.6731 10.8277C10.539 10.7024 10.3906 10.5922 10.2307 10.4992C10.0587 10.3908 9.848 10.2791 9.60226 10.1605C9.31885 10.0215 9.0434 9.86772 8.77721 9.69992C8.51989 9.54392 8.28401 9.35732 8.07505 9.14448C7.88633 8.945 7.73435 8.71592 7.62562 8.46712C7.51443 8.18848 7.45961 7.89184 7.46415 7.59328C7.45765 7.2126 7.55705 6.8372 7.75203 6.50612C7.93902 6.1824 8.19655 5.9016 8.50688 5.68312C8.79672 5.47928 9.12825 5.33728 9.47937 5.26652C9.83753 5.18776 10.2039 5.14912 10.5713 5.1514C10.8637 5.15056 11.1559 5.1698 11.4455 5.20896C11.7369 5.2462 12.0248 5.297 12.3021 5.358L12.0318 6.81092C11.7924 6.74764 11.5482 6.70232 11.3015 6.67548C11.0689 6.64304 10.8343 6.62604 10.5993 6.62468C10.2365 6.6148 9.87615 6.68548 9.54609 6.83124C9.4122 6.88416 9.29851 6.97568 9.22058 7.09328C9.14265 7.21088 9.10428 7.34888 9.11074 7.48832C9.10555 7.61264 9.13336 7.7362 9.19149 7.84732C9.25229 7.95644 9.33455 8.05308 9.43376 8.1318C9.56189 8.24044 9.70061 8.33688 9.848 8.41968C10.013 8.51452 10.1991 8.61612 10.4484 8.73128C10.7573 8.88708 11.0452 9.04964 11.3156 9.2122C11.5749 9.3708 11.8111 9.56216 12.0177 9.7812C12.4592 10.2561 12.6921 10.8778 12.6673 11.5152C12.6677 11.8572 12.586 12.1945 12.4285 12.5008Z" fill="currentColor"></path>
                <path d="M124.772 0H106.363V18L124.772 0Z" fill="currentColor"></path>
                <path d="M125.999 19.1993V1.19922L107.59 19.1993H125.999Z" fill="currentColor"></path>
            </svg>