<svg width="447" height="109" viewBox="0 0.35351563 447 108.00048" fill="none" xmlns="http://www.w3.org/2000/svg"><path fill-rule="evenodd" clip-rule="evenodd" d="M219 54.3535C219 84.1769 194.823 108.354 165 108.354C135.177 108.354 111 84.1769 111 54.3535C111 24.5301 135.177 0.353516 165 0.353516C194.823 0.353516 219 24.5301 219 54.3535ZM345 3.35352H396C409.526 3.35352 422.498 8.72672 432.062 18.2911C441.627 27.8554 447 40.8275 447 54.3535C447 67.8796 441.627 80.8516 432.062 90.416C422.498 99.9803 409.526 105.354 396 105.354H345V3.35352ZM282 3.35352H231V105.354H333V54.3535H282V3.35352ZM94.0919 11.2617C99.1554 16.3251 102 23.1927 102 30.3535C101.999 35.3126 100.632 40.1757 98.05 44.4092C95.4675 48.6428 91.7689 52.0834 87.36 54.3535C92.7406 57.1266 97.0333 61.6273 99.5488 67.1331C102.064 72.6388 102.657 78.8301 101.231 84.713C99.8054 90.5958 96.4441 95.8289 91.6871 99.5721C86.9301 103.315 81.0532 105.351 75 105.354H0V3.35352H75C82.1608 3.35352 89.0284 6.19818 94.0919 11.2617Z" fill="#E60046"></path></svg>