<svg xmlns="http://www.w3.org/2000/svg" width="108" height="32" fill="none"><g fill="#102228" fill-rule="evenodd" clip-path="url(#logotype_svg__a)" clip-rule="evenodd"><path d="M87.177 20.978c.112-.345.165-.717.168-1.094.001-.109-.125-.173-.216-.11l-5.178 3.589c-.319.222-.591.715-.61 1.099 0 0-.074 1.666-.432 2.762-.69 2.137-.586 3.521.133 4.03.718.508 2.06.141 3.845-1.226.912-.7 2.457-1.327 2.457-1.327.357-.144.728-.568.832-.943l1.636-5.983c.028-.104-.073-.202-.175-.166-.336.118-.65.278-.928.48-1.365.989-2.054.49-1.532-1.111ZM85.642 16.258c-1.365-.991-1.101-1.802.585-1.802a3.7 3.7 0 0 0 1.084-.172c.104-.032.126-.173.04-.24l-4.99-3.774c-.302-.231-.844-.326-1.206-.221 0 0-1.571.47-2.696.491-2.195.044-3.45.586-3.703 1.432-.252.84.495 1.987 2.307 3.227.926.634 1.98 1.886 1.98 1.886.244.289.75.503 1.126.478l6.078-.4c.108-.007.167-.134.1-.218a3.566 3.566 0 0 0-.705-.687ZM95.01 6.683c.133-.35.073-.89-.135-1.198 0 0-.898-1.348-1.24-2.402C92.965 1.03 92.083 0 91.203 0c-.883 0-1.762 1.03-2.437 3.083-.341 1.056-1.242 2.404-1.242 2.404-.207.31-.268.85-.136 1.197l2.173 5.725c.039.102.18.121.24.03.19-.284.341-.585.442-.898.522-1.605 1.378-1.605 1.897 0 .104.317.26.625.455.912.06.09.2.07.24-.032l2.175-5.738ZM101.059 24.461c-.016-.383-.291-.876-.608-1.098l-5.193-3.598c-.09-.062-.217 0-.216.11.004.378.056.752.167 1.102.523 1.601-.166 2.1-1.534 1.112a3.684 3.684 0 0 0-.909-.476c-.102-.037-.203.062-.175.166l1.634 5.979c.102.374.476.799.832.943 0 0 1.545.627 2.456 1.328 1.786 1.367 3.126 1.733 3.847 1.224.719-.508.821-1.894.131-4.029-.356-1.096-.432-2.763-.432-2.763ZM107.645 11.971c-.254-.845-1.508-1.388-3.704-1.43-1.124-.022-2.696-.492-2.696-.492-.362-.105-.902-.009-1.206.221l-4.993 3.78c-.088.065-.066.207.04.239.353.108.716.167 1.072.167 1.688 0 1.95.81.586 1.802-.26.19-.496.424-.704.687-.067.085-.007.211.1.218l6.089.4c.379.025.885-.19 1.128-.478 0 0 1.055-1.252 1.98-1.885 1.812-1.241 2.56-2.39 2.308-3.229ZM47.549 25.752c-.544.76-1.684 1.27-2.832 1.27-1.15 0-2.286-.51-2.83-1.27-.657-.93-.871-1.453-.871-4.072 0-2.587.214-3.106.871-4.038.544-.759 1.681-1.27 2.83-1.27 1.15 0 2.288.511 2.832 1.273.655.93.866 1.45.866 4.07 0 2.585-.211 3.106-.866 4.037Zm2.665-10.818c-1.392-1.537-3.24-2.318-5.496-2.318-2.255 0-4.105.78-5.499 2.318-1.355 1.495-1.961 2.824-1.961 6.746 0 3.954.606 5.287 1.963 6.78 1.392 1.539 3.242 2.32 5.496 2.32 2.257 0 4.105-.781 5.496-2.32 1.357-1.493 1.963-2.826 1.963-6.78 0-3.923-.606-5.252-1.962-6.746ZM64.725 25.752c-.543.76-1.68 1.27-2.829 1.27-1.15 0-2.287-.51-2.832-1.27-.655-.93-.869-1.453-.869-4.072 0-2.587.214-3.104.87-4.038.544-.759 1.682-1.27 2.831-1.27 1.148 0 2.286.511 2.83 1.273.654.93.868 1.45.868 4.07 0 2.585-.213 3.106-.869 4.037Zm2.664-10.818c-1.387-1.537-3.24-2.318-5.493-2.318-2.257 0-4.104.78-5.497 2.318-1.356 1.495-1.964 2.824-1.964 6.746.001 3.954.608 5.287 1.964 6.78 1.393 1.539 3.24 2.32 5.497 2.32 2.254 0 4.106-.781 5.494-2.32 1.357-1.494 1.963-2.828 1.963-6.78 0-3.922-.606-5.252-1.964-6.746ZM3.53 7.74c-1.44 1.29-2.2 3.112-2.2 5.268 0 3.792 2.46 6.395 6.578 6.962l1.414.198 1.813.248c2 .248 3.099 1.381 3.099 3.187 0 2-1.858 3.288-4.732 3.288-1.865 0-3.82-.53-5.505-1.495-.893-.512-1.914-.397-2.548.281l.033-.012c-.054.037-.25.26-1.43 1.605L0 27.33l.058.051c2.542 2.272 5.709 3.426 9.409 3.426 5.44 0 8.685-2.694 8.685-7.204 0-2.915-1.776-6.532-6.784-7.133l-2.745-.378c-2.114-.324-3.377-1.448-3.377-3.015 0-1.067.4-1.944 1.155-2.541.705-.556 1.684-.851 2.823-.851 1.533 0 3.096.381 4.648 1.129a1.956 1.956 0 0 0 2.4-.675l1.187-1.731-.066-.045c-2.556-1.72-5.244-2.592-7.996-2.592-2.402 0-4.428.682-5.866 1.97ZM21.096 13.129v17.438h3.76V13.13h-3.76ZM21.096 6.305v2.822c0 1.073.875 1.95 1.954 1.95h1.806v-2.82a1.956 1.956 0 0 0-1.953-1.952h-1.807ZM30.61 6.305a1.955 1.955 0 0 0-1.953 1.953V26.08c0 2.727 1.735 4.488 4.422 4.488h2.72l-.786-3.546h-1.405c-.87 0-1.193-.34-1.193-1.26v-9.575h2.614v-3.058h-2.614V6.305h-1.806Z"></path></g><defs><clipPath id="logotype_svg__a"><path fill="#fff" d="M0 0h108v32H0z"></path></clipPath></defs></svg>