<?xml version="1.0" encoding="utf-8"?>
<svg width="125" height="27" viewBox="0 0 125 27" fill="none" xmlns="http://www.w3.org/2000/svg">
<g clip-path="url(#clip0_1204_5142)">
<path d="M40.513 14.175C40.513 13.039 40.2159 12.2323 39.638 11.7878C39.0602 11.3433 38.2183 11.1128 37.1122 11.1128C36.4353 11.1128 35.7915 11.1622 35.1971 11.2774C34.6028 11.3762 34.025 11.5244 33.4637 11.7055C33.1005 11.0634 32.9024 10.3061 32.9024 9.41707C33.5627 9.20304 34.2891 9.03841 35.0816 8.92316C35.874 8.80792 36.6499 8.74207 37.3763 8.74207C39.3244 8.74207 40.7937 9.18658 41.8007 10.0591C42.8078 10.9482 43.3195 12.3476 43.3195 14.2902V23.6085C42.6427 23.7567 41.8172 23.9213 40.8432 24.086C39.8692 24.2506 38.8786 24.3329 37.8716 24.3329C36.9141 24.3329 36.0556 24.2506 35.2962 24.0695C34.5368 23.8884 33.8764 23.6085 33.3481 23.2299C32.8198 22.8347 32.4071 22.3408 32.11 21.7482C31.8128 21.1555 31.6807 20.4146 31.6807 19.575C31.6807 18.7354 31.8458 18.011 32.1925 17.3854C32.5392 16.7597 33.0014 16.2329 33.5793 15.8213C34.1571 15.4097 34.8339 15.0969 35.5934 14.8994C36.3528 14.7018 37.1452 14.5866 37.9871 14.5866C38.6145 14.5866 39.1263 14.603 39.5225 14.636C39.9187 14.6689 40.2489 14.7018 40.5295 14.7347V14.175H40.513ZM40.513 17.0067C40.2159 16.9738 39.8527 16.9244 39.4069 16.8915C38.9612 16.8585 38.5815 16.8256 38.2678 16.8256C37.0626 16.8256 36.1381 17.0561 35.5108 17.5006C34.8835 17.9451 34.5698 18.6201 34.5698 19.5256C34.5698 20.1018 34.6688 20.5628 34.8835 20.8921C35.0981 21.2213 35.3622 21.4683 35.6924 21.6494C36.0061 21.8305 36.3693 21.9293 36.749 21.9622C37.1452 21.9951 37.5084 22.028 37.8551 22.028C38.3008 22.028 38.7631 22.0116 39.2418 21.9622C39.7206 21.9128 40.1333 21.8469 40.513 21.7482V17.0067V17.0067Z" fill="white"/>
<path d="M47.5623 2.71644C47.7769 2.68351 48.0081 2.65059 48.2722 2.63412C48.5363 2.61766 48.7675 2.6012 48.9821 2.6012C49.1967 2.6012 49.4443 2.61766 49.7085 2.63412C49.9726 2.65059 50.2203 2.68351 50.4349 2.71644V24.0036C50.2203 24.0366 49.9726 24.0695 49.7085 24.0859C49.4443 24.1024 49.1967 24.1189 48.9821 24.1189C48.7675 24.1189 48.5363 24.1024 48.2722 24.0859C48.0081 24.0695 47.7769 24.0366 47.5623 24.0036V2.71644ZM50.5009 16.2658L55.9819 9.08778C56.2295 9.05486 56.4937 9.02193 56.7413 9.00547C56.9889 8.989 57.2531 8.97254 57.5337 8.97254C57.8309 8.97254 58.095 8.989 58.3592 9.00547C58.6233 9.02193 58.8875 9.05486 59.1681 9.08778L53.6871 16.0518L59.9771 23.9872C59.7129 24.0201 59.4488 24.053 59.1846 24.0695C58.937 24.086 58.6728 24.1024 58.3922 24.1024C58.1281 24.1024 57.8474 24.086 57.5833 24.0695C57.3191 24.053 57.0385 24.0201 56.7743 23.9872L50.5009 16.2658Z" fill="white"/>
<path d="M64.2199 17.2536C64.2529 18.8835 64.6821 20.0689 65.4911 20.8262C66.3 21.5835 67.4886 21.9622 69.057 21.9622C70.4272 21.9622 71.7479 21.7152 72.9861 21.2378C73.1347 21.5341 73.2668 21.8799 73.3658 22.2915C73.4649 22.703 73.5144 23.1146 73.5474 23.5262C72.9036 23.7896 72.2102 24.0037 71.4343 24.1354C70.6749 24.2671 69.8164 24.3329 68.8919 24.3329C67.5382 24.3329 66.366 24.1518 65.392 23.7732C64.418 23.3945 63.6255 22.8677 62.9817 22.1762C62.3544 21.4847 61.8921 20.678 61.5949 19.7396C61.2978 18.8012 61.1657 17.764 61.1657 16.6445C61.1657 15.5415 61.3143 14.5043 61.5949 13.5494C61.8756 12.5945 62.3048 11.7549 62.8992 11.0469C63.477 10.339 64.2199 9.77926 65.0948 9.36767C65.9698 8.95609 67.0264 8.74207 68.2315 8.74207C69.2551 8.74207 70.1631 8.92316 70.939 9.26889C71.7149 9.61462 72.3588 10.0921 72.8871 10.7012C73.4154 11.3104 73.8116 12.0347 74.0757 12.8744C74.3399 13.714 74.4884 14.636 74.4884 15.6238C74.4884 15.9036 74.4719 16.1835 74.4554 16.4799C74.4389 16.7762 74.4224 17.0396 74.3894 17.2536H64.2199V17.2536ZM71.6324 15.1134C71.6324 14.5701 71.5663 14.0597 71.4178 13.5658C71.2692 13.0719 71.0546 12.6439 70.7739 12.2652C70.4933 11.903 70.1301 11.6067 69.7008 11.3762C69.2716 11.1457 68.7433 11.0469 68.149 11.0469C66.9603 11.0469 66.0524 11.4091 65.425 12.1171C64.7977 12.8415 64.418 13.8293 64.2694 15.1134H71.6324V15.1134Z" fill="white"/>
<path d="M78.269 9.10426C78.4837 9.07133 78.6983 9.0384 78.8964 9.02194C79.0945 9.00548 79.3091 8.98902 79.5237 8.98902C79.7383 8.98902 79.9364 9.00548 80.118 9.02194C80.2996 9.0384 80.4978 9.07133 80.7124 9.10426C80.7784 9.4006 80.8279 9.77926 80.894 10.2732C80.96 10.7671 80.9765 11.1786 80.9765 11.5079C81.1746 11.1786 81.4223 10.8494 81.7194 10.5201C82.0166 10.1908 82.3633 9.8945 82.7595 9.63109C83.1557 9.36767 83.6014 9.15365 84.0967 8.98902C84.6085 8.82438 85.1533 8.74207 85.7641 8.74207C87.481 8.74207 88.7357 9.23597 89.5447 10.2073C90.3536 11.1786 90.7663 12.6274 90.7663 14.5536V23.9872C90.5517 24.0201 90.3041 24.053 90.0399 24.0695C89.7758 24.086 89.5282 24.1024 89.3135 24.1024C89.0989 24.1024 88.8678 24.086 88.6037 24.0695C88.3395 24.053 88.1084 24.0201 87.8938 23.9872V15.3274C87.8938 13.961 87.6792 12.9402 87.2499 12.2982C86.8207 11.6561 86.1438 11.3268 85.2028 11.3268C84.658 11.3268 84.1462 11.4256 83.6675 11.6232C83.1887 11.8207 82.7595 12.1171 82.3798 12.5287C82.0166 12.9402 81.7194 13.4671 81.4883 14.1091C81.2572 14.7512 81.1581 15.5415 81.1581 16.4469V24.0036C80.9435 24.0366 80.7124 24.0695 80.4482 24.086C80.1841 24.1024 79.953 24.1189 79.7383 24.1189C79.5237 24.1189 79.2761 24.1024 79.0119 24.086C78.7478 24.0695 78.5002 24.0366 78.2856 24.0036V9.10426H78.269Z" fill="white"/>
<path d="M97.2544 17.2536C97.2874 18.8835 97.7166 20.0689 98.5255 20.8262C99.3345 21.5835 100.523 21.9622 102.091 21.9622C103.462 21.9622 104.782 21.7152 106.021 21.2378C106.169 21.5341 106.301 21.8799 106.4 22.2915C106.499 22.703 106.549 23.1146 106.582 23.5262C105.938 23.7896 105.245 24.0037 104.469 24.1354C103.709 24.2671 102.851 24.3329 101.926 24.3329C100.573 24.3329 99.4005 24.1518 98.4265 23.7732C97.4525 23.3945 96.66 22.8677 96.0162 22.1762C95.3888 21.4847 94.9266 20.678 94.6294 19.7396C94.3323 18.8012 94.2002 17.764 94.2002 16.6445C94.2002 15.5415 94.3323 14.5043 94.6294 13.5494C94.9101 12.5945 95.3393 11.7549 95.9336 11.0469C96.5115 10.339 97.2544 9.77926 98.1293 9.36767C99.0208 8.95609 100.061 8.74207 101.266 8.74207C102.29 8.74207 103.198 8.92316 103.974 9.26889C104.749 9.61462 105.393 10.0921 105.922 10.7012C106.45 11.3104 106.846 12.0347 107.11 12.8744C107.374 13.714 107.523 14.636 107.523 15.6238C107.523 15.9036 107.506 16.1835 107.49 16.4799C107.473 16.7762 107.457 17.0396 107.424 17.2536H97.2544V17.2536ZM104.65 15.1134C104.65 14.5701 104.584 14.0597 104.436 13.5658C104.287 13.0719 104.073 12.6439 103.792 12.2652C103.511 11.903 103.148 11.6067 102.719 11.3762C102.29 11.1457 101.761 11.0469 101.167 11.0469C99.9783 11.0469 99.0703 11.4091 98.443 12.1171C97.8157 12.8415 97.436 13.8293 97.2874 15.1134H104.65V15.1134Z" fill="white"/>
<path d="M117.346 24.3494C116.174 24.3494 115.167 24.1518 114.292 23.7567C113.417 23.3616 112.69 22.8183 112.112 22.1104C111.535 21.4189 111.105 20.5957 110.825 19.6408C110.544 18.686 110.395 17.6652 110.395 16.5622C110.395 15.4591 110.544 14.4384 110.825 13.4835C111.105 12.5286 111.535 11.7055 112.112 11.014C112.69 10.3226 113.417 9.76279 114.292 9.35121C115.167 8.93962 116.19 8.74207 117.346 8.74207C118.518 8.74207 119.525 8.93962 120.4 9.35121C121.275 9.76279 122.001 10.3061 122.579 11.014C123.157 11.7055 123.586 12.5286 123.883 13.4835C124.164 14.4384 124.312 15.4591 124.312 16.5622C124.312 17.6652 124.164 18.686 123.883 19.6408C123.603 20.5957 123.173 21.4189 122.579 22.1104C122.001 22.8018 121.275 23.3616 120.4 23.7567C119.541 24.1518 118.518 24.3494 117.346 24.3494ZM117.346 22.0445C118.683 22.0445 119.673 21.5671 120.317 20.5957C120.961 19.6244 121.275 18.2744 121.275 16.5622C121.275 14.8335 120.961 13.5 120.317 12.5451C119.673 11.5902 118.683 11.1128 117.346 11.1128C116.008 11.1128 115.018 11.5902 114.391 12.5451C113.763 13.5 113.45 14.85 113.45 16.5622C113.45 18.2908 113.763 19.6244 114.391 20.5957C115.018 21.5671 116.008 22.0445 117.346 22.0445Z" fill="white"/>
<path d="M20.5206 26.3086C20.6197 26.6378 20.7022 26.8519 20.7352 26.9342C20.7517 26.9342 20.7187 26.9342 20.7352 26.9342C20.24 19.9208 24.3177 17.1385 25.754 12.5287C25.7705 12.4628 25.787 12.3805 25.8035 12.2982C25.8365 12.1994 25.853 12.0842 25.8695 11.9854C26.1006 10.7013 25.6219 9.18663 24.6809 7.60614C24.6809 7.58968 24.6644 7.58968 24.6644 7.57321C24.5818 7.44151 24.4993 7.3098 24.4167 7.17809C24.2682 6.93114 24.0866 6.68419 23.9215 6.43724C23.905 6.42077 23.8884 6.38785 23.8719 6.35492C23.8224 6.28907 23.7729 6.22321 23.7234 6.15736C23.6738 6.0915 23.6243 6.02565 23.5748 5.94334C23.5252 5.87748 23.4757 5.81163 23.4097 5.74577C23.3602 5.67992 23.2941 5.61407 23.2446 5.53175C23.2116 5.48236 23.1621 5.43297 23.129 5.38358C21.6102 3.52321 19.6291 1.67931 17.549 0.0494313C17.549 0.0494313 17.5325 0.0329679 17.549 0.0494313C17.7471 2.68358 17.6976 5.33419 17.3674 7.42504C16.9877 9.96041 15.9641 12.8744 14.6104 15.5086C11.6553 15.1628 8.66718 14.3891 6.33942 13.3025C4.39136 12.397 2.17916 10.9976 0.0825195 9.35126C0.0990285 9.56528 0.115537 9.79577 0.132046 10.0098C0.132046 10.0756 0.148556 10.1415 0.148556 10.2074C0.165065 10.372 0.181573 10.5202 0.198082 10.6683C0.198082 10.7342 0.214591 10.8165 0.214591 10.8824C0.2311 11.047 0.247609 11.1952 0.264118 11.3433C0.264118 11.4092 0.280627 11.475 0.280627 11.5409C0.313645 11.7385 0.330154 11.936 0.363172 12.1336C0.363172 12.15 0.363172 12.1665 0.363172 12.1994C0.39619 12.4299 0.429208 12.6604 0.462226 12.8744C0.462226 12.8909 0.462226 12.9074 0.478735 12.9238C0.511753 13.1214 0.544771 13.3189 0.577788 13.533C0.577788 13.5824 0.594297 13.6153 0.594297 13.6482C0.627315 13.8293 0.660333 14.0104 0.693351 14.1915C0.70986 14.2244 0.70986 14.2574 0.70986 14.2903C0.759387 14.5043 0.792405 14.7019 0.841932 14.9159C0.990512 15.5744 1.17211 16.2165 1.35371 16.8257C1.35371 16.8421 1.35371 16.8421 1.35371 16.8421C1.66738 17.8628 2.04709 18.8177 2.45981 19.6574C2.52585 19.7726 2.59188 19.9043 2.64141 20.0196V20.036C2.69094 20.1348 2.75697 20.25 2.82301 20.3488C2.82301 20.3488 2.82301 20.3488 2.82301 20.3653C2.88904 20.4805 2.95508 20.5793 3.02112 20.6781C3.03762 20.6946 3.03762 20.711 3.05413 20.711C3.13668 20.8427 3.23573 20.9744 3.31828 21.0897C3.33479 21.1061 3.35129 21.1226 3.3678 21.1555L3.38431 21.172C3.48337 21.3037 3.59893 21.4354 3.69798 21.5671C3.78053 21.6494 3.84656 21.7318 3.92911 21.8141C3.96213 21.847 3.99514 21.8799 4.02816 21.9129C4.07769 21.9622 4.12722 22.0116 4.17674 22.061C4.20976 22.0939 4.24278 22.1269 4.29231 22.1598C4.34183 22.2092 4.39136 22.2421 4.44089 22.275C4.4739 22.308 4.52343 22.3409 4.55645 22.3574C4.60598 22.3903 4.6555 22.4397 4.70503 22.4726C4.73805 22.5055 4.78757 22.522 4.82059 22.5549C4.87012 22.5878 4.91965 22.6208 4.98568 22.6537C5.0187 22.6702 5.06823 22.7031 5.10124 22.7196C5.16728 22.7525 5.21681 22.7854 5.28284 22.8019C5.31586 22.8183 5.34888 22.8348 5.3819 22.8513C5.48095 22.9007 5.58 22.9336 5.66255 22.9665C5.72859 22.983 5.77811 23.0159 5.82764 23.0324C10.4667 24.4153 15.0892 22.6208 20.6692 26.8848" fill="url(#paint0_linear_1204_5142)"/>
<g opacity="0.8">
<path opacity="0.51" d="M17.3674 7.42505C16.9877 9.96041 15.9641 12.8744 14.6104 15.5086C19.8438 16.1177 24.9285 15.3275 25.8035 12.2818C26.761 8.95615 22.4357 3.85249 17.549 0.0494385C17.7306 2.71651 17.6811 5.31773 17.3674 7.42505Z" fill="url(#paint1_linear_1204_5142)"/>
<path opacity="0.51" d="M6.33942 13.3025C4.39136 12.3971 2.17916 10.9977 0.0825195 9.35132C0.54477 15.5251 2.41028 21.9458 5.71208 22.9995C8.73322 23.9544 12.2166 20.1843 14.6104 15.5086C11.6553 15.1794 8.66718 14.3891 6.33942 13.3025Z" fill="url(#paint2_linear_1204_5142)"/>
</g>
<g opacity="0.7">
<path opacity="0.7" d="M10.4997 19.1471C2.78999 16.2989 0.0825195 9.35132 0.0825195 9.35132C0.363172 13.1379 1.17211 17.0068 2.52585 19.6903C2.59188 19.8056 2.64141 19.9208 2.70745 20.0361C2.70745 20.0525 2.72395 20.0525 2.72395 20.069C2.78999 20.1678 2.83952 20.283 2.90555 20.3818C2.90555 20.3983 2.92206 20.4147 2.93857 20.4147C3.00461 20.5135 3.05413 20.6123 3.12017 20.7111C3.13668 20.7275 3.13668 20.744 3.15319 20.744C3.21922 20.8428 3.26875 20.9251 3.33479 21.0239C3.38431 21.0897 3.41733 21.1391 3.45035 21.1885C3.46686 21.205 3.46686 21.2214 3.48337 21.2379C3.51638 21.2708 3.5494 21.3202 3.56591 21.3532C3.63195 21.4519 3.71449 21.5342 3.78053 21.6166C4.35834 22.2916 5.0187 22.7855 5.72859 23.016C5.79462 23.0324 5.84415 23.0653 5.89368 23.0818C10.5327 24.4647 15.1552 22.6702 20.7352 26.9343C20.306 26.358 16.3439 21.3202 10.4997 19.1471Z" fill="url(#paint3_linear_1204_5142)"/>
<path opacity="0.7" d="M25.8035 12.2818C26.761 8.95614 22.4357 3.85249 17.549 0.0494385C17.549 0.0494385 21.8083 6.15736 19.9098 14.1421C18.4405 20.2994 20.5702 26.4568 20.7352 26.9342C20.7518 26.9342 20.7187 26.9342 20.7352 26.9342C20.24 19.9208 24.3177 17.1385 25.754 12.5287C25.754 12.4464 25.7705 12.3641 25.8035 12.2818Z" fill="url(#paint4_linear_1204_5142)"/>
</g>
</g>
<defs>
<linearGradient id="paint0_linear_1204_5142" x1="3.62408" y1="21.7545" x2="25.8882" y2="9.81186" gradientUnits="userSpaceOnUse">
<stop offset="0.0429448" stop-color="#5C257E"/>
<stop offset="0.9693" stop-color="#8C509A"/>
</linearGradient>
<linearGradient id="paint1_linear_1204_5142" x1="25.8179" y1="23.0446" x2="14.4386" y2="1.7133" gradientUnits="userSpaceOnUse">
<stop offset="0.0429448" stop-color="#5C257E"/>
<stop offset="1" stop-color="white"/>
</linearGradient>
<linearGradient id="paint2_linear_1204_5142" x1="14.6715" y1="28.9896" x2="3.2922" y2="7.65823" gradientUnits="userSpaceOnUse">
<stop offset="0.0429448" stop-color="#5C257E"/>
<stop offset="1" stop-color="white"/>
</linearGradient>
<linearGradient id="paint3_linear_1204_5142" x1="5.30024" y1="11.5174" x2="14.1594" y2="28.1246" gradientUnits="userSpaceOnUse">
<stop offset="0.2331" stop-color="#4F256F"/>
<stop offset="0.8405" stop-color="#5C257E"/>
</linearGradient>
<linearGradient id="paint4_linear_1204_5142" x1="16.4453" y1="5.57316" x2="25.3043" y2="22.1801" gradientUnits="userSpaceOnUse">
<stop offset="0.2331" stop-color="#4F256F"/>
<stop offset="0.8405" stop-color="#5C257E"/>
</linearGradient>
<clipPath id="clip0_1204_5142">
<rect width="124.312" height="27" fill="white"/>
</clipPath>
</defs>
</svg>
