<svg width="165" height="37" viewBox="0 0 165 37" fill="none" xmlns="http://www.w3.org/2000/svg">
<g id="Layer_1" clip-path="url(#clip0_193_50301)">
<g id="Group">
<path id="Vector" d="M27.5543 12.1333L31.7316 12.1432C34.0852 12.1432 36.0014 10.2287 36.0014 7.87344V4.40746C35.9997 2.05224 34.0852 0.137695 31.7299 0.137695H28.264C25.9104 0.137695 23.9942 2.05224 23.9942 4.40746V8.57489C23.9942 10.5323 22.4015 12.1267 20.4424 12.1267H14.844C13.2744 12.1267 11.9969 13.4042 11.9969 14.9737V20.5721C11.9969 22.5296 10.4042 24.1239 8.44514 24.1239H1.42405C0.638428 24.1239 -0.00195312 24.7627 -0.00195312 25.5499V34.7034C-0.00195312 35.4891 0.636778 36.1294 1.42405 36.1294H10.5775C11.3632 36.1294 12.0036 35.4907 12.0036 34.7034V27.6824C12.0036 25.7249 13.5963 24.1305 15.5554 24.1305H20.444C22.4015 24.1305 23.9958 25.7232 23.9958 27.6824V36.1294H36.0014V24.1239H27.5543C25.5968 24.1239 24.0024 22.5312 24.0024 20.5721V15.6835C24.0024 13.726 25.5951 12.1316 27.5543 12.1316V12.1333Z" fill="#0AD36B"/>
<path id="Vector_2" d="M6.00275 12.1334C9.31798 12.1334 12.0055 9.44591 12.0055 6.13068C12.0055 2.81545 9.31798 0.12793 6.00275 0.12793C2.68752 0.12793 0 2.81545 0 6.13068C0 9.44591 2.68752 12.1334 6.00275 12.1334Z" fill="#0AD36B"/>
</g>
<g id="Group_2">
<path id="Vector_3" d="M86.854 4.13867H83.5762V32.1141H86.854V4.13867Z" fill="#0AD36B"/>
<path id="Vector_4" d="M164.602 12.1318H161.324V32.1157H164.602V12.1318Z" fill="#0AD36B"/>
<path id="Vector_5" d="M100.69 11.772C94.9724 11.772 90.3379 16.4065 90.3379 22.1237C90.3379 27.8409 94.9724 32.4754 100.69 32.4754C106.407 32.4754 111.041 27.8409 111.041 22.1237C111.041 16.4065 106.407 11.772 100.69 11.772ZM100.69 29.6399C96.5453 29.6399 93.1734 26.268 93.1734 22.1237C93.1734 17.9794 96.5453 14.6075 100.69 14.6075C104.834 14.6075 108.206 17.9794 108.206 22.1237C108.206 26.268 104.834 29.6399 100.69 29.6399Z" fill="#0AD36B"/>
<path id="Vector_6" d="M163.271 8.22209C164.393 8.03997 165.155 6.98277 164.973 5.86078C164.791 4.73879 163.734 3.97688 162.612 4.159C161.49 4.34113 160.728 5.39832 160.91 6.52031C161.092 7.6423 162.149 8.40422 163.271 8.22209Z" fill="#0AD36B"/>
<path id="Vector_7" d="M77.6817 12.1316H77.6784C75.9767 12.1365 74.5986 13.5146 74.5986 15.2163C72.618 13.0079 69.705 11.6546 66.4766 11.78C61.1192 11.988 56.7603 16.3435 56.5474 21.701C56.3131 27.6096 61.0334 32.4736 66.8909 32.4736C69.8519 32.4736 72.5207 31.2291 74.4071 29.2353V32.1138H77.685V17.8191V15.2179V12.1332L77.6817 12.1316ZM74.4055 22.1515C74.389 26.2827 71.0237 29.6397 66.8893 29.6397C62.7548 29.6397 59.373 26.2678 59.373 22.1235C59.373 17.9792 62.7449 14.6073 66.8893 14.6073C71.0336 14.6073 74.389 17.9643 74.4055 22.0954V22.1532V22.1515Z" fill="#0AD36B"/>
<path id="Vector_8" d="M155.74 12.1316H155.737C154.035 12.1365 152.657 13.5146 152.657 15.2163C150.677 13.0079 147.764 11.6546 144.535 11.78C139.178 11.988 134.819 16.3435 134.606 21.701C134.372 27.6096 139.092 32.4736 144.95 32.4736C147.91 32.4736 150.579 31.2291 152.466 29.2353V32.1138H155.744V17.8191V15.2179V12.1332L155.74 12.1316ZM152.464 22.1515C152.448 26.2827 149.082 29.6397 144.948 29.6397C140.813 29.6397 137.432 26.2678 137.432 22.1235C137.432 17.9792 140.804 14.6073 144.948 14.6073C149.092 14.6073 152.448 17.9643 152.464 22.0954V22.1532V22.1515Z" fill="#0AD36B"/>
<path id="Vector_9" d="M124.527 19.8016L132.051 12.1302H128.286L121.269 19.285H118.793C118.58 19.285 118.407 19.1117 118.407 18.8988V4.13867H115.129V32.1141H118.407V22.5876C118.407 22.3747 118.58 22.2014 118.793 22.2014H122.173L122.181 22.1931L122.176 22.2014L129.724 32.1124H133.489L124.497 20.3034C124.381 20.1515 124.395 19.9369 124.528 19.8L124.527 19.8016Z" fill="#0AD36B"/>
</g>
</g>
<defs>
<clipPath id="clip0_193_50301">
<rect width="165.001" height="36" fill="white" transform="translate(0 0.12793)"/>
</clipPath>
</defs>
</svg>
