<svg width="100" height="47" viewBox="0 0.0000000009313226 99.99993 46.999996" fill="none" xmlns="http://www.w3.org/2000/svg">
<path d="M98.3124 25.5018C97.8246 25.5018 97.4007 25.7536 96.9954 26.0016C96.9954 26.0016 96.2863 26.4187 95.9824 26.5953C94.2903 27.5686 92.5343 28.1585 90.6546 28.0045C89.5965 27.918 88.6097 27.6588 87.7693 27.0575C87.6305 26.9561 87.4992 26.8433 87.3528 26.7231C87.4241 26.6893 87.4616 26.6705 87.4992 26.6517C89.8366 25.6333 91.9828 24.2505 94.0089 22.6572C95.2733 21.6613 96.3764 20.4551 97.1755 19.061C98.1098 17.4339 98.5938 15.7316 98.3612 13.9429C98.1248 12.1429 97.2131 10.8465 95.5172 10.2001C94.2903 9.73417 92.9808 9.77175 91.6451 10.0573C89.5102 10.5158 87.6755 11.6168 86.1409 13.2327C83.2106 16.3178 81.9762 19.8839 82.2576 23.8409C82.2839 24.2204 82.3439 24.5962 82.3852 24.9456C80.5842 25.8438 78.8058 26.7306 77.0236 27.6099C76.9673 27.64 76.896 27.64 76.8435 27.6099C76.5208 27.4333 76.2244 27.2078 75.8867 27.0575C74.5285 26.445 73.0427 26.3698 71.5119 26.5164C71.2305 26.5427 70.9529 26.584 70.6377 26.6254C70.709 26.5314 70.754 26.4713 70.8028 26.4112C72.5212 24.258 79.8601 15.2318 81.7211 12.8832C81.7211 12.8757 81.7248 12.8682 81.7286 12.8644C81.7849 12.7855 81.8224 12.6991 81.8674 12.6126C81.8862 12.5788 81.9087 12.545 81.9275 12.5074C81.9575 12.4398 81.9837 12.3721 82.0062 12.3045C82.04 12.2068 82.0625 12.1053 82.0813 12.0039C82.085 11.97 82.1038 11.94 82.1075 11.9024C82.1075 11.8911 82.1075 11.8761 82.1075 11.8648C82.1075 11.8348 82.1075 11.8009 82.1075 11.7709C82.1075 11.6845 82.1113 11.598 82.1038 11.5154C82.0963 11.4327 82.0738 11.35 82.055 11.2636C82.0513 11.2448 82.0475 11.2222 82.0438 11.2035C82.0363 11.1734 82.0325 11.1433 82.025 11.1133C81.7061 10.1325 80.6518 9.59513 79.6725 9.91454C79.6275 9.92957 75.02 11.3913 69.1482 10.5233C68.1276 10.3655 67.1784 11.0795 67.0246 12.1016C66.8745 13.1237 67.5798 14.0744 68.6004 14.2285C70.1537 14.4577 71.6207 14.5479 72.9715 14.5479C74.3222 14.5479 75.4177 14.4652 76.4383 14.3487C74.9 16.2389 69.257 23.0405 67.3735 25.3477C66.9983 25.8099 66.5743 26.2383 66.1466 26.6554C65.5125 27.2717 64.8146 27.7978 63.9854 28.0984C62.4809 28.6471 61.1527 28.0496 60.6987 26.6254C60.4548 25.8513 60.4548 25.0396 60.5936 24.2166C60.7587 23.2208 63.2801 13.274 63.539 12.3383C63.5465 12.3158 63.5615 12.2556 63.5652 12.2368C63.5652 12.2368 63.6102 12.0302 63.6215 11.9024C63.7266 10.8878 62.9912 10.0649 61.9781 10.0649C60.9651 10.0649 60.1959 10.854 59.9295 11.9024C59.9295 11.9024 59.7832 12.5713 59.7082 12.8268C59.7082 12.8268 59.6144 12.6239 59.5806 12.5563C58.9503 11.2298 57.9597 10.3016 56.4627 10.0047C54.5042 9.61768 52.5906 10.0198 50.7484 11.0682C49.0525 12.0339 47.7769 13.4243 46.7526 15.0589C45.9159 16.3929 45.308 17.8171 44.719 19.2526C44.1149 20.7219 43.5258 22.1987 42.8617 23.6455C42.2764 24.9269 41.4885 26.0955 40.423 27.0763C40.014 27.4558 39.5675 27.7753 39.031 27.9331C38.4044 28.1172 37.7628 27.873 37.4851 27.3318C37.3538 27.0763 37.2675 26.7794 37.2263 26.4863C37.0762 25.5018 37.2675 24.5022 37.4701 23.5102C37.8153 21.8417 38.3594 20.0868 39.0647 18.5048C39.7589 16.9453 40.5168 15.4047 41.2596 13.864C41.3009 13.7813 41.3309 13.7024 41.361 13.6197C41.4472 13.4318 41.5035 13.2289 41.526 13.0185C41.6311 12.0076 40.8995 11.1847 39.8864 11.1847C39.7363 11.1847 38.7758 11.3463 38.4419 11.4101C36.1157 11.8686 35.5904 12.0302 33.2829 11.8949C33.1141 11.8836 32.949 11.8648 32.7726 11.8498C32.7877 11.7671 32.7839 11.4703 32.7877 11.4289C32.889 10.4557 32.1836 9.67029 31.2156 9.67029C30.2476 9.67029 29.4559 10.4519 29.2758 11.4289C29.2758 11.444 29.2045 11.7258 29.0919 12.2256C28.668 14.0819 28.1765 15.927 27.5161 17.7382C26.7545 19.8313 25.6889 21.9732 24.3157 23.8033C23.6891 24.6413 22.7736 25.4116 21.9332 26.0504C21.8506 26.1106 21.7606 26.1632 21.6292 26.2458C21.6705 26.1632 21.6818 26.1369 21.693 26.1143C22.8749 24.04 23.6215 21.8831 23.8804 19.6397C23.9517 19.0985 24.0043 18.5574 24.0193 18.005C24.0568 16.5508 23.8579 15.1566 23.2914 13.879C22.1733 11.365 20.2185 9.95212 17.307 9.86569C15.8662 9.8206 14.3766 10.155 13.0522 10.8765C12.9847 10.9141 12.9171 10.9442 12.8421 10.9818C12.8421 10.9517 12.8383 10.9442 12.8421 10.9367C12.8421 10.9367 14.0465 6.41605 14.6505 1.9443C14.7744 0.914672 14.0577 0.0466258 13.0297 0.00153252C12.1255 -0.0360452 11.3413 0.621565 11.225 1.51967C10.4521 7.49454 8.66612 14.8447 6.82389 20.023C5.83712 22.7962 3.9949 25.1147 1.38726 26.7231C1.28596 26.787 1.14714 26.8621 0.993304 26.9373C0.179123 27.3469 -0.207332 28.3013 0.111587 29.1581C0.479282 30.1502 1.62364 30.6086 2.56914 30.1426C4.11496 29.3836 5.5182 28.3727 6.74135 27.05C6.78637 27.0012 6.83515 26.9523 6.89143 26.8922C6.9177 26.9598 6.93645 27.0162 6.95521 27.0688C7.41296 28.3464 8.19712 29.485 9.29646 30.2629C10.6472 31.2211 12.238 31.6044 13.9639 31.6495C14.0427 31.6495 14.1103 31.6382 14.1853 31.6345L14.174 31.6495C15.5285 31.6833 16.8905 31.5368 18.2449 31.2136C22.3609 30.2291 25.9628 27.9669 28.3003 24.2692C29.8611 21.8041 30.9379 19.076 31.7296 16.3516C31.8497 15.9383 31.9585 15.5249 32.0823 15.089C36.5059 15.3971 36.9261 14.9124 36.8961 14.98C36.6822 15.446 36.4684 15.9909 36.2695 16.4643C35.1552 19.1436 34.1496 21.9695 33.7294 24.7916C33.5343 26.1068 33.493 27.407 33.8157 28.6583C34.1796 30.0675 34.9938 31.0708 36.4383 31.4579C38.228 31.9389 39.9427 31.5931 41.5486 30.3719C42.6029 29.5677 43.432 28.5644 44.1674 27.4784C44.2387 27.3732 44.3138 27.2642 44.4076 27.1289C44.4826 27.3318 44.5089 27.4032 44.5877 27.5986C44.9516 28.4967 45.4656 29.331 46.1672 29.9923C47.8819 31.6044 49.9943 32.0629 52.4856 31.3226C54.0464 30.8604 55.3183 29.8721 56.4252 28.6546C56.609 28.4516 56.7854 28.2412 56.9842 28.012C57.0368 28.2224 57.078 28.4028 57.1268 28.5757C57.4307 29.6391 57.9785 30.5109 58.984 31.0145C60.391 31.7172 61.9181 31.8637 63.5315 31.4128C64.5407 31.1309 65.5275 30.7213 66.5143 30.3493C68.3152 29.6692 70.1349 29.3047 71.9922 29.3836C72.4124 29.4024 72.8176 29.4775 73.2228 29.6353C73.1215 29.6955 73.0427 29.7406 72.9677 29.7857C71.7371 30.5598 70.4876 31.3076 69.2795 32.1117C67.6061 33.2278 66.1428 34.5768 65.036 36.2753C63.8804 38.0415 63.205 39.9166 63.2988 41.9383C63.3889 43.8585 64.2068 45.3391 65.8089 46.2936C67.1634 47.0977 68.6904 47.1804 70.2925 46.7182C73.0352 45.9253 75.2189 44.2907 76.8398 41.8782C77.8453 40.3826 78.4906 38.7592 78.8771 37.057C79.3086 35.1555 79.3911 33.2841 78.9859 31.4541C78.9146 31.1309 78.8208 30.8153 78.7308 30.4658C80.648 29.361 83.5633 28.1886 83.5633 28.1886C83.6234 28.275 83.6646 28.3352 83.7059 28.3953C84.4225 29.455 85.4093 30.3005 86.5874 30.8303C88.4034 31.6458 90.3769 31.7998 92.433 31.5443C94.7105 31.2587 96.8304 30.4132 98.7964 29.0642C98.7964 29.0642 99.8957 28.2976 99.9895 27.3732C100.098 26.336 99.3479 25.4943 98.3124 25.4943V25.5018ZM20.4023 19.4818C20.0009 22.2701 18.9766 24.5586 16.9993 26.4751C16.3502 27.0988 15.6223 27.5836 14.7781 27.8391C13.3936 28.2562 12.2343 27.9894 11.2925 27.0763C10.5159 26.321 10.1106 25.3477 9.98682 24.2467C9.64539 21.1428 10.5309 18.2681 12.722 15.6752C13.2698 15.0251 13.9152 14.484 14.658 14.0782C16.4703 13.0936 18.5864 13.537 19.5807 15.0965C20.1134 15.9345 20.3536 16.8965 20.4061 17.9261C20.4361 18.5161 20.4061 19.1173 20.3986 19.4856L20.4023 19.4818ZM55.4909 25.3365C54.8231 26.2045 54.0277 26.9373 53.0597 27.4596C51.1499 28.4892 49.2851 28.0383 48.3209 26.306C47.8294 25.4229 47.6268 24.4383 47.608 23.3974C47.6043 23.1081 47.6155 22.815 47.6268 22.5595C47.6418 22.2551 47.668 21.9507 47.7243 21.6501C48.1483 19.2827 49.0488 17.2309 50.6921 15.461C51.4275 14.6719 52.2755 14.0331 53.2885 13.6873C54.9544 13.1237 56.4289 13.6761 57.2656 15.1529C57.7534 16.0209 57.9785 16.9904 57.986 18.0201C58.001 20.6618 57.2093 23.1156 55.4909 25.3402V25.3365ZM72.2586 41.9872C72.071 42.1788 71.8684 42.3629 71.6508 42.5208C69.1857 44.3283 66.9495 43.1972 67.0358 40.8786C67.0771 39.8302 67.4973 38.887 68.1051 37.9889C68.9756 36.7 70.1124 35.6741 71.3731 34.7722C72.6788 33.8365 75.4853 32.232 75.5266 32.2132C75.7066 32.7881 75.793 33.3781 75.7779 33.9869C75.7142 37.0231 74.5323 39.6912 72.2623 41.9872H72.2586ZM86.1184 23.6004C86.0621 23.6267 86.0096 23.6492 85.9121 23.6943C85.9008 23.2509 85.8595 22.8263 85.8783 22.4016C85.9796 19.9403 86.8313 17.6668 88.4747 15.6301C88.6735 15.3859 88.8987 15.1604 89.1388 14.9575C90.5082 13.8226 92.0391 12.9959 93.4123 13.4732C94.2227 13.755 94.688 14.5291 94.6392 15.4685C94.5867 16.4719 94.1327 17.3437 93.5098 18.1591C92.6431 19.2902 91.5626 20.1996 90.4182 21.03C89.0525 22.0183 87.6155 22.8638 86.1147 23.6004H86.1184Z" fill="black"/>
</svg>
