<?xml version="1.0" encoding="UTF-8"?>
<svg version="1.1" xmlns="http://www.w3.org/2000/svg" width="450" height="450">
<path d="M0 0 C1.95703125 1.71484375 1.95703125 1.71484375 3.8125 3.9375 C4.50601563 4.75992188 5.19953125 5.58234375 5.9140625 6.4296875 C6.94660156 7.70199219 6.94660156 7.70199219 8 9 C8.60585937 9.74507812 9.21171875 10.49015625 9.8359375 11.2578125 C11.1259682 12.86354691 12.40932804 14.47465379 13.6875 16.08984375 C16.49495146 19.62286966 19.33933113 23.12477474 22.1875 26.625 C22.73905762 27.30328857 23.29061523 27.98157715 23.85888672 28.68041992 C25.57225198 30.78722278 27.28605956 32.89366505 29 35 C36.03173969 43.64160661 43.05785754 52.28608104 50 61 C50.7321875 61.84820312 51.464375 62.69640625 52.21875 63.5703125 C54 66 54 66 53.9375 69.1875 C53 72 53 72 50 74 C47.45193956 74.02986583 45.05242324 73.9412647 42.52197266 73.73608398 C41.77075449 73.68310622 41.01953632 73.63012846 40.24555397 73.57554531 C37.82889329 73.39898824 35.41457455 73.20302301 33 73 C32.23032646 72.93539204 31.46065292 72.87078407 30.66765594 72.80421829 C24.99065877 72.31716516 19.31946485 71.77432439 13.6484375 71.22265625 C11.85105236 71.04942491 10.05365838 70.87628531 8.2562561 70.70323181 C4.52656835 70.34326295 0.79714544 69.98068064 -2.93212891 69.61645508 C-7.69794234 69.1514302 -12.46457615 68.69545807 -17.23147011 68.24166203 C-20.92772002 67.88838006 -24.62337513 67.5291583 -28.31888962 67.16827202 C-30.07686502 66.99753574 -31.83504566 66.82889846 -33.59343338 66.66246223 C-36.04552544 66.42971084 -38.49666827 66.18864835 -40.94775391 65.94555664 C-41.66263977 65.87951233 -42.37752563 65.81346802 -43.11407471 65.74542236 C-47.63270686 65.28608955 -51.68773293 64.35394831 -56 63 C-56.84375 59.90234375 -56.84375 59.90234375 -57 56 C-55.22154326 53.46935351 -53.6915601 51.66217346 -51.5 49.5625 C-50.37822739 48.42254263 -49.25712992 47.28192049 -48.13671875 46.140625 C-47.59192871 45.59857422 -47.04713867 45.05652344 -46.48583984 44.49804688 C-44.6754412 42.67277477 -42.98365072 40.76548374 -41.3125 38.8125 C-36.51674872 33.27358146 -31.58199803 27.85925957 -26.671875 22.421875 C-18.88768788 13.79133008 -18.88768788 13.79133008 -11.3046875 4.984375 C-10.77101562 4.35015625 -10.23734375 3.7159375 -9.6875 3.0625 C-9.21699219 2.49660156 -8.74648437 1.93070313 -8.26171875 1.34765625 C-5.56350379 -1.53433806 -3.58571923 -1.10948263 0 0 Z " fill="#010101" transform="translate(234,186)"/>
<path d="M0 0 C2.1875 0.5 2.1875 0.5 4.1875 2.5 C4.22654724 4.8432312 4.22654724 4.8432312 3.92358398 7.77685547 C3.8135202 8.85964783 3.70345642 9.94244019 3.59005737 11.05804443 C2.92572481 16.73823645 2.19624131 22.40568884 1.41015625 28.0703125 C1.23874619 29.31376434 1.06733612 30.55721619 0.89073181 31.83834839 C0.53027855 34.44196204 0.16799648 37.04532312 -0.19604492 39.6484375 C-0.66244403 42.98515889 -1.11785897 46.32328594 -1.57083797 49.66185188 C-2.00725686 52.86153821 -2.45556556 56.05955882 -2.90234375 59.2578125 C-3.06387436 60.4566507 -3.22540497 61.65548889 -3.39183044 62.89065552 C-3.54861771 63.99295502 -3.70540497 65.09525452 -3.86694336 66.23095703 C-4.00160507 67.20292023 -4.13626678 68.17488342 -4.27500916 69.17630005 C-4.8125 71.5 -4.8125 71.5 -6.8125 73.5 C-8.96826172 74.05908203 -8.96826172 74.05908203 -11.7421875 74.5078125 C-12.82306641 74.68610596 -13.90394531 74.86439941 -15.01757812 75.0480957 C-16.22865234 75.23847412 -17.43972656 75.42885254 -18.6875 75.625 C-19.95787109 75.83020264 -21.22824219 76.03540527 -22.53710938 76.24682617 C-26.36652861 76.86285654 -30.19810162 77.46460165 -34.03015137 78.06402588 C-37.09763098 78.54467798 -40.16455042 79.02881494 -43.23144531 79.51318359 C-49.07717015 80.43539533 -54.92396575 81.35055077 -60.77154541 82.26092529 C-63.1289441 82.62813743 -65.48616359 82.99650185 -67.84320068 83.36602783 C-71.19683741 83.89067345 -74.55138001 84.40908785 -77.90625 84.92578125 C-78.91765045 85.08491501 -79.9290509 85.24404877 -80.97109985 85.40800476 C-93.53317458 87.32537124 -93.53317458 87.32537124 -96.75 85.25 C-97.8125 83.5 -97.8125 83.5 -97.56591797 81.57299805 C-96.68826765 79.15817988 -95.77268623 78.22815585 -93.8203125 76.58203125 C-92.89484619 75.79094971 -92.89484619 75.79094971 -91.95068359 74.98388672 C-90.95415771 74.15655029 -90.95415771 74.15655029 -89.9375 73.3125 C-89.2563916 72.73516113 -88.5752832 72.15782227 -87.87353516 71.56298828 C-83.14261545 67.56623434 -78.35779407 63.63435082 -73.546875 59.734375 C-70.48229421 57.2301747 -67.4558778 54.68452702 -64.4375 52.125 C-63.89480469 51.66480469 -63.35210937 51.20460937 -62.79296875 50.73046875 C-61.13222826 49.32099868 -59.47222338 47.91066758 -57.8125 46.5 C-50.80015442 40.5399173 -43.76289195 34.62241205 -36.625 28.8125 C-32.93677564 25.77995997 -29.29987146 22.68906001 -25.66162109 19.59692383 C-21.23848505 15.84417964 -16.76167314 12.16168644 -12.25 8.515625 C-10.07650205 6.71830939 -8.00970311 4.84892873 -5.9375 2.9375 C-2.8125 0.5 -2.8125 0.5 0 0 Z " fill="#000000" transform="translate(252.8125,93.5)"/>
<path d="M0 0 C4.71485045 1.50095059 7.31587789 5.87614293 10.171875 9.69140625 C10.84734375 10.573125 11.5228125 11.45484375 12.21875 12.36328125 C14.11294168 14.86582646 15.981136 17.38602064 17.84570312 19.91064453 C20.40081779 23.34161036 23.00775507 26.73315535 25.609375 30.12890625 C26.44795044 31.22428711 26.44795044 31.22428711 27.3034668 32.34179688 C31.39081046 37.67813374 35.4892378 43.00588072 39.58984375 48.33203125 C44.2402782 54.37777748 48.86720744 60.44156841 53.49853516 66.50195312 C56.22220763 70.06569616 58.9470763 73.62852428 61.671875 77.19140625 C64.95765058 81.48780824 68.24313241 85.78443337 71.52734375 90.08203125 C72.63800453 91.53516871 73.74868145 92.98829384 74.859375 94.44140625 C75.3953833 95.14281738 75.9313916 95.84422852 76.48364258 96.56689453 C79.02979506 99.89704834 81.57992395 103.22398523 84.140625 106.54296875 C84.60122314 107.14012695 85.06182129 107.73728516 85.53637695 108.35253906 C86.77199523 109.95321083 88.00899223 111.55281805 89.24609375 113.15234375 C93.19610457 118.36026877 93.19610457 118.36026877 92.984375 121.25390625 C92.171875 123.69140625 92.171875 123.69140625 89.171875 125.69140625 C82.75749929 125.596261 78.82819884 122.94370944 73.734375 119.44140625 C71.96901137 118.26132765 70.2033655 117.08167122 68.4375 115.90234375 C67.45587891 115.24073242 66.47425781 114.57912109 65.46289062 113.89746094 C60.39746278 110.50197088 55.29409281 107.16495368 50.19213867 103.82470703 C47.38819498 101.98885502 44.58921327 100.14578907 41.79418945 98.29638672 C36.08097604 94.52126532 30.38278877 90.76131608 24.48046875 87.28515625 C23.68858154 86.81029785 22.89669434 86.33543945 22.08081055 85.84619141 C20.71650616 85.03745188 19.33764511 84.25236918 17.94067383 83.50146484 C9.12390917 78.22515774 7.72431062 64.07881208 5.09765625 54.88671875 C4.72490219 53.59154403 4.35186497 52.29645077 3.9785614 51.00143433 C3.20394074 48.31120581 2.43187879 45.62026166 1.66186523 42.92871094 C0.6774252 39.48798244 -0.31225175 36.04878759 -1.30366802 32.61006355 C-2.07138234 29.94591333 -2.83699351 27.28116251 -3.60190773 24.61620712 C-4.14226943 22.7343043 -4.68387774 20.85275956 -5.22550964 18.97122192 C-5.55287613 17.82587982 -5.88024261 16.68053772 -6.2175293 15.50048828 C-6.50524704 14.49664093 -6.79296478 13.49279358 -7.08940125 12.45852661 C-9.03000705 5.18938197 -9.03000705 5.18938197 -7.890625 2.37890625 C-5.34860305 0.29907011 -3.27718449 -0.18538817 0 0 Z " fill="#3357A7" transform="translate(278.828125,79.30859375)"/>
<path d="M0 0 C2 2 2 2 2.46508789 4.75048828 C1.84135513 9.10843214 -0.36010898 11.10308999 -3.44140625 13.9921875 C-4.28214943 14.81663864 -4.28214943 14.81663864 -5.13987732 15.65774536 C-6.93377365 17.41154307 -8.74698394 19.1436182 -10.5625 20.875 C-12.92293873 23.15896525 -15.27581545 25.45065608 -17.62890625 27.7421875 C-18.19820358 28.29380051 -18.76750092 28.84541351 -19.35404968 29.41374207 C-22.88674863 32.85279 -26.21996551 36.38639761 -29.40942383 40.14941406 C-32.47850375 43.72019316 -35.76896228 47.07502048 -39.0625 50.4375 C-39.74376953 51.15615234 -40.42503906 51.87480469 -41.12695312 52.61523438 C-41.79791016 53.29779297 -42.46886719 53.98035156 -43.16015625 54.68359375 C-43.75449463 55.29775146 -44.34883301 55.91190918 -44.96118164 56.54467773 C-47.677436 58.48355837 -49.68091606 58.72783185 -53 59 C-55.75138855 58.11541748 -55.75138855 58.11541748 -58.59057617 56.68261719 C-59.66156052 56.15166443 -60.73254486 55.62071167 -61.83598328 55.07366943 C-62.97678848 54.48732727 -64.11759369 53.90098511 -65.29296875 53.296875 C-66.48728388 52.6960601 -67.6822258 52.09648969 -68.87776184 51.49810791 C-71.37660444 50.24331345 -73.86982187 48.97818996 -76.35913086 47.70458984 C-79.54602353 46.07433525 -82.74219772 44.46343427 -85.94230175 42.85929489 C-88.40788762 41.62220427 -90.87010033 40.3785301 -93.33117104 39.13248444 C-95.08013974 38.24719597 -96.83048864 37.36463591 -98.58085632 36.4821167 C-99.64238419 35.9385553 -100.70391205 35.3949939 -101.79760742 34.83496094 C-103.19942513 34.12095123 -103.19942513 34.12095123 -104.62956238 33.39251709 C-106.83631312 32.0961581 -108.39439952 30.98181694 -110 29 C-110.375 26.5 -110.375 26.5 -110 24 C-107.89872734 21.37807148 -106.18505145 20.53158964 -102.93464661 19.84199524 C-102.10908264 19.66117401 -101.28351868 19.48035278 -100.43293762 19.29405212 C-99.5305687 19.10847244 -98.62819977 18.92289276 -97.69848633 18.73168945 C-96.7452951 18.52642639 -95.79210388 18.32116333 -94.81002808 18.10968018 C-91.65297128 17.43298797 -88.49271986 16.77278463 -85.33203125 16.11328125 C-83.13571948 15.64749776 -80.93956974 15.18094964 -78.74357605 14.71366882 C-74.13578708 13.73578232 -69.52642943 12.76578024 -64.91577148 11.80151367 C-59.01617526 10.56723841 -53.12037697 9.3158372 -47.22560596 8.05874348 C-42.68777968 7.0926249 -38.14828238 6.13456168 -33.60822105 5.17900658 C-31.4345201 4.72072107 -29.26128651 4.26021287 -27.08854103 3.79741859 C-24.04347116 3.15031879 -20.99636788 2.51383258 -17.94848633 1.88012695 C-17.05623856 1.68847458 -16.16399078 1.4968222 -15.2447052 1.29936218 C-10.06083894 0.23524456 -5.29562524 -0.36658597 0 0 Z " fill="#3357A7" transform="translate(200,185)"/>
<path d="M0 0 C1.71672782 0.17479949 3.43347935 0.34936622 5.1502533 0.52371216 C8.73533517 0.88890489 12.32004731 1.25749822 15.90454102 1.62841797 C20.48208018 2.10173538 25.06051898 2.56561781 29.63929081 3.0268383 C33.18031923 3.38474448 36.72076903 3.74813441 40.26107597 4.11310196 C41.94846845 4.28630907 43.63604501 4.45773298 45.32380867 4.627285 C47.6879276 4.86552199 50.05115309 5.11127989 52.41430664 5.35888672 C53.10076263 5.42650208 53.78721863 5.49411743 54.49447632 5.56378174 C59.26514371 6.07462964 63.71826307 7.08085374 68.33984375 8.3203125 C69.02734375 11.6328125 69.02734375 11.6328125 69.33984375 15.3203125 C67.32295045 18.02756277 65.13540807 18.9774686 61.99316406 20.046875 C61.11140503 20.3518541 60.229646 20.65683319 59.32116699 20.97105408 C58.36311157 21.29255936 57.40505615 21.61406464 56.41796875 21.9453125 C55.41737427 22.28909439 54.41677979 22.63287628 53.38586426 22.98707581 C50.12323976 24.10627835 46.8566612 25.21341497 43.58984375 26.3203125 C40.23640747 27.46594248 36.88392462 28.6143292 33.53155518 29.76307678 C31.29943065 30.5278479 29.0669676 31.29163169 26.83416748 32.0544281 C20.32745245 34.28074814 13.83856596 36.54888192 7.37109375 38.88671875 C6.64428406 39.14883148 5.91747437 39.41094421 5.16864014 39.68099976 C2.50024786 40.64464372 -0.16758331 41.60942932 -2.82995605 42.58959961 C-4.58865161 43.23689969 -6.35087741 43.87458443 -8.11328125 44.51171875 C-9.07395508 44.86435791 -10.03462891 45.21699707 -11.02441406 45.58032227 C-13.78203288 46.35452962 -15.81726319 46.68531056 -18.66015625 46.3203125 C-21.44609474 44.6324399 -21.75105224 43.03057252 -22.73510742 39.89379883 C-23.06961495 38.48273376 -23.39152731 37.06864414 -23.703125 35.65234375 C-23.96311028 34.52187874 -23.96311028 34.52187874 -24.22834778 33.36857605 C-24.59237544 31.77353558 -24.95094646 30.17724132 -25.30444336 28.57983398 C-25.8425658 26.15574353 -26.40130297 23.7371078 -26.96289062 21.31835938 C-27.31505375 19.76330376 -27.66600377 18.20797283 -28.015625 16.65234375 C-28.18120407 15.93746292 -28.34678314 15.22258209 -28.51737976 14.48603821 C-29.56705797 9.6699523 -30.05735234 5.25202475 -29.66015625 0.3203125 C-22.14997102 -4.68647765 -8.74576399 -0.9041078 0 0 Z " fill="#3357A7" transform="translate(214.66015625,268.6796875)"/>
<path d="M0 0 C7.11809604 0.21827434 12.71924282 2.18324261 19.1796875 5.04296875 C20.11426788 5.44904861 21.04884827 5.85512848 22.01174927 6.27351379 C23.97253681 7.13049576 25.93051079 7.99394155 27.88574219 8.86352539 C30.87759086 10.18864752 33.88296198 11.47882493 36.890625 12.76757812 C38.80039437 13.60729662 40.70928161 14.44902484 42.6171875 15.29296875 C43.51404266 15.67446579 44.41089783 16.05596283 45.33493042 16.44902039 C49.22347533 18.21048974 51.51976169 19.30018002 53.97241211 22.87426758 C55.04695449 26.14282688 56.01366292 29.37394253 56.82421875 32.71875 C57.13037109 33.98074219 57.43652344 35.24273437 57.75195312 36.54296875 C57.98217163 37.5182251 57.98217163 37.5182251 58.21704102 38.51318359 C58.68683329 40.49718438 59.17167865 42.47707536 59.65820312 44.45703125 C62.33364685 55.62658096 62.33364685 55.62658096 62 61 C60.5860443 63.05023576 59.37978823 63.80355781 57.1875 64.9375 C52.83449743 65.0618715 49.4753597 61.4302656 46.39373779 58.64097595 C45.09040497 57.3355056 45.09040497 57.3355056 43.76074219 56.00366211 C43.27540009 55.52021835 42.79005798 55.0367746 42.29000854 54.53868103 C40.70405107 52.95639642 39.12535572 51.36708436 37.546875 49.77734375 C36.43959483 48.66887001 35.33194312 47.56076728 34.22393799 46.45301819 C31.91115073 44.13867226 29.60174557 41.82102229 27.29492188 39.50073242 C24.33876789 36.5275398 21.37602412 33.56102213 18.41096115 30.59671688 C16.12701355 28.31249744 13.84568072 26.02568182 11.56522369 23.73797798 C10.47337888 22.64295365 9.3809297 21.54853158 8.28786469 20.45472527 C6.7632694 18.92796166 5.24201192 17.3979506 3.72167969 15.86694336 C2.85597351 14.99742538 1.99026733 14.12790741 1.09832764 13.23204041 C-1 11 -1 11 -3 8 C-2.55555556 2.55555556 -2.55555556 2.55555556 0 0 Z " fill="#010101" transform="translate(86,243)"/>
<path d="M0 0 C2 0.8125 2 0.8125 3.03076172 2.3347168 C4.41837528 5.88204425 4.93351518 9.52416282 5.5078125 13.26953125 C5.63815887 14.09071945 5.76850525 14.91190765 5.90280151 15.75798035 C6.17655803 17.49317502 6.44700142 19.22889521 6.71435547 20.96508789 C7.12214226 23.60648923 7.54268031 26.24562837 7.96484375 28.88476562 C8.22993492 30.57540055 8.494282 32.26615235 8.7578125 33.95703125 C8.94526535 35.13082085 8.94526535 35.13082085 9.13650513 36.32832336 C9.8247909 40.85364832 10.30287562 45.22156241 10 49.8125 C9.34 50.4725 8.68 51.1325 8 51.8125 C5.61279297 51.78369141 5.61279297 51.78369141 3 50.8125 C0.27307934 47.48925646 -1.73250055 43.7546946 -3.84082031 40.01318359 C-4.86820754 38.19949104 -5.93142753 36.41075548 -7 34.62109375 C-7.66634879 33.46485627 -8.33048556 32.30734059 -8.9921875 31.1484375 C-9.59401855 30.10220215 -10.19584961 29.0559668 -10.81591797 27.97802734 C-12.73199921 22.85557179 -11.46793359 18.37136929 -9.44140625 13.4453125 C-9.13783203 12.70539063 -8.83425781 11.96546875 -8.52148438 11.203125 C-8.20501953 10.45546875 -7.88855469 9.7078125 -7.5625 8.9375 C-7.09360352 7.78121094 -7.09360352 7.78121094 -6.61523438 6.6015625 C-3.72126102 -0.34886822 -3.72126102 -0.34886822 0 0 Z " fill="#010101" transform="translate(168,265.1875)"/>
<path d="M0 0 C1.87402344 0.07592773 1.87402344 0.07592773 4 1 C5.55566406 3.50024414 5.55566406 3.50024414 7.015625 6.78515625 C7.54414063 7.95498047 8.07265625 9.12480469 8.6171875 10.33007812 C9.1617761 11.57407969 9.70604282 12.81822221 10.25 14.0625 C10.80855093 15.31114935 11.36843145 16.55920486 11.9296875 17.80664062 C13.29967511 20.86549227 14.65569807 23.92979396 16 27 C16.77923828 25.44152344 16.77923828 25.44152344 17.57421875 23.8515625 C21.3828125 16.234375 25.19140625 8.6171875 29 1 C30.32 1 31.64 1 33 1 C33 12.88 33 24.76 33 37 C31.35 37 29.7 37 28 37 C27.505 27.595 27.505 27.595 27 18 C26.46890625 19.28777344 25.9378125 20.57554687 25.390625 21.90234375 C24.67787214 23.5810643 23.96428718 25.25943172 23.25 26.9375 C22.90195312 27.78763672 22.55390625 28.63777344 22.1953125 29.51367188 C21.84726562 30.32255859 21.49921875 31.13144531 21.140625 31.96484375 C20.82641602 32.7137085 20.51220703 33.46257324 20.18847656 34.23413086 C19 36 19 36 16.86621094 36.75219727 C16.25036133 36.83397217 15.63451172 36.91574707 15 37 C11.66666667 30.33333333 8.33333333 23.66666667 5 17 C4.67 23.6 4.34 30.2 4 37 C2.35 37 0.7 37 -1 37 C-1.0246501 31.89136104 -1.04283607 26.78275641 -1.05493164 21.67407227 C-1.05997204 19.93480832 -1.0668043 18.19554864 -1.07543945 16.45629883 C-1.08751792 13.96174063 -1.09323108 11.46723827 -1.09765625 8.97265625 C-1.10281754 8.19036148 -1.10797882 7.40806671 -1.11329651 6.60206604 C-1.11349226 4.73432886 -1.06199694 2.86670796 -1 1 C-0.67 0.67 -0.34 0.34 0 0 Z " fill="#231F20" transform="translate(341,333)"/>
<path d="M0 0 C0.71671875 -0.020625 1.4334375 -0.04125 2.171875 -0.0625 C7.77619732 -0.10370825 10.6505559 1.30041693 15 4.5625 C16.8958152 7.12185052 17.1258866 9.08510827 17.25 12.25 C15.8125 15.625 15.8125 15.625 14.25 18.25 C14.889375 18.78625 15.52875 19.3225 16.1875 19.875 C18.73052254 22.80332899 19.17276456 24.38822812 19.25 28.25 C18.07084211 31.59094736 16.99118798 33.62476023 14.27734375 35.9140625 C9.83799478 37.87310424 5.7286383 37.56955258 0.9375 37.4375 C-0.45952148 37.41719727 -0.45952148 37.41719727 -1.88476562 37.39648438 C-4.17377646 37.36126882 -6.46158458 37.31202099 -8.75 37.25 C-8.7746501 32.14136104 -8.79283607 27.03275641 -8.80493164 21.92407227 C-8.80997204 20.18480832 -8.8168043 18.44554864 -8.82543945 16.70629883 C-8.83751792 14.21174063 -8.84323108 11.71723827 -8.84765625 9.22265625 C-8.85281754 8.44036148 -8.85797882 7.65806671 -8.86329651 6.85206604 C-8.86349226 4.98432886 -8.81199694 3.11670796 -8.75 1.25 C-6.72363933 -0.77636067 -2.77022651 0.01950864 0 0 Z M-4.75 5.25 C-4.75 8.88 -4.75 12.51 -4.75 16.25 C-2.47975032 16.33097324 -0.20867925 16.38917704 2.0625 16.4375 C3.95935547 16.48970703 3.95935547 16.48970703 5.89453125 16.54296875 C9.17660102 16.52973777 9.17660102 16.52973777 11.20703125 14.9296875 C12.53291312 13.14526654 12.53291312 13.14526654 12.125 10.1875 C11.50349587 6.95744585 11.50349587 6.95744585 8.25 5.25 C5.04620876 5.00753217 5.04620876 5.00753217 1.5625 5.125 C0.38300781 5.14304687 -0.79648438 5.16109375 -2.01171875 5.1796875 C-3.36716797 5.21449219 -3.36716797 5.21449219 -4.75 5.25 Z M-4.75 21.25 C-4.75 25.21 -4.75 29.17 -4.75 33.25 C-2.68816367 33.33150744 -0.62538651 33.3894194 1.4375 33.4375 C3.16033203 33.48970703 3.16033203 33.48970703 4.91796875 33.54296875 C8.56177653 33.22258706 10.36819959 32.45867915 13.25 30.25 C14.49401278 27.86391389 14.49401278 27.86391389 14.25 25.25 C12.78276003 22.94660819 12.78276003 22.94660819 10.25 21.25 C7.51317029 20.9588479 5.21059961 20.86677582 2.5 21 C1.80261719 21.01804687 1.10523437 21.03609375 0.38671875 21.0546875 C-1.32611539 21.10161446 -3.03823824 21.17335395 -4.75 21.25 Z " fill="#231F20" transform="translate(84.75,332.75)"/>
<path d="M0 0 C0.8146875 0.00322266 1.629375 0.00644531 2.46875 0.00976562 C3.66757812 -0.0144043 3.66757812 -0.0144043 4.890625 -0.0390625 C9.90215894 -0.04318383 13.40012909 0.50952328 17.71875 3.32226562 C19.93370196 6.53751847 20.71875 8.47770844 20.71875 12.38476562 C19.28518498 16.59586288 16.70479716 19.32924204 12.71875 21.32226562 C9.99899285 21.39414081 7.31200368 21.41505183 4.59375 21.38476562 C1.995 21.36414063 -0.60375 21.34351563 -3.28125 21.32226562 C-3.28125 26.60226562 -3.28125 31.88226563 -3.28125 37.32226562 C-4.93125 37.32226562 -6.58125 37.32226562 -8.28125 37.32226562 C-8.3306151 32.37436385 -8.36695269 27.4266048 -8.39111328 22.47851562 C-8.40118317 20.79457096 -8.41483988 19.11064383 -8.43212891 17.42675781 C-8.45633426 15.00907062 -8.46772296 12.59161419 -8.4765625 10.17382812 C-8.48688507 9.41856842 -8.49720764 8.66330872 -8.50784302 7.88516235 C-8.50824318 6.02932583 -8.40347716 4.17407282 -8.28125 2.32226562 C-5.62977936 -0.32920501 -3.61221112 0.03289265 0 0 Z M-3.28125 5.32226562 C-3.28125 8.95226562 -3.28125 12.58226562 -3.28125 16.32226562 C-0.86390458 16.40344514 1.55069949 16.46283489 3.96875 16.50976562 C4.65066406 16.53490234 5.33257812 16.56003906 6.03515625 16.5859375 C9.31074289 16.63364022 11.37223556 16.53311639 14.203125 14.81054688 C14.70328125 14.31941406 15.2034375 13.82828125 15.71875 13.32226562 C15.45218428 10.38783161 15.45218428 10.38783161 14.71875 7.32226562 C11.03787647 4.86834994 8.27519412 5.09423804 4.03125 5.19726562 C3.32935547 5.20628906 2.62746094 5.2153125 1.90429688 5.22460938 C0.17563475 5.24812859 -1.55285145 5.2839985 -3.28125 5.32226562 Z " fill="#231F20" transform="translate(305.28125,332.677734375)"/>
<path d="M0 0 C4.89434784 2.40100083 7.15529383 4.8758162 9 10 C9 11.98 9 13.96 9 16 C2.07 16 -4.86 16 -12 16 C-9.67748574 20.88495525 -9.67748574 20.88495525 -7 22 C-1.72018196 22.59997932 0.8313401 21.17612183 5 18 C5.99 18.66 6.98 19.32 8 20 C6.59344643 23.39917113 5.12930725 25.06719258 2 27 C-2.33737663 27.78623141 -6.96162661 28.013156 -10.98046875 26.015625 C-14.44262747 23.24589803 -16.65081059 20.23318811 -17.3359375 15.8515625 C-17.43162704 10.39725865 -16.74398185 7.24992535 -13 3 C-9.05061527 -0.29115394 -4.99650314 -0.87193878 0 0 Z M-7.75 5.125 C-10.35429522 7.04055905 -10.35429522 7.04055905 -12 11 C-6.72 11 -1.44 11 4 11 C1.58353947 5.98608981 1.58353947 5.98608981 -1.875 4.5 C-5.00079622 3.72204981 -5.00079622 3.72204981 -7.75 5.125 Z " fill="#231F20" transform="translate(157,343)"/>
<path d="M0 0 C4.89434784 2.40100083 7.15529383 4.8758162 9 10 C9 11.98 9 13.96 9 16 C2.07 16 -4.86 16 -12 16 C-9.67748574 20.88495525 -9.67748574 20.88495525 -7 22 C-3.32670036 22.13357453 -0.50147041 22.1671568 3 21 C3.33 20.01 3.66 19.02 4 18 C5.32 18.66 6.64 19.32 8 20 C6.59344643 23.39917113 5.12930725 25.06719258 2 27 C-2.33651281 27.78607483 -6.93938483 27.98763212 -10.98046875 26.05078125 C-14.18327772 23.54389126 -16.06566734 20.92419718 -17 17 C-17.67465563 10.92809931 -16.44506669 7.84171534 -13 3 C-9.11063474 -0.34917564 -4.9764239 -0.86843476 0 0 Z M-10 7 C-10.66 8.32 -11.32 9.64 -12 11 C-6.72 11 -1.44 11 4 11 C1.90900184 6.81800367 1.00681267 6.00340633 -3 4 C-5.98687233 4 -7.58576796 5.31003757 -10 7 Z " fill="#231F20" transform="translate(275,343)"/>
<path d="M0 0 C3 1.625 3 1.625 5 4 C5.8125 7.25 5.8125 7.25 6 10 C4.35 10 2.7 10 1 10 C0.67 8.68 0.34 7.36 0 6 C-4.53140653 5.06619039 -4.53140653 5.06619039 -9 6 C-9 6.99 -9 7.98 -9 9 C-8.09636719 9.31453125 -7.19273437 9.6290625 -6.26171875 9.953125 C-5.08222656 10.38109375 -3.90273437 10.8090625 -2.6875 11.25 C-0.92986328 11.87648438 -0.92986328 11.87648438 0.86328125 12.515625 C4.04063729 14.0192306 5.3377081 14.95146468 7 18 C7 21.35391766 6.23537972 22.70969834 4.125 25.3125 C-0.52716738 27.82467039 -4.82376575 27.76944023 -10 27 C-13.125 25.3125 -13.125 25.3125 -15 23 C-15.8125 20.25 -15.8125 20.25 -16 18 C-14.35 18 -12.7 18 -11 18 C-10.67 18.99 -10.34 19.98 -10 21 C-7.01405576 22.49297212 -4.29146376 22.11755228 -1 22 C-0.34 21.67 0.32 21.34 1 21 C0.67 20.01 0.34 19.02 0 18 C-2.69325215 16.82921435 -5.43329444 16.02524564 -8.23828125 15.16015625 C-11.30003395 13.87396028 -12.93150511 12.58316779 -15 10 C-15.07947069 6.18540671 -14.45739143 4.54315232 -12 1.625 C-7.90766755 -0.59168007 -4.559697 -0.80951142 0 0 Z " fill="#231F20" transform="translate(182,343)"/>
<path d="M0 0 C4.57493538 1.87156447 6.83592096 4.59169084 9 9 C9.95504888 13.52511254 9.86736021 17.23104168 7.8125 21.421875 C5.33832598 24.776284 3.38468433 26.68000162 -0.73828125 27.6328125 C-5.08153012 27.80912842 -8.1257354 27.45534615 -12 25.4375 C-15.37402645 21.32540527 -17.34391383 17.37813089 -17.0625 12 C-16.25384693 7.28592016 -13.45466373 4.16142968 -10 1 C-6.8017988 -0.5991006 -3.4787562 -0.36195151 0 0 Z M-7.8125 5.1875 C-10.20009059 6.98944884 -10.20009059 6.98944884 -12 10 C-12.30398272 14.17976235 -12.46736434 17.49374541 -10 21 C-6.48746854 23.34168764 -5.13530644 23.49623677 -1 23 C2.71158357 20.93800913 3.78683763 19.71942301 5 15.625 C5 11.3906936 4.53014838 9.39988688 2 6 C-1.8844128 4.20166074 -3.81221366 3.49849021 -7.8125 5.1875 Z " fill="#231F20" transform="translate(221,343)"/>
<path d="M0 0 C1.65 0 3.3 0 5 0 C5.01458252 0.59538574 5.02916504 1.19077148 5.04418945 1.80419922 C5.11854344 4.49513051 5.21524187 7.18480333 5.3125 9.875 C5.33505859 10.81214844 5.35761719 11.74929688 5.38085938 12.71484375 C5.41630859 13.61074219 5.45175781 14.50664062 5.48828125 15.4296875 C5.51446533 16.25710449 5.54064941 17.08452148 5.56762695 17.93701172 C5.83096637 20.39327932 5.83096637 20.39327932 9 22 C13.09689917 22.49258872 13.09689917 22.49258872 16.65551758 20.75854492 C18.33237144 18.56526757 18.41975079 17.29142654 18.51171875 14.55078125 C18.54716797 13.70322266 18.58261719 12.85566406 18.61914062 11.98242188 C18.64169922 11.10134766 18.66425781 10.22027344 18.6875 9.3125 C18.72166016 8.41982422 18.75582031 7.52714844 18.79101562 6.60742188 C18.87345648 4.40507329 18.94261551 2.20312062 19 0 C20.65 0 22.3 0 24 0 C24.08138426 2.87557703 24.14067851 5.74882262 24.1875 8.625 C24.21263672 9.43324219 24.23777344 10.24148438 24.26367188 11.07421875 C24.32548412 16.14282288 23.90425829 19.6534022 21 24 C18.15937589 26.78169 16.06960564 27.45084604 12.125 27.5 C8.45623936 27.4024554 6.29330682 26.96219783 3.4375 24.625 C0.30837763 21.25517591 -0.12584586 19.88364652 -0.09765625 15.4296875 C-0.09443359 14.53378906 -0.09121094 13.63789063 -0.08789062 12.71484375 C-0.07951172 11.77769531 -0.07113281 10.84054687 -0.0625 9.875 C-0.05798828 8.93011719 -0.05347656 7.98523438 -0.04882812 7.01171875 C-0.03702357 4.67441613 -0.02055759 2.33723939 0 0 Z " fill="#231F20" transform="translate(115,343)"/>
<path d="M0 0 C2.475 0.495 2.475 0.495 5 1 C5.66 0.67 6.32 0.34 7 0 C11.61458744 -0.46145874 14.6412076 -0.74619403 18.375 2.1875 C23.24290821 7.40311594 23.27314929 12.01472667 23.125 18.8125 C23.11597656 19.60076172 23.10695313 20.38902344 23.09765625 21.20117188 C23.07422504 23.13424666 23.03835838 25.0671638 23 27 C21.35 27 19.7 27 18 27 C17.95101562 25.73542969 17.90203125 24.47085937 17.8515625 23.16796875 C17.7765262 21.50779053 17.70097873 19.84763536 17.625 18.1875 C17.5940625 17.35412109 17.563125 16.52074219 17.53125 15.66210938 C17.49257812 14.85966797 17.45390625 14.05722656 17.4140625 13.23046875 C17.36693115 12.12288208 17.36693115 12.12288208 17.31884766 10.99291992 C17.09165386 8.68650412 17.09165386 8.68650412 15 6 C11.66131116 4.94567721 9.31481265 4.89506245 6 6 C5.24722485 8.73249341 4.83358297 11.28100683 4.68359375 14.109375 C4.64169922 14.86347656 4.59980469 15.61757813 4.55664062 16.39453125 C4.49766602 17.56048828 4.49766602 17.56048828 4.4375 18.75 C4.39431641 19.54277344 4.35113281 20.33554687 4.30664062 21.15234375 C4.20097009 23.10137815 4.10002034 25.05066748 4 27 C2.68 27 1.36 27 0 27 C0 18.09 0 9.18 0 0 Z " fill="#231F20" transform="translate(233,343)"/>
<path d="M0 0 C1.32 0 2.64 0 4 0 C4 1.98 4 3.96 4 6 C6.64 6 9.28 6 12 6 C12 7.32 12 8.64 12 10 C9.36 10 6.72 10 4 10 C4.33 15.61 4.66 21.22 5 27 C7.31 27.66 9.62 28.32 12 29 C12 30.32 12 31.64 12 33 C4.77108434 33.48192771 4.77108434 33.48192771 1.75 31.59375 C-0.92465501 27.62952918 -0.42904798 23.91213393 -0.25 19.25 C-0.23195312 18.36183594 -0.21390625 17.47367187 -0.1953125 16.55859375 C-0.14827374 14.37129152 -0.08257009 12.18620184 0 10 C-1.65 10 -3.3 10 -5 10 C-5 8.68 -5 7.36 -5 6 C-3.35 6 -1.7 6 0 6 C0 4.02 0 2.04 0 0 Z " fill="#231F20" transform="translate(193,337)"/>
<path d="M0 0 C1.65 0 3.3 0 5 0 C5 12.54 5 25.08 5 38 C3.35 38 1.7 38 0 38 C0 25.46 0 12.92 0 0 Z " fill="#231F20" transform="translate(106,332)"/>
<path d="M0 0 C1.65 0 3.3 0 5 0 C5 12.21 5 24.42 5 37 C3.35 37 1.7 37 0 37 C0 24.79 0 12.58 0 0 Z " fill="#231F20" transform="translate(329,333)"/>
</svg>
