<svg xmlns="http://www.w3.org/2000/svg" width="139.76" height="38.48" viewBox="0 0 139.76 38.48"><g data-name="Group 6"><g data-name="Group 3"><path fill="#ff5f00" d="M124.79 25.48h6.37v11.45h-6.37z" data-name="Rectangle 1"></path><g data-name="Group 2"><g data-name="Group 1"><path fill="#eb001b" d="M125.2 31.2a7.268 7.268 0 0 1 2.78-5.72 7.28 7.28 0 1 0 0 11.44 7.268 7.268 0 0 1-2.78-5.72" data-name="Path 1"></path><path fill="#f79e1b" d="M139.76 31.2a7.278 7.278 0 0 1-11.78 5.72 7.275 7.275 0 0 0 0-11.44 7.278 7.278 0 0 1 11.78 5.72" data-name="Path 2"></path><path fill="#f79e1b" d="M139.06 35.71v-.23h.09v-.05h-.24v.05h.09v.23Zm.47 0v-.28h-.07l-.08.19-.09-.19h-.07v.28h.05v-.21l.08.18h.05l.08-.18v.21Z" data-name="Path 3"></path></g></g></g><g data-name="Group 4"><path d="M105.41 29.16a2.04 2.04 0 0 1 .82.17 1.956 1.956 0 0 1 .67.46 2.215 2.215 0 0 1 .45.7 2.555 2.555 0 0 1 0 1.78 2.215 2.215 0 0 1-.45.7 1.956 1.956 0 0 1-.67.46 2.067 2.067 0 0 1-.82.16 1.725 1.725 0 0 1-.78-.17 1.661 1.661 0 0 1-.54-.44v.5h-.92v-6.33h.92v2.62a1.772 1.772 0 0 1 .54-.44 1.725 1.725 0 0 1 .78-.17Zm-.11.87a1.269 1.269 0 0 0-.52.1 1.154 1.154 0 0 0-.4.28 1.238 1.238 0 0 0-.26.43 1.569 1.569 0 0 0-.09.54 1.611 1.611 0 0 0 .09.54 1.238 1.238 0 0 0 .26.43 1.154 1.154 0 0 0 .4.28 1.269 1.269 0 0 0 .52.1 1.287 1.287 0 0 0 .53-.11 1.178 1.178 0 0 0 .4-.29 1.218 1.218 0 0 0 .25-.43 1.538 1.538 0 0 0 .09-.52 1.5 1.5 0 0 0-.09-.52 1.314 1.314 0 0 0-.25-.43 1.178 1.178 0 0 0-.4-.29 1.145 1.145 0 0 0-.53-.11Z" data-name="Path 4"></path><path d="M109.19 35.26h-1.02l1.51-2.65-1.87-3.34h1.03l1.35 2.42 1.3-2.42h1.01Z" data-name="Path 5"></path></g><g data-name="Group 5"><path d="M5.4 5.57a5.081 5.081 0 0 1 2.56.62 5.011 5.011 0 0 1 1.73 1.63V0h1.3v16.56h-1.3v-2.08a4.947 4.947 0 0 1-1.73 1.64 5.081 5.081 0 0 1-2.56.62 5.4 5.4 0 0 1-2.13-.42 5.229 5.229 0 0 1-1.71-1.16 5.5 5.5 0 0 1-1.14-1.77 6.13 6.13 0 0 1 0-4.46 5.611 5.611 0 0 1 1.14-1.77 5.105 5.105 0 0 1 1.71-1.17 5.4 5.4 0 0 1 2.13-.42Zm.14 1.23a4.178 4.178 0 0 0-1.71.34 3.939 3.939 0 0 0-1.33.93 4.263 4.263 0 0 0-.87 1.38 4.871 4.871 0 0 0 0 3.42 4.263 4.263 0 0 0 .87 1.38 4.055 4.055 0 0 0 1.34.92 4.3 4.3 0 0 0 1.7.33 4.246 4.246 0 0 0 1.69-.33 4 4 0 0 0 2.2-2.29 4.822 4.822 0 0 0 .31-1.72 4.666 4.666 0 0 0-.31-1.73 4.262 4.262 0 0 0-.87-1.38 4.091 4.091 0 0 0-1.33-.91 4.214 4.214 0 0 0-1.69-.34Z" data-name="Path 6"></path><path d="M15.04 21.2h-1.45l4.14-7.05-5.08-8.41h1.47l4.36 7.12 4.08-7.12H24Z" data-name="Path 7"></path><path d="M30.99 5.57a5.48 5.48 0 0 1 1.85.3 4.027 4.027 0 0 1 1.44.87 3.871 3.871 0 0 1 .93 1.37 4.745 4.745 0 0 1 .33 1.81v6.64h-1.3v-6.23a4.49 4.49 0 0 0-.23-1.47 2.846 2.846 0 0 0-.68-1.11 3.009 3.009 0 0 0-1.09-.7 4.2 4.2 0 0 0-1.47-.24 3.9 3.9 0 0 0-1.42.26 3.392 3.392 0 0 0-1.15.74 3.478 3.478 0 0 0-.77 1.14 3.64 3.64 0 0 0-.28 1.45v6.16h-1.31V5.74h1.3v1.9a4.078 4.078 0 0 1 .75-.93 4.223 4.223 0 0 1 .94-.64 4.447 4.447 0 0 1 1.06-.37 4.533 4.533 0 0 1 1.1-.13Z" data-name="Path 8"></path><path d="M48.82 16.56h-1.3v-2.08a4.947 4.947 0 0 1-1.73 1.64 5.081 5.081 0 0 1-2.56.62 5.4 5.4 0 0 1-2.13-.42 5.229 5.229 0 0 1-1.71-1.16 5.5 5.5 0 0 1-1.14-1.77 6.13 6.13 0 0 1 0-4.46 5.611 5.611 0 0 1 1.14-1.77 5.105 5.105 0 0 1 1.71-1.17 5.4 5.4 0 0 1 2.13-.42 5.081 5.081 0 0 1 2.56.62 5.011 5.011 0 0 1 1.73 1.63V5.74h1.3ZM43.38 6.8a4.178 4.178 0 0 0-1.71.34 3.939 3.939 0 0 0-1.33.93 4.263 4.263 0 0 0-.87 1.38 4.871 4.871 0 0 0 0 3.42 4.263 4.263 0 0 0 .87 1.38 4.055 4.055 0 0 0 1.34.92 4.3 4.3 0 0 0 1.7.33 4.246 4.246 0 0 0 1.69-.33 4 4 0 0 0 2.2-2.29 4.822 4.822 0 0 0 .31-1.72 4.665 4.665 0 0 0-.31-1.73 4.263 4.263 0 0 0-.87-1.38 4.091 4.091 0 0 0-1.33-.91 4.25 4.25 0 0 0-1.69-.34Z" data-name="Path 9"></path><path d="M65.64 5.57a5.581 5.581 0 0 1 1.86.3 4.027 4.027 0 0 1 1.44.87 3.871 3.871 0 0 1 .93 1.37 4.745 4.745 0 0 1 .33 1.81v6.64h-1.31v-6.23a4.236 4.236 0 0 0-.24-1.47 2.968 2.968 0 0 0-.68-1.11 3.009 3.009 0 0 0-1.09-.7 4.254 4.254 0 0 0-1.48-.24 3.9 3.9 0 0 0-1.42.26 3.392 3.392 0 0 0-1.15.74 3.478 3.478 0 0 0-.77 1.14 3.64 3.64 0 0 0-.28 1.45v6.16h-1.31v-6.23a4.49 4.49 0 0 0-.23-1.47 2.846 2.846 0 0 0-.68-1.11 3.009 3.009 0 0 0-1.09-.7A4.2 4.2 0 0 0 57 6.81a3.9 3.9 0 0 0-1.42.26 3.392 3.392 0 0 0-1.15.74 3.478 3.478 0 0 0-.77 1.14 3.64 3.64 0 0 0-.28 1.45v6.16h-1.31V5.74h1.3v1.9a4.078 4.078 0 0 1 .75-.93 4.223 4.223 0 0 1 .94-.64 4.447 4.447 0 0 1 1.06-.37 5.262 5.262 0 0 1 1.12-.12 5.817 5.817 0 0 1 1.42.17 4.581 4.581 0 0 1 1.2.49 3.768 3.768 0 0 1 1.58 1.85 3.852 3.852 0 0 1 .76-1.14 4.147 4.147 0 0 1 1.01-.78 4.884 4.884 0 0 1 1.17-.45 5.36 5.36 0 0 1 1.26-.15Z" data-name="Path 10"></path><path d="M74.23.9a.876.876 0 0 1 .67.28.927.927 0 0 1 .27.68.906.906 0 0 1-.94.93.937.937 0 0 1-.67-.26.9.9 0 0 1-.26-.67.961.961 0 0 1 .26-.68.9.9 0 0 1 .67-.28Zm.66 15.66h-1.31V5.74h1.31Z" data-name="Path 11"></path><path d="M83.05 5.57a5.7 5.7 0 0 1 2.24.43 4.683 4.683 0 0 1 1.75 1.25l-.85.88a4.694 4.694 0 0 0-1.42-.98 4.34 4.34 0 0 0-1.75-.35 4.079 4.079 0 0 0-3.86 2.62 4.891 4.891 0 0 0 0 3.48 3.985 3.985 0 0 0 .88 1.37 4.224 4.224 0 0 0 1.33.9 4.121 4.121 0 0 0 1.65.33 4.2 4.2 0 0 0 1.78-.37 4.914 4.914 0 0 0 1.43-.98l.82.9a5.008 5.008 0 0 1-1.76 1.25 6.023 6.023 0 0 1-4.47 0 5.173 5.173 0 0 1-1.75-1.17 5.284 5.284 0 0 1-1.14-1.77 6.188 6.188 0 0 1 0-4.43 5.18 5.18 0 0 1 2.89-2.94 5.753 5.753 0 0 1 2.23-.42Z" data-name="Path 12"></path><path d="M95.37 21.2h-1.45l4.14-7.05-5.08-8.41h1.47l4.36 7.12 4.08-7.12h1.44Z" data-name="Path 13"></path><path d="M106.81.9a.876.876 0 0 1 .67.28.927.927 0 0 1 .27.68.906.906 0 0 1-.94.93.937.937 0 0 1-.67-.26.9.9 0 0 1-.26-.67.961.961 0 0 1 .26-.68.9.9 0 0 1 .67-.28Zm.66 15.66h-1.31V5.74h1.31Z" data-name="Path 14"></path><path d="M115.45 5.57a4.982 4.982 0 0 1 2.01.41 4.683 4.683 0 0 1 1.6 1.14 5.393 5.393 0 0 1 1.06 1.75 6.406 6.406 0 0 1 .4 2.23 2.528 2.528 0 0 1-.01.28 2.276 2.276 0 0 1-.02.26h-9.07a4.824 4.824 0 0 0 .42 1.68 3.992 3.992 0 0 0 .91 1.25 4.05 4.05 0 0 0 1.29.78 4.483 4.483 0 0 0 1.56.26 4.921 4.921 0 0 0 2.04-.41 5.632 5.632 0 0 0 1.62-1.13l.7.9a6.724 6.724 0 0 1-1.05.86 5.869 5.869 0 0 1-1.09.55 5.688 5.688 0 0 1-1.13.29 8.921 8.921 0 0 1-1.16.08 5.807 5.807 0 0 1-2.19-.41 5.113 5.113 0 0 1-1.73-1.14 5.27 5.27 0 0 1-1.13-1.76 6.48 6.48 0 0 1 .01-4.51 5.216 5.216 0 0 1 1.13-1.77 5.139 5.139 0 0 1 1.7-1.16 5.232 5.232 0 0 1 2.13-.43Zm-.02 1.16a3.869 3.869 0 0 0-1.51.28 3.769 3.769 0 0 0-1.2.78 3.964 3.964 0 0 0-.85 1.19 4.683 4.683 0 0 0-.42 1.52h7.74a4.772 4.772 0 0 0-.38-1.54 4.038 4.038 0 0 0-.81-1.19 3.512 3.512 0 0 0-1.16-.77 3.688 3.688 0 0 0-1.41-.27Z" data-name="Path 15"></path><path d="M124.46 16.56h-1.31V0h1.31Z" data-name="Path 16"></path><path d="M132.49 5.57a5.081 5.081 0 0 1 2.56.62 5.011 5.011 0 0 1 1.73 1.63V0h1.3v16.56h-1.3v-2.08a4.947 4.947 0 0 1-1.73 1.64 5.081 5.081 0 0 1-2.56.62 5.4 5.4 0 0 1-2.13-.42 5.229 5.229 0 0 1-1.71-1.16 5.5 5.5 0 0 1-1.14-1.77 6.13 6.13 0 0 1 0-4.46 5.611 5.611 0 0 1 1.14-1.77 5.105 5.105 0 0 1 1.71-1.17 5.4 5.4 0 0 1 2.13-.42Zm.15 1.23a4.178 4.178 0 0 0-1.71.34 3.939 3.939 0 0 0-1.33.93 4.262 4.262 0 0 0-.87 1.38 4.871 4.871 0 0 0 0 3.42 4.262 4.262 0 0 0 .87 1.38 4.055 4.055 0 0 0 1.34.92 4.3 4.3 0 0 0 1.7.33 4.246 4.246 0 0 0 1.69-.33 4 4 0 0 0 2.2-2.29 4.822 4.822 0 0 0 .31-1.72 4.666 4.666 0 0 0-.31-1.73 4.263 4.263 0 0 0-.87-1.38 4.091 4.091 0 0 0-1.33-.91 4.25 4.25 0 0 0-1.69-.34Z" data-name="Path 17"></path></g></g></svg>