<?xml version="1.0" encoding="UTF-8"?> <svg xmlns="http://www.w3.org/2000/svg" xmlns:xlink="http://www.w3.org/1999/xlink" version="1.1" id="Layer_1" x="0px" y="0px" viewBox="0 0 185 35" style="enable-background:new 0 0 132.7 35;" xml:space="preserve"> <style type="text/css"> .st0{fill:none;} </style> <g> <g id="Layer_1-2"> <rect class="st0" width="185" height="35"></rect> <path d="M72.1,4.4c-1.1-1.1-2.5-2-3.9-2.6c-3-1.3-6.5-1.3-9.5,0c-3,1.2-5.3,3.6-6.6,6.5c-0.7,1.5-1,3.1-1,4.8c0,1.6,0.3,3.3,1,4.8 c1.2,3,3.6,5.3,6.5,6.6c1.5,0.7,3.1,1,4.8,1h0.3v-4.3h-0.3c-1.1,0-2.1-0.2-3.1-0.6c-1.9-0.9-3.4-2.4-4.3-4.3 c-0.4-1-0.6-2.1-0.6-3.1c0-1.1,0.2-2.1,0.7-3.1c0.4-1,1-1.8,1.7-2.6c2.3-2.3,5.8-3,8.9-1.7c1,0.4,1.8,1,2.6,1.7 c0.7,0.7,1.3,1.6,1.7,2.6c0.4,1,0.6,2.1,0.6,3.2v12.3h4.2V13.1C75.7,9.9,74.4,6.7,72.1,4.4"></path> <path d="M100.4,4.4c-1.1-1.1-2.5-2-3.9-2.7c-1.5-0.7-3.2-1-4.8-1c-1.7,0-3.3,0.3-4.8,1c-1.5,0.6-2.8,1.5-3.9,2.6s-2,2.5-2.7,3.9 c-0.7,1.5-1,3.1-1,4.8l-0.1,21.5h4.2L83.5,13c0-1.1,0.2-2.1,0.6-3.1s1-1.9,1.7-2.6s1.6-1.3,2.6-1.7c1-0.4,2.1-0.7,3.2-0.7 s2.2,0.2,3.2,0.6s1.9,1,2.6,1.8c0.7,0.7,1.3,1.6,1.7,2.6c0.4,1,0.6,2.1,0.6,3.2s-0.2,2.2-0.6,3.2s-1,1.9-1.8,2.6 c-0.7,0.7-1.6,1.3-2.6,1.7c-1,0.4-2.1,0.6-3.2,0.6h-0.3v4.2h0.3c3.3,0,6.5-1.3,8.8-3.6c1.1-1.2,2-2.5,2.6-4c0.7-1.5,1-3.2,1-4.8 s-0.3-3.3-1-4.8C102.4,6.9,101.5,5.6,100.4,4.4"></path> <path d="M131.4,8.3c-0.6-1.5-1.5-2.8-2.6-3.9c-1.1-1.1-2.5-2.1-3.9-2.7c-1.5-0.7-3.2-1-4.8-1c-1.7,0-3.3,0.3-4.8,1 c-1.5,0.6-2.8,1.5-3.9,2.7c-1.1,1.1-2,2.5-2.7,3.9c-0.7,1.5-1,3.1-1,4.8l-0.1,21.6h4.2l0.1-21.7c0-1.1,0.2-2.2,0.6-3.2 s1-1.9,1.7-2.6s1.6-1.3,2.6-1.7c2-0.8,4.3-0.8,6.4,0c1,0.4,1.8,1,2.6,1.8c0.7,0.8,1.3,1.6,1.7,2.6c0.4,1,0.6,2.1,0.6,3.2 s-0.2,2.2-0.6,3.2s-1,1.8-1.8,2.6c-0.7,0.7-1.6,1.3-2.6,1.7c-1,0.4-2.1,0.6-3.2,0.6h-0.3v4.2h0.3c3.3,0,6.5-1.3,8.8-3.6 c1.1-1.1,2-2.5,2.6-3.9c0.7-1.5,1-3.2,1-4.8C132.4,11.4,132,9.8,131.4,8.3"></path> <path d="M46.5,8.2L46.5,8.2c-0.6-1.5-1.5-2.8-2.7-3.9c-1.1-1.1-2.5-2-3.9-2.7c-3.6-1.5-7.6-1.3-11,0.6c-1.6,1-3,2.3-4.1,3.9 c-3.3-4.9-9.6-6.8-15.1-4.6C8.2,2.1,6.9,3,5.8,4.1C4.6,5.2,3.7,6.5,3.1,8c-0.6,1.4-0.9,2.9-1,4.4L2,25.3h4.3V12.9 c0-1.1,0.2-2.2,0.6-3.2s1-1.8,1.8-2.6c0.8-0.7,1.6-1.3,2.6-1.7c1-0.4,2.1-0.6,3.2-0.6c2.2,0,4.2,0.8,5.8,2.4 C21,7.9,21.6,8.7,22,9.7s0.6,2.1,0.6,3.2v12.4h4.2V12.9c0-1.1,0.2-2.2,0.7-3.2c0.4-1,1-1.8,1.8-2.6c0.8-0.7,1.6-1.3,2.6-1.7 c1-0.4,2.1-0.6,3.2-0.6s2.2,0.2,3.2,0.6s1.9,1,2.6,1.7c0.7,0.7,1.3,1.6,1.7,2.6s0.6,2.1,0.6,3.2v12.5h4.2V13 C47.4,11.4,47.1,9.7,46.5,8.2"></path> </g> </g> </svg> 