<svg width="100" height="41" viewBox="0 0 100 41" fill="none" xmlns="http://www.w3.org/2000/svg">
<g clip-path="url(#clip0_88_14889)">
<mask id="mask0_88_14889" style="mask-type:luminance" maskUnits="userSpaceOnUse" x="0" y="0" width="100" height="41">
<path d="M99.22 0H0V41H99.22V0Z" fill="white"/>
</mask>
<g mask="url(#mask0_88_14889)">
<path fill-rule="evenodd" clip-rule="evenodd" d="M29.3562 9.87961C31.9822 9.87961 34.089 10.8208 35.6699 12.7001V4.9713L41.4313 0V31.9754H35.7824V29.5991C34.2014 31.5511 32.0582 32.5289 29.3562 32.5289C26.3893 32.5289 23.9122 31.4484 21.9344 29.2875C19.9532 27.1267 18.9643 24.4323 18.9643 21.2043C18.9643 17.9762 19.9532 15.2817 21.9344 13.1209C23.9122 10.96 26.3861 9.87961 29.3562 9.87961ZM30.4178 27.1367C32.055 27.1367 33.3911 26.5765 34.4164 25.4597C35.445 24.3394 35.9577 22.9243 35.9577 21.2076C35.9577 19.4907 35.4417 18.0723 34.4164 16.9555C33.3911 15.8385 32.0582 15.2784 30.4178 15.2784C28.7609 15.2784 27.4246 15.8485 26.4059 16.9786C25.3872 18.1088 24.8779 19.5206 24.8779 21.2076C24.8779 22.8945 25.3839 24.3031 26.4059 25.4365C27.4279 26.57 28.7641 27.1367 30.4178 27.1367ZM6.18147 19.0765V26.2252H17.3638L20.4859 31.9091H0V0.821927H23.6642L20.6876 6.50909H6.18147V13.3927H18.1441L16.6923 19.0765H6.18147ZM59.8864 12.7928C58.2923 10.811 56.0764 9.81671 53.2387 9.81671C51.9388 9.81671 50.6886 10.0818 49.4947 10.6154C48.3007 11.149 47.2457 11.8848 46.3362 12.826C45.4267 13.7672 44.7023 14.9272 44.1632 16.3126C43.6242 17.6979 43.3529 19.1959 43.3529 20.8099C43.3529 22.4073 43.6208 23.9054 44.1632 25.294C44.7023 26.686 45.4267 27.846 46.3362 28.7806C47.2457 29.7119 48.2974 30.4442 49.4947 30.9779C50.692 31.5115 51.9388 31.7766 53.2387 31.7766C56.0466 31.7766 58.246 30.8056 59.8435 28.8667V30.378C59.8435 32.1975 59.2845 33.6061 58.1699 34.5969C57.0555 35.5879 55.5637 36.0585 53.7182 36.0585C51.208 36.0585 50.3314 35.4454 50.3314 35.4454L46.442 39.5186C46.442 39.5186 47.1134 39.8467 48.777 40.2973C50.4406 40.7482 52.2795 41 54.0225 41C57.5812 41 60.3562 40.2244 62.4398 38.2559C64.5234 36.2871 65.5653 33.5762 65.5653 30.1294V10.3934H59.8931V12.7928H59.8864ZM58.58 24.8367C57.5746 25.9104 56.2815 26.4474 54.7005 26.4474C53.0899 26.4474 51.7867 25.9072 50.7879 24.8267C49.7891 23.7463 49.293 22.4073 49.293 20.8066C49.293 19.2059 49.7924 17.8636 50.7879 16.7765C51.7834 15.6895 53.0899 15.1459 54.7005 15.1459C56.2947 15.1459 57.5912 15.6828 58.5899 16.7566C59.5855 17.8304 60.0849 19.1793 60.0849 20.8099C60.0849 22.4207 59.5821 23.7661 58.58 24.8367ZM73.9065 31.9091H68.125V15.3645L73.9065 10.3933V31.9091ZM73.9097 3.17823H68.125V8.97474H73.9097V3.17823ZM87.3604 9.81671C90.701 9.81671 93.4726 10.8938 95.6825 13.0481C97.8883 15.2023 98.9929 17.9 98.9962 21.1413C98.9962 24.3826 97.8916 27.0804 95.6825 29.2346C93.4726 31.3888 90.6978 32.4659 87.3604 32.4659C84.0369 32.4659 81.2752 31.3888 79.0725 29.2346C76.8731 27.0804 75.7718 24.3826 75.7718 21.1413C75.7718 17.9 76.8699 15.2023 79.0725 13.0481C81.2752 10.8938 84.0369 9.81671 87.3604 9.81671ZM87.3604 27.0671C89.0143 27.0671 90.3804 26.5137 91.4587 25.4034C92.537 24.2932 93.0758 22.8714 93.0758 21.1413C93.0758 19.4114 92.537 17.9895 91.4587 16.8793C90.3804 15.769 89.0143 15.2155 87.3604 15.2155C85.7204 15.2155 84.3608 15.769 83.2825 16.8793C82.2042 17.9895 81.6656 19.4114 81.6656 21.1413C81.6656 22.8714 82.2042 24.2932 83.2825 25.4034C84.3608 26.5137 85.7204 27.0671 87.3604 27.0671Z" fill="url(#paint0_linear_88_14889)"/>
</g>
</g>
<defs>
<linearGradient id="paint0_linear_88_14889" x1="0.0768708" y1="16.3359" x2="93.6303" y2="2.85358" gradientUnits="userSpaceOnUse">
<stop stop-color="#C846D6"/>
<stop offset="0.46875" stop-color="#00A2ED"/>
<stop offset="1" stop-color="#02C29C"/>
</linearGradient>
<clipPath id="clip0_88_14889">
<rect width="99.22" height="41" fill="white"/>
</clipPath>
</defs>
</svg>
