<svg xmlns="http://www.w3.org/2000/svg" width="83" height="34" viewBox="0 0 83 34" fill="none"><g clip-path="url(#clip0_1581_5274)"><path d="M27.7736 8.96051C23.7572 8.96051 20.3289 11.0322 19.567 15.3493L17.2481 28.5881C15.6375 28.5881 8.62717 28.5881 8.62717 28.5881C6.4686 28.5881 5.28573 27.7861 5.70675 25.4605L7.75839 13.8657H13.6794L14.5682 8.96051H8.6539L10.1308 0.5H4.84467L0.126561 27.031C-0.635286 31.3481 2.07127 33.5 6.09436 33.5H21.6855L24.5591 17.0401C24.9801 14.7145 26.3769 13.9125 28.5755 13.9125H30.9012L31.79 8.96051H27.7736Z" fill="#41C0F0"></path><path d="M50.8292 17.0401L49.3523 25.4605C48.9313 27.7861 47.4477 28.5948 45.543 28.5948H40.2569C38.0582 28.5948 36.9155 27.7928 37.3365 25.4605L39.3681 13.9125H47.4477C49.4793 13.9125 51.3438 14.2066 50.8292 17.0401ZM50.4483 8.96051H40.2502L41.7338 0.5H36.4477L31.7496 27.1112C30.9878 31.4283 33.6943 33.5 37.7174 33.5H46.1378C50.1609 33.5 53.5424 31.4283 54.3043 27.1112L56.4228 15.1355C57.1846 10.8183 54.478 8.96051 50.455 8.96051" fill="#41C0F0"></path><path d="M76.3448 19.7003L75.3291 25.4609C74.8212 28.2945 72.9165 28.5952 70.631 28.5952H66.1869C64.0283 28.5952 62.8455 27.7933 63.2665 25.4609L64.7501 17.0405C65.1711 14.7149 66.6146 13.9129 68.7665 13.9129H73.2106C73.3509 13.9129 73.4846 13.9129 73.6249 13.9129H77.374L76.3448 19.7003ZM76.4317 8.96094H67.9712C63.9548 8.96094 60.5666 10.9057 59.8048 15.2228L57.693 27.0314C56.9311 31.3485 59.6377 33.5004 63.6608 33.5004H72.1213C76.1377 33.5004 79.5259 31.4688 80.2877 27.1517L82.4062 15.0958C83.1681 10.7787 80.4615 8.96094 76.4384 8.96094" fill="#41C0F0"></path></g><defs><clipPath id="clip0_1581_5274"><rect width="82.5267" height="33" fill="white" transform="translate(0 0.5)"></rect></clipPath></defs></svg>