<?xml version="1.0" encoding="utf-8"?>
<!-- Generator: Adobe Illustrator 22.0.1, SVG Export Plug-In . SVG Version: 6.00 Build 0)  -->
<svg version="1.1" id="ed665e3e-02c1-42dc-995a-cf87b71111d0"
	 xmlns="http://www.w3.org/2000/svg" xmlns:xlink="http://www.w3.org/1999/xlink" x="0px" y="0px" viewBox="0 0 224 42.8"
	 style="enable-background:new 0 0 224 42.8;" xml:space="preserve">
<style type="text/css">
	.st0{fill:#FFFFFF;}
	.st1{fill:#00C2EF;}
	.st2{fill:#18013A;}
	.st3{fill:#8F0CF4;}
</style>
<g id="f4786b5e-2815-4ab6-ab85-559e54f35b9d">
	<path class="st0" d="M2.4,10.4H0V7.7h2.4V4.8C2.4,2.1,3.1,0,6.8,0c0.8,0,1.6,0.1,2.3,0.3v2.6c-0.7-0.1-1.3-0.1-2-0.1
		C6,2.8,5.8,3.4,5.8,4.5v3.2h3v2.7h-3v17.2H2.4V10.4z"/>
	<path class="st0" d="M11.6,27.6H15V0.3h-3.4L11.6,27.6z"/>
	<path class="st0" d="M18.3,23.7V7.4h3.4v14.8c0,0.8,0,3,2.5,3c1.8,0,2.7-2,2.7-3.7V7.4h3.3v20.2H27v-2.4l0,0
		c-0.8,1.8-2.5,2.9-4.4,2.9c-2.3,0.1-4.2-1.7-4.2-4C18.4,24,18.4,23.8,18.3,23.7"/>
	<path class="st0" d="M42.3,15.6v-3c0-1.7-0.9-3-2.7-3s-2.8,1.3-2.8,3.1v2.9L42.3,15.6L42.3,15.6z M33.5,22.2v-9
		c0-3.9,2.4-6.2,6.4-6.2s5.7,2.6,5.7,6.2V18h-8.7v3.9c0,2,0.7,3.3,2.8,3.3c1.4,0.1,2.6-1,2.7-2.4c0-0.1,0-0.3,0-0.4v-1.4h3.1V22
		c0,3.5-1.9,6-5.8,6S33.5,26.1,33.5,22.2z"/>
	<path class="st0" d="M48.6,7.4h3.3v2.3H52c0.8-1.7,2.4-2.8,4.3-2.8c2.3-0.1,4.2,1.6,4.3,3.9c0,0.2,0,0.3,0,0.5v16.3h-3.4V12.8
		c0-0.8-0.1-2.9-2.5-2.9c-1.8,0-2.7,2-2.7,3.6v14.1h-3.4L48.6,7.4z"/>
	<path class="st0" d="M65.1,23.6V10.5h-2.3V7.8l2.3-0.1V2.9l3.4-1.6v6.2h3.6v2.8h-3.6v12.3c0,1,0.1,2,1.8,2c0.6,0,1.1-0.1,1.7-0.2
		v2.8c-0.9,0.3-1.9,0.5-2.9,0.5C66,27.9,65.2,26.2,65.1,23.6"/>
	<path class="st0" d="M75.4,22.4v-9.3c0-4.2,2.6-6,5.8-6s5.4,1.5,5.4,5.4V14h-2.2v-1.2c0-1.9-0.8-3.7-3.3-3.7
		c-1.9,0-3.4,1.5-3.4,3.4c0,0.1,0,0.2,0,0.2v9.7c0,1.5,0.5,3.6,3.5,3.6c1.7,0,3.1-1.3,3.2-3v-1.8h2.2v1.6c0,3.5-2.2,5.4-5.3,5.4
		C77.4,28.2,75.4,26.5,75.4,22.4"/>
	<path class="st0" d="M98.2,22.3v-9.6c0-2.2-1.2-3.5-3.4-3.5s-3.3,1.6-3.3,3.7v9.5c0,2.1,1.1,3.6,3.3,3.6S98.2,24.6,98.2,22.3z
		 M89.2,22.5v-9.6c0-3.3,2-5.8,5.8-5.8s5.6,2.4,5.6,5.4v9.4c0,3.7-1.9,6.2-5.8,6.2S89.2,26.3,89.2,22.5z"/>
	<path class="st0" d="M103.3,7.5h2.4v2.3h0.1c0.8-1.7,2.6-2.8,4.5-2.8c1.9-0.2,3.7,1.2,4,3.1c1.3-2.1,2.7-3.1,4.7-3.1
		c3.4,0,4.1,2.7,4.1,4.3v16.3h-2.4V12.6c0-0.9,0.1-3.5-2.9-3.5c-2.1,0-3.3,2.4-3.3,4.4v14.1h-2.4V12.2c0-1.1-0.3-3.1-2.9-3.1
		c-2.1,0-3.3,2.4-3.3,4.4v14.1h-2.4L103.3,7.5z"/>
	<path class="st0" d="M125.5,7.5h2.4v2.3h0.1c0.8-1.7,2.6-2.8,4.5-2.8c1.9-0.2,3.7,1.2,4,3.1c1.3-2.1,2.6-3.1,4.6-3.1
		c3.4,0,4.2,2.7,4.2,4.3v16.3h-2.4V12.6c0-0.9,0.1-3.5-2.9-3.5c-2,0-3.3,2.4-3.3,4.4v14.1h-2.4V12.2c0-1.1-0.3-3.1-2.9-3.1
		c-2.1,0-3.3,2.4-3.3,4.4v14.1h-2.4L125.5,7.5z"/>
	<path class="st0" d="M156.8,16v-3.3c0-2-1.1-3.6-3.3-3.6s-3.4,1.6-3.4,3.7V16H156.8z M147.7,22.6v-9.4c0-3.9,2.2-6.2,6.1-6.2
		s5.4,2.7,5.4,6.2v4.7h-9v4.1c0,2.3,0.8,4,3.4,4c2.1,0,3.3-1.4,3.3-3.5v-1.4h2.2v0.9c0,3.6-1.6,6.2-5.5,6.2S147.7,26.4,147.7,22.6
		L147.7,22.6z"/>
	<path class="st0" d="M162,7.5h2.4v3.6h0.1c1.1-2.6,2.6-3.9,4.4-3.9c0.4,0,0.8,0,1.2,0.1v2.6c-0.5-0.2-1-0.2-1.5-0.1
		c-2.9,0-4.1,4.6-4.1,7.1v10.8H162V7.5z"/>
	<path class="st0" d="M171.9,22.4v-9.3c0-4.2,2.6-6,5.8-6s5.4,1.5,5.4,5.4V14h-2.2v-1.2c0-1.9-0.7-3.7-3.2-3.7
		c-1.8,0-3.4,1.4-3.4,3.3c0,0.1,0,0.2,0,0.3v9.7c0,1.5,0.5,3.6,3.5,3.6c1.7,0,3.1-1.3,3.2-3v-1.8h2.2v1.6c0,3.5-2.2,5.4-5.3,5.4
		C173.9,28.2,171.9,26.5,171.9,22.4"/>
	<path class="st0" d="M194.7,16v-3.3c0-2-1.1-3.6-3.3-3.6s-3.4,1.6-3.4,3.7V16H194.7z M185.7,22.6v-9.4c0-3.9,2.2-6.2,6.1-6.2
		s5.4,2.7,5.4,6.2v4.7h-9v4.1c0,2.3,0.8,4,3.4,4c2.1,0,3.3-1.4,3.3-3.5v-1.4h2.2v0.9c0,3.6-1.6,6.2-5.4,6.2S185.7,26.4,185.7,22.6
		L185.7,22.6z"/>
	<path class="st1" d="M201.7,26.3c-0.5-1.1,0-2.4,1.1-2.9c0.3-0.1,0.6-0.2,0.9-0.2c1.2,0,2.2,1,2.2,2.2s-1,2.2-2.2,2.2c0,0,0,0,0,0
		c-0.6,0-1.1-0.2-1.6-0.6C202,26.8,201.8,26.5,201.7,26.3"/>
	<path class="st2" d="M221.7,12h-18c-1.2,0-2.2-1-2.2-2.2c0-1.2,1-2.2,2.2-2.2h18c1.2,0,2.2,1,2.2,2.2C224,11,223,12,221.7,12"/>
	<path class="st3" d="M203.7,15.3h9c1.2,0,2.2,1,2.2,2.2s-1,2.2-2.2,2.2h-9c-1.2,0-2.2-1-2.2-2.2C201.5,16.3,202.5,15.3,203.7,15.3"
		/>
	<path class="st1" d="M3.5,32.7c0.5,0,1,0.1,1.5,0.3c0.4,0.2,0.7,0.4,1,0.8c0.3,0.4,0.5,0.8,0.7,1.2C7,35.9,7.1,37,6.8,38
		c-0.1,0.4-0.4,0.9-0.7,1.2C5.8,39.6,5.4,39.9,5,40c-0.5,0.2-0.9,0.3-1.4,0.3c-0.5,0-1-0.1-1.5-0.3c-0.4-0.2-0.8-0.4-1.1-0.8
		c-0.3-0.3-0.6-0.8-0.7-1.2c-0.3-1-0.3-2.1,0-3.1c0.2-0.4,0.4-0.8,0.7-1.2c0.3-0.3,0.7-0.6,1.1-0.8C2.5,32.7,3,32.6,3.5,32.7z
		 M3.5,39.2c0.6,0.1,1.3-0.2,1.6-0.7c0.4-0.6,0.6-1.3,0.5-2c0.1-0.7-0.1-1.4-0.5-2c-0.4-0.5-1-0.7-1.6-0.7c-0.3,0-0.7,0.1-1,0.2
		c-0.3,0.1-0.5,0.3-0.7,0.5c-0.2,0.3-0.3,0.6-0.4,0.9c-0.1,0.4-0.2,0.8-0.1,1.2c0,0.4,0.1,0.8,0.1,1.2c0.1,0.3,0.2,0.6,0.4,0.9
		c0.2,0.2,0.4,0.4,0.7,0.5C2.9,39.2,3.2,39.3,3.5,39.2z"/>
	<path class="st1" d="M8.6,40.1v-7.3h0.7c0.1,0,0.2,0,0.3,0.1s0.1,0.2,0.1,0.3l0.1,1.2c0.2-0.5,0.6-0.9,1-1.2
		c0.4-0.3,0.8-0.4,1.3-0.4c0.2,0,0.4,0,0.5,0.1l0.5,0.2l-0.1,1c0,0.1-0.1,0.2-0.2,0.2c-0.1,0-0.2,0-0.3-0.1C12.2,34,12,34,11.7,34
		c-0.4,0-0.8,0.1-1.1,0.4c-0.3,0.3-0.6,0.7-0.8,1.2v4.7H8.6V40.1z"/>
	<path class="st1" d="M19.5,40.1c-0.1,0-0.3-0.1-0.3-0.3L19,39c-0.3,0.4-0.7,0.7-1.1,0.9c-0.4,0.2-0.9,0.3-1.4,0.3
		c-0.4,0-0.8-0.1-1.1-0.3c-0.3-0.2-0.6-0.4-0.9-0.7c-0.3-0.3-0.4-0.7-0.5-1.2c-0.1-0.5-0.2-1.1-0.2-1.6c0-0.5,0.1-1,0.2-1.5
		c0.2-0.4,0.4-0.8,0.6-1.2c0.3-0.3,0.6-0.6,1-0.8c0.4-0.2,0.9-0.3,1.4-0.3c0.4,0,0.8,0.1,1.2,0.2c0.3,0.1,0.6,0.4,0.9,0.6v-4.1h1.3
		v10.7L19.5,40.1L19.5,40.1z M17,39.1c0.4,0,0.8-0.1,1.1-0.3c0.4-0.2,0.7-0.5,0.9-0.8v-3.5c-0.2-0.3-0.5-0.5-0.8-0.7
		c-0.3-0.1-0.6-0.2-1-0.2c-0.6-0.1-1.3,0.2-1.6,0.7c-0.4,0.6-0.6,1.4-0.5,2.1c0,0.4,0.1,0.8,0.1,1.2c0.1,0.3,0.2,0.6,0.3,0.8
		c0.2,0.2,0.4,0.4,0.6,0.5C16.5,39.2,16.7,39.2,17,39.1L17,39.1z"/>
	<path class="st1" d="M25.3,32.7c0.4,0,0.8,0.1,1.2,0.2c0.4,0.1,0.7,0.3,1,0.6c0.3,0.3,0.5,0.6,0.6,1c0.1,0.5,0.2,0.9,0.2,1.4
		c0,0.1,0,0.3-0.1,0.4c-0.1,0.1-0.2,0.1-0.3,0.1h-4.9c0,0.4,0.1,0.8,0.2,1.2c0.1,0.3,0.3,0.6,0.5,0.9c0.2,0.2,0.5,0.4,0.8,0.5
		c0.3,0.1,0.6,0.2,1,0.1c0.3,0,0.6,0,0.8-0.1c0.2-0.1,0.4-0.2,0.6-0.3c0.2-0.1,0.3-0.2,0.4-0.3c0.1-0.1,0.2-0.1,0.3-0.1
		c0.1,0,0.2,0.1,0.3,0.1l0.3,0.5c-0.1,0.2-0.3,0.4-0.5,0.5c-0.2,0.2-0.4,0.3-0.7,0.3l-0.8,0.2c-0.3,0.1-0.5,0.1-0.8,0.1
		c-0.5,0-1-0.1-1.4-0.3c-0.4-0.2-0.8-0.4-1.1-0.8c-0.3-0.3-0.6-0.8-0.8-1.2c-0.2-0.5-0.3-1.1-0.3-1.7c0-0.5,0.1-1,0.2-1.4
		c0.2-0.4,0.4-0.8,0.7-1.2c0.3-0.3,0.6-0.6,1-0.8C24.2,32.7,24.7,32.7,25.3,32.7z M25.3,33.6c-0.5,0-1.1,0.2-1.5,0.5
		c-0.4,0.4-0.6,0.9-0.7,1.5h4c0-0.3-0.1-0.6-0.1-0.8c-0.1-0.2-0.2-0.5-0.3-0.7c-0.1-0.2-0.4-0.4-0.6-0.4
		C25.8,33.7,25.5,33.6,25.3,33.6L25.3,33.6z"/>
	<path class="st1" d="M29.9,40.1v-7.3h0.7c0.1,0,0.2,0,0.3,0.1c0.1,0.1,0.1,0.2,0.1,0.3l0,1.2c0.2-0.5,0.6-0.9,1-1.2
		c0.4-0.3,0.8-0.4,1.3-0.4c0.2,0,0.4,0,0.5,0.1l0.5,0.2l-0.1,1c0,0.1-0.1,0.2-0.2,0.2c-0.1,0-0.2,0-0.3-0.1c-0.6-0.2-1.3,0-1.8,0.3
		c-0.3,0.3-0.6,0.7-0.8,1.2v4.7L29.9,40.1z"/>
	<path class="st1" d="M38.4,40.1v-7.3h0.8c0.1,0,0.3,0.1,0.3,0.3l0.1,0.8c0.2-0.3,0.5-0.6,0.9-0.8c0.3-0.2,0.7-0.3,1.2-0.3
		c0.4,0,0.9,0.1,1.2,0.4c0.3,0.3,0.6,0.7,0.7,1.2c0.1-0.3,0.2-0.5,0.4-0.7c0.2-0.2,0.3-0.4,0.5-0.5c0.2-0.1,0.4-0.2,0.7-0.3
		c0.2-0.1,0.4-0.1,0.7-0.1c0.3,0,0.7,0.1,1,0.2c0.3,0.1,0.5,0.3,0.8,0.5c0.2,0.3,0.4,0.6,0.5,0.9c0.1,0.4,0.2,0.8,0.1,1.2v4.7h-1.3
		v-4.7c0-0.5-0.1-0.9-0.4-1.3c-0.3-0.3-0.7-0.5-1.1-0.5c-0.2,0-0.4,0.1-0.6,0.1c-0.2,0.1-0.4,0.2-0.5,0.3c-0.2,0.2-0.3,0.3-0.3,0.5
		c-0.1,0.2-0.1,0.5-0.1,0.8v4.7h-1.2v-4.7c0.1-0.5-0.1-0.9-0.3-1.3c-0.2-0.3-0.6-0.4-1-0.4c-0.3,0-0.6,0.1-0.9,0.3
		c-0.3,0.2-0.5,0.4-0.8,0.7v5.5L38.4,40.1z"/>
	<path class="st1" d="M55.5,40.1H55c-0.1,0-0.2,0-0.3-0.1c-0.1-0.1-0.1-0.2-0.1-0.3l-0.1-0.7c-0.2,0.1-0.3,0.3-0.5,0.5
		c-0.2,0.1-0.3,0.3-0.5,0.3c-0.2,0.1-0.4,0.2-0.7,0.2c-0.2,0.1-0.5,0.1-0.8,0.1c-0.3,0-0.5-0.1-0.8-0.1c-0.2-0.1-0.5-0.2-0.7-0.3
		c-0.2-0.1-0.4-0.4-0.4-0.6c-0.1-0.3-0.2-0.6-0.1-0.9c0-0.3,0.1-0.6,0.2-0.8c0.2-0.3,0.5-0.5,0.8-0.8c0.5-0.2,0.9-0.4,1.4-0.5
		c0.7-0.1,1.4-0.2,2.1-0.2v-0.5c0.1-0.5-0.1-0.9-0.3-1.3c-0.3-0.3-0.7-0.4-1-0.5c-0.3,0-0.5,0.1-0.8,0.1c-0.2,0-0.4,0.1-0.5,0.3
		l-0.4,0.3c-0.1,0.1-0.2,0.1-0.3,0.1c-0.1,0-0.2,0-0.2-0.1l-0.1-0.1l-0.2-0.4c0.4-0.4,0.8-0.7,1.3-0.9c0.5-0.2,1-0.3,1.6-0.3
		c0.4,0,0.7,0.1,1.1,0.2c0.3,0.1,0.6,0.3,0.8,0.5c0.2,0.3,0.4,0.6,0.5,0.9c0.1,0.4,0.2,0.8,0.1,1.2L55.5,40.1z M52.2,39.3
		c0.2,0,0.4,0,0.6-0.1c0.2-0.1,0.3-0.1,0.5-0.2c0.2-0.1,0.3-0.2,0.5-0.3c0.1-0.2,0.3-0.3,0.5-0.4v-1.5c-0.5,0-1,0-1.5,0.1
		c-0.3,0.1-0.7,0.1-1,0.3c-0.2,0.1-0.4,0.2-0.5,0.4c-0.1,0.1-0.2,0.3-0.2,0.5c0,0.2,0,0.3,0.1,0.5c0,0.1,0.1,0.3,0.3,0.3l0.4,0.2
		C51.9,39.3,52,39.3,52.2,39.3z"/>
	<path class="st1" d="M57.5,40.1v-7.3h0.7c0.1,0,0.3,0.1,0.3,0.3l0.1,0.8c0.3-0.3,0.7-0.6,1.1-0.8c0.4-0.2,0.9-0.3,1.4-0.3
		c0.4,0,0.7,0.1,1.1,0.2c0.3,0.1,0.5,0.3,0.8,0.5c0.2,0.3,0.4,0.6,0.5,0.9c0.1,0.4,0.2,0.8,0.1,1.2v4.7h-1.3v-4.7
		c0-0.5-0.1-0.9-0.4-1.3c-0.3-0.3-0.7-0.5-1.2-0.5c-0.4,0-0.8,0.1-1.1,0.3c-0.3,0.2-0.6,0.4-0.9,0.7v5.4L57.5,40.1z"/>
	<path class="st1" d="M70.8,40.1h-0.6c-0.1,0-0.2,0-0.3-0.1c-0.1-0.1-0.1-0.2-0.1-0.3l-0.1-0.7c-0.2,0.1-0.3,0.3-0.5,0.5
		c-0.2,0.1-0.3,0.3-0.6,0.3c-0.2,0.1-0.4,0.2-0.7,0.2c-0.2,0.1-0.5,0.1-0.7,0.1c-0.3,0-0.6-0.1-0.8-0.1c-0.2-0.1-0.5-0.2-0.7-0.3
		c-0.2-0.1-0.4-0.4-0.4-0.6c-0.1-0.3-0.2-0.6-0.1-0.9c0-0.3,0.1-0.6,0.2-0.8c0.2-0.3,0.5-0.5,0.8-0.8c0.4-0.2,0.9-0.4,1.4-0.5
		c0.7-0.1,1.4-0.2,2.1-0.2v-0.5c0.1-0.5-0.1-0.9-0.3-1.3c-0.3-0.3-0.7-0.5-1.1-0.5c-0.3,0-0.6,0.1-0.8,0.1c-0.2,0.1-0.4,0.1-0.5,0.3
		l-0.4,0.3c-0.1,0.1-0.2,0.1-0.3,0.1c-0.1,0-0.1,0-0.2-0.1l-0.1-0.1l-0.2-0.4c0.4-0.4,0.8-0.7,1.3-0.9c0.5-0.2,1-0.3,1.6-0.3
		c0.4,0,0.7,0.1,1.1,0.2c0.3,0.1,0.6,0.3,0.8,0.5c0.2,0.3,0.4,0.6,0.5,0.9c0.1,0.4,0.2,0.8,0.1,1.2L70.8,40.1z M67.4,39.3
		c0.2,0,0.4,0,0.6-0.1c0.2-0.1,0.3-0.1,0.5-0.2c0.2-0.1,0.3-0.2,0.5-0.3c0.1-0.1,0.3-0.3,0.5-0.4v-1.5c-0.5,0-1,0-1.5,0.1
		c-0.3,0.1-0.7,0.1-1,0.3c-0.2,0.1-0.4,0.2-0.5,0.4c-0.1,0.1-0.2,0.3-0.2,0.5c0,0.2,0,0.3,0.1,0.5c0,0.1,0.1,0.3,0.3,0.3
		c0.1,0.1,0.3,0.2,0.4,0.2C67.2,39.3,67.3,39.3,67.4,39.3z"/>
	<path class="st1" d="M75.2,32.7c0.3,0,0.6,0.1,0.9,0.1c0.3,0,0.5,0.2,0.8,0.3h2v0.5c0,0.2-0.1,0.3-0.3,0.3l-0.8,0.1
		c0.2,0.3,0.3,0.7,0.3,1c0,0.6-0.3,1.3-0.8,1.7c-0.3,0.2-0.6,0.4-0.9,0.5c-0.4,0.1-0.7,0.2-1.1,0.1c-0.3,0-0.7,0-1-0.1
		c-0.1,0.1-0.3,0.2-0.3,0.3c-0.1,0.1-0.1,0.2-0.1,0.3c0,0.2,0.1,0.3,0.2,0.4c0.1,0.1,0.3,0.2,0.5,0.2c0.3,0.1,0.5,0.1,0.8,0.1h0.9
		c0.3,0,0.6,0,0.9,0.1c0.3,0.1,0.6,0.2,0.9,0.3c0.5,0.3,0.8,0.8,0.7,1.4c0,0.3-0.1,0.7-0.2,1c-0.2,0.3-0.4,0.6-0.7,0.8
		c-0.3,0.2-0.7,0.4-1.1,0.5c-0.5,0.1-0.9,0.2-1.4,0.2c-0.5,0-1-0.1-1.4-0.1c-0.4-0.1-0.7-0.2-1-0.4c-0.3-0.1-0.5-0.3-0.6-0.6
		c-0.1-0.2-0.2-0.5-0.2-0.8c0-0.4,0.1-0.7,0.3-1c0.3-0.3,0.6-0.5,0.9-0.6c-0.2-0.1-0.4-0.2-0.5-0.4c-0.1-0.2-0.2-0.4-0.2-0.7
		c0-0.1,0-0.2,0.1-0.3c0.1-0.1,0.1-0.3,0.2-0.3s0.2-0.2,0.3-0.3c0.1-0.1,0.3-0.2,0.4-0.3c-0.3-0.2-0.6-0.5-0.9-0.8
		c-0.2-0.3-0.4-0.8-0.3-1.2c0-0.3,0.1-0.7,0.2-1c0.1-0.3,0.3-0.5,0.5-0.7c0.3-0.2,0.6-0.4,0.9-0.5C74.4,32.7,74.8,32.6,75.2,32.7z
		 M77.5,40.5c0-0.2-0.1-0.3-0.1-0.5c-0.1-0.1-0.3-0.2-0.4-0.3c-0.2-0.1-0.4-0.1-0.6-0.1c-0.3,0-0.5-0.1-0.8-0.1h-0.8
		c-0.3,0-0.5,0-0.7-0.1c-0.3,0.1-0.5,0.3-0.7,0.5c-0.2,0.2-0.3,0.4-0.3,0.7c0,0.2,0.1,0.3,0.1,0.5c0.1,0.2,0.2,0.3,0.4,0.3
		c0.2,0.1,0.4,0.2,0.7,0.3c0.6,0.1,1.3,0.1,1.9,0c0.2-0.1,0.5-0.1,0.7-0.3c0.2-0.1,0.3-0.2,0.4-0.4C77.4,40.9,77.5,40.7,77.5,40.5z
		 M75.2,36.5c0.2,0,0.5-0.1,0.7-0.1c0.2,0,0.3-0.1,0.5-0.3c0.1-0.1,0.2-0.3,0.3-0.5c0.1-0.2,0.1-0.4,0.1-0.6c0-0.4-0.1-0.8-0.4-1
		c-0.7-0.6-1.7-0.6-2.4,0c-0.3,0.3-0.4,0.6-0.4,1c0,0.2,0,0.4,0.1,0.6c0.1,0.2,0.2,0.3,0.3,0.5c0.1,0.1,0.3,0.2,0.5,0.3
		C74.7,36.5,74.9,36.5,75.2,36.5L75.2,36.5z"/>
	<path class="st1" d="M82.9,32.7c0.4,0,0.8,0.1,1.2,0.2c0.4,0.1,0.7,0.3,0.9,0.6c0.3,0.3,0.5,0.6,0.6,1c0.2,0.4,0.2,0.9,0.2,1.4
		c0,0.1,0,0.3-0.1,0.4c-0.1,0.1-0.2,0.1-0.3,0.1h-4.8c0,0.4,0.1,0.8,0.2,1.2c0.1,0.3,0.3,0.6,0.5,0.9c0.2,0.2,0.5,0.4,0.7,0.5
		c0.3,0.2,0.7,0.2,1,0.1c0.3,0,0.6,0,0.8-0.1c0.2-0.1,0.4-0.2,0.6-0.3c0.1-0.1,0.3-0.2,0.4-0.3c0.1-0.1,0.2-0.1,0.3-0.1
		c0.1,0,0.2,0.1,0.3,0.1l0.3,0.5c-0.1,0.2-0.3,0.4-0.5,0.5c-0.2,0.2-0.5,0.3-0.8,0.3L83.8,40c-0.3,0.1-0.5,0.1-0.8,0.1
		c-0.5,0-1-0.1-1.4-0.3c-0.4-0.1-0.8-0.4-1.1-0.8c-0.3-0.3-0.6-0.8-0.8-1.2c-0.2-0.5-0.3-1.1-0.3-1.7c0-0.5,0.1-1,0.2-1.4
		c0.2-0.4,0.4-0.8,0.7-1.2c0.3-0.3,0.7-0.6,1.1-0.8C82,32.7,82.4,32.7,82.9,32.7z M82.9,33.6c-0.5,0-1.1,0.2-1.5,0.5
		c-0.4,0.4-0.6,0.9-0.7,1.5h4c0-0.3-0.1-0.6-0.1-0.8c-0.1-0.2-0.2-0.5-0.3-0.7c-0.1-0.2-0.4-0.4-0.6-0.4
		C83.4,33.7,83.2,33.6,82.9,33.6L82.9,33.6z"/>
	<path class="st1" d="M87.5,40.1v-7.3h0.8c0.1,0,0.3,0.1,0.3,0.3l0.1,0.8c0.2-0.3,0.5-0.6,0.9-0.8c0.3-0.2,0.7-0.3,1.2-0.3
		c0.4,0,0.9,0.1,1.2,0.4c0.3,0.3,0.6,0.7,0.7,1.2c0.1-0.3,0.2-0.5,0.4-0.7c0.2-0.2,0.3-0.4,0.6-0.5c0.2-0.1,0.4-0.2,0.7-0.3
		c0.2-0.1,0.4-0.1,0.7-0.1c0.3,0,0.7,0.1,1,0.2c0.3,0.1,0.6,0.3,0.8,0.5c0.2,0.3,0.4,0.6,0.5,0.9c0.1,0.4,0.1,0.8,0.1,1.2v4.7H96
		v-4.7c0-0.5-0.1-0.9-0.4-1.3c-0.3-0.3-0.7-0.5-1.1-0.5c-0.2,0-0.4,0.1-0.6,0.1c-0.2,0.1-0.4,0.2-0.5,0.3c-0.2,0.2-0.3,0.3-0.3,0.5
		C93,35,93,35.3,92.9,35.5v4.7h-1.3v-4.7c0.1-0.5,0-0.9-0.3-1.3c-0.2-0.3-0.6-0.4-1-0.4c-0.3,0-0.6,0.1-0.9,0.3
		c-0.3,0.2-0.5,0.4-0.7,0.7v5.5L87.5,40.1z"/>
	<path class="st1" d="M102.3,32.7c0.4,0,0.8,0.1,1.2,0.2c0.4,0.1,0.7,0.3,1,0.6c0.3,0.3,0.5,0.6,0.6,1c0.2,0.4,0.2,0.9,0.2,1.4
		c0,0.1,0,0.3-0.1,0.4c-0.1,0.1-0.2,0.1-0.3,0.1h-5c0,0.4,0.1,0.8,0.2,1.2c0.1,0.3,0.3,0.6,0.5,0.9c0.2,0.2,0.5,0.4,0.7,0.5
		c0.3,0.2,0.7,0.2,1,0.1c0.3,0,0.6,0,0.8-0.1c0.2-0.1,0.4-0.2,0.6-0.3c0.1-0.1,0.3-0.2,0.4-0.3c0.1-0.1,0.3-0.2,0.5-0.1
		c0,0,0.1,0,0.1,0.1l0.3,0.5c-0.1,0.2-0.3,0.4-0.5,0.5c-0.2,0.1-0.4,0.2-0.7,0.3l-0.8,0.2c-0.3,0.1-0.5,0.1-0.8,0.1
		c-0.5,0-1-0.1-1.4-0.3c-0.4-0.2-0.8-0.4-1.2-0.8c-0.3-0.3-0.6-0.7-0.7-1.2c-0.2-0.5-0.3-1.1-0.3-1.7c0-0.5,0.1-1,0.3-1.4
		c0.2-0.4,0.4-0.8,0.7-1.2c0.3-0.3,0.7-0.6,1.1-0.8C101.3,32.8,101.8,32.7,102.3,32.7z M102.3,33.6c-0.5,0-1.1,0.2-1.5,0.5
		c-0.4,0.4-0.6,0.9-0.7,1.5h4c0-0.3-0.1-0.6-0.1-0.8c-0.1-0.2-0.2-0.5-0.3-0.7c-0.1-0.2-0.4-0.4-0.6-0.4
		C102.8,33.7,102.5,33.6,102.3,33.6z"/>
	<path class="st1" d="M106.9,40.1v-7.3h0.7c0.1,0,0.3,0.1,0.3,0.3l0.1,0.8c0.3-0.3,0.7-0.6,1.1-0.8c0.4-0.2,0.9-0.3,1.4-0.3
		c0.4,0,0.7,0.1,1.1,0.2c0.3,0.1,0.5,0.3,0.8,0.5c0.2,0.3,0.4,0.6,0.5,0.9c0.1,0.4,0.2,0.8,0.1,1.2v4.7h-1.3v-4.7
		c0-0.5-0.1-0.9-0.4-1.3c-0.3-0.3-0.7-0.5-1.2-0.5c-0.4,0-0.8,0.1-1.1,0.2c-0.4,0.2-0.7,0.5-1,0.7v5.4L106.9,40.1z"/>
	<path class="st1" d="M117.2,40.3c-0.5,0.1-1-0.1-1.4-0.5c-0.3-0.4-0.5-0.9-0.5-1.4v-4.5h-0.9c-0.1,0-0.2,0-0.2-0.1
		c-0.1-0.1-0.1-0.1-0.1-0.2v-0.5l1.2-0.1l0.3-2.2c0-0.1,0.1-0.1,0.1-0.2c0.1,0,0.1-0.1,0.2-0.1h0.7v2.5h2.1v1h-2.1v4.4
		c0,0.2,0.1,0.5,0.2,0.7c0.2,0.2,0.4,0.2,0.6,0.2c0.1,0,0.3,0,0.3-0.1c0.1,0,0.2-0.1,0.2-0.1l0.2-0.1c0.1,0,0.1-0.1,0.1-0.1
		s0.1,0.1,0.2,0.1l0.4,0.6c-0.2,0.2-0.5,0.4-0.8,0.5C117.8,40.2,117.5,40.3,117.2,40.3z"/>
	<path class="st1" d="M119.8,39.3c0-0.1,0-0.2,0.1-0.3c0.1-0.1,0.1-0.2,0.2-0.3c0.1-0.1,0.2-0.1,0.3-0.2c0.1-0.1,0.2-0.1,0.3-0.1
		c0.1,0,0.3,0,0.3,0.1c0.1,0,0.2,0.1,0.3,0.2c0.1,0.1,0.1,0.2,0.2,0.3c0.1,0.2,0.1,0.5,0,0.7c0,0.1-0.1,0.2-0.2,0.3
		c-0.1,0.1-0.2,0.1-0.3,0.2c-0.1,0.1-0.2,0.1-0.3,0.1c-0.1,0-0.2,0-0.3-0.1c-0.1-0.1-0.2-0.1-0.3-0.2c-0.1-0.1-0.1-0.2-0.2-0.3
		C119.8,39.5,119.8,39.4,119.8,39.3z"/>
	<path class="st1" d="M131.4,40.1h-0.6c-0.1,0-0.2,0-0.3-0.1c-0.1-0.1-0.1-0.2-0.1-0.3l-0.1-0.7c-0.2,0.2-0.4,0.3-0.5,0.5
		c-0.2,0.1-0.4,0.3-0.6,0.3c-0.2,0.1-0.4,0.2-0.7,0.2c-0.2,0.1-0.5,0.1-0.8,0.1c-0.3,0-0.5-0.1-0.8-0.1c-0.2-0.1-0.4-0.2-0.6-0.3
		c-0.2-0.1-0.4-0.4-0.4-0.6c-0.2-0.3-0.2-0.6-0.1-0.9c0-0.3,0.1-0.6,0.3-0.8c0.2-0.3,0.5-0.5,0.8-0.8c0.5-0.2,0.9-0.4,1.4-0.5
		c0.7-0.1,1.4-0.2,2.1-0.2v-0.5c0.1-0.5-0.1-0.9-0.3-1.3c-0.3-0.3-0.7-0.5-1.1-0.5c-0.3,0-0.6,0.1-0.8,0.1c-0.2,0.1-0.4,0.1-0.5,0.3
		c-0.1,0.1-0.3,0.2-0.4,0.3c-0.1,0.1-0.2,0.1-0.3,0.1c-0.1,0-0.1,0-0.2-0.1l-0.1-0.1l-0.3-0.4c0.4-0.4,0.8-0.7,1.3-0.9
		c0.5-0.2,1-0.3,1.6-0.3c0.4,0,0.7,0.1,1.1,0.2c0.3,0.1,0.6,0.3,0.8,0.5c0.2,0.3,0.4,0.6,0.5,0.9c0.1,0.4,0.2,0.8,0.1,1.2
		L131.4,40.1z M128,39.3c0.2,0,0.4,0,0.6-0.1c0.2-0.1,0.3-0.1,0.5-0.2c0.2-0.1,0.3-0.2,0.5-0.3c0.1-0.1,0.3-0.3,0.5-0.4v-1.5
		c-0.5,0-1,0-1.5,0.1c-0.3,0.1-0.7,0.1-1,0.3c-0.2,0.1-0.4,0.2-0.5,0.4c-0.1,0.1-0.2,0.3-0.2,0.5c0,0.2,0,0.3,0.1,0.5
		c0,0.1,0.1,0.3,0.3,0.3c0.1,0.1,0.3,0.2,0.4,0.2C127.7,39.3,127.8,39.3,128,39.3L128,39.3z"/>
	<path class="st1" d="M138.3,34.1c0,0.1-0.1,0.1-0.1,0.1c-0.1,0-0.1,0-0.1,0.1c-0.1,0-0.1-0.1-0.3-0.1c-0.1-0.1-0.2-0.2-0.3-0.2
		c-0.1-0.1-0.3-0.1-0.5-0.2c-0.5-0.2-1.1-0.1-1.6,0.1c-0.3,0.1-0.5,0.3-0.7,0.5c-0.2,0.3-0.3,0.6-0.4,0.9c-0.1,0.4-0.1,0.8-0.1,1.2
		c0,0.4,0.1,0.8,0.1,1.2c0.1,0.3,0.2,0.6,0.4,0.9c0.2,0.2,0.4,0.4,0.7,0.5c0.3,0.1,0.6,0.2,0.9,0.2c0.3,0,0.5,0,0.8-0.1
		c0.2-0.1,0.4-0.1,0.5-0.3c0.1-0.1,0.2-0.2,0.3-0.3c0.1-0.1,0.2-0.1,0.3-0.1c0.1,0,0.2,0.1,0.3,0.1l0.3,0.5
		c-0.3,0.4-0.7,0.7-1.2,0.9c-0.5,0.2-1,0.3-1.5,0.3c-0.4,0-0.9-0.1-1.3-0.3c-0.4-0.1-0.7-0.4-1-0.8c-0.3-0.4-0.5-0.8-0.7-1.2
		c-0.2-0.5-0.3-1.1-0.3-1.6c0-0.5,0.1-1,0.2-1.5c0.2-0.4,0.4-0.8,0.7-1.2c0.3-0.3,0.7-0.6,1.1-0.8c0.5-0.2,1-0.3,1.5-0.3
		c0.5,0,0.9,0.1,1.4,0.3c0.4,0.2,0.8,0.4,1.1,0.7L138.3,34.1z"/>
	<path class="st1" d="M144.9,34.1c0,0.1-0.1,0.1-0.1,0.1c0,0-0.1,0-0.1,0.1c-0.1,0-0.1-0.1-0.3-0.1c-0.1-0.1-0.2-0.2-0.3-0.2
		l-0.5-0.2c-0.5-0.2-1.1-0.1-1.6,0.1c-0.3,0.1-0.5,0.3-0.7,0.5c-0.2,0.3-0.3,0.6-0.4,0.9c-0.1,0.4-0.1,0.8-0.1,1.2
		c0,0.4,0.1,0.8,0.1,1.2c0.1,0.3,0.2,0.6,0.4,0.9c0.2,0.2,0.4,0.4,0.7,0.5c0.3,0.1,0.6,0.2,0.9,0.2c0.3,0,0.5,0,0.8-0.1
		c0.2-0.1,0.4-0.1,0.6-0.3c0.1-0.1,0.2-0.2,0.3-0.3c0.1-0.1,0.2-0.1,0.3-0.1c0.1,0,0.2,0.1,0.3,0.1l0.3,0.5
		c-0.3,0.4-0.7,0.7-1.2,0.9c-0.5,0.2-1,0.3-1.5,0.3c-0.4,0-0.9-0.1-1.3-0.3c-0.4-0.1-0.7-0.4-1-0.8c-0.3-0.4-0.5-0.8-0.7-1.2
		c-0.2-0.5-0.3-1.1-0.3-1.6c0-0.5,0.1-1,0.2-1.5c0.2-0.4,0.4-0.8,0.7-1.2c0.3-0.3,0.7-0.6,1.1-0.8c0.5-0.2,1-0.3,1.5-0.3
		c0.5,0,0.9,0.1,1.4,0.3c0.4,0.2,0.8,0.4,1.1,0.7L144.9,34.1z"/>
	<path class="st1" d="M149.6,32.7c0.4,0,0.8,0.1,1.2,0.2c0.4,0.1,0.7,0.3,0.9,0.6c0.3,0.3,0.5,0.6,0.6,1c0.1,0.4,0.2,0.9,0.2,1.4
		c0,0.1,0,0.3-0.1,0.4c-0.1,0.1-0.2,0.1-0.3,0.1h-4.8c0,0.4,0.1,0.8,0.2,1.2c0.1,0.3,0.2,0.6,0.5,0.9c0.2,0.2,0.5,0.4,0.8,0.5
		c0.3,0.1,0.6,0.2,0.9,0.1c0.3,0,0.6,0,0.8-0.1c0.2-0.1,0.4-0.2,0.6-0.3c0.2-0.1,0.3-0.2,0.4-0.3c0.1-0.1,0.2-0.1,0.3-0.1
		c0.1,0,0.2,0.1,0.3,0.1l0.3,0.5c-0.1,0.2-0.3,0.4-0.5,0.5c-0.5,0.3-1,0.5-1.5,0.5c-0.3,0.1-0.5,0.1-0.8,0.1c-0.5,0-1-0.1-1.4-0.3
		c-0.4-0.2-0.8-0.4-1.1-0.8c-0.3-0.4-0.6-0.8-0.7-1.2c-0.2-0.5-0.3-1.1-0.3-1.7c0-0.5,0.1-1,0.3-1.4c0.2-0.4,0.4-0.8,0.7-1.2
		c0.3-0.3,0.7-0.6,1.1-0.8C148.5,32.8,149.1,32.7,149.6,32.7z M149.6,33.6c-0.6,0-1.1,0.2-1.5,0.5c-0.4,0.4-0.6,0.9-0.7,1.5h4.1
		c0-0.3-0.1-0.6-0.1-0.8c-0.1-0.2-0.2-0.5-0.3-0.7c-0.1-0.2-0.4-0.4-0.6-0.4C150.1,33.7,149.8,33.6,149.6,33.6L149.6,33.6z"/>
	<path class="st1" d="M155.6,29.5v10.7h-1.3V29.5H155.6z"/>
	<path class="st1" d="M160.7,32.7c0.4,0,0.8,0.1,1.2,0.2c0.4,0.1,0.7,0.3,1,0.6c0.3,0.3,0.5,0.6,0.6,1c0.1,0.4,0.2,0.9,0.2,1.4
		c0,0.1,0,0.3-0.1,0.4c-0.1,0.1-0.2,0.1-0.3,0.1h-4.9c0,0.4,0.1,0.8,0.2,1.2c0.1,0.3,0.2,0.6,0.5,0.9c0.2,0.2,0.5,0.4,0.8,0.5
		c0.3,0.1,0.6,0.2,0.9,0.1c0.3,0,0.6,0,0.8-0.1c0.2-0.1,0.4-0.2,0.6-0.3c0.2-0.1,0.3-0.2,0.4-0.3c0.1-0.1,0.2-0.1,0.3-0.1
		c0.1,0,0.2,0.1,0.3,0.1l0.3,0.5c-0.2,0.2-0.4,0.4-0.6,0.5c-0.2,0.1-0.5,0.3-0.8,0.3l-0.8,0.2c-0.3,0.1-0.5,0.1-0.8,0.1
		c-0.5,0-1-0.1-1.4-0.3c-0.4-0.2-0.8-0.4-1.1-0.8c-0.3-0.4-0.5-0.8-0.7-1.2c-0.2-0.5-0.3-1.1-0.3-1.7c0-0.5,0.1-1,0.2-1.4
		c0.2-0.4,0.4-0.8,0.7-1.2c0.3-0.3,0.7-0.6,1.1-0.8C159.7,32.8,160.2,32.7,160.7,32.7z M160.7,33.6c-0.6,0-1.1,0.2-1.5,0.5
		c-0.4,0.4-0.6,0.9-0.7,1.5h4c0-0.3-0.1-0.6-0.1-0.8c-0.1-0.2-0.2-0.5-0.3-0.7c-0.1-0.2-0.4-0.4-0.6-0.4
		C161.2,33.7,160.9,33.6,160.7,33.6L160.7,33.6z"/>
	<path class="st1" d="M165.3,40.1v-7.3h0.8c0.1,0,0.2,0,0.3,0.1c0.1,0.1,0.1,0.2,0.1,0.3l0.1,1.2c0.2-0.5,0.5-0.9,0.9-1.2
		c0.4-0.3,0.8-0.4,1.3-0.4c0.2,0,0.4,0,0.5,0.1l0.5,0.2l-0.1,1c0,0.1-0.1,0.2-0.2,0.2c-0.1,0-0.3-0.1-0.4-0.1
		c-0.2-0.1-0.4-0.1-0.6-0.1c-0.4,0-0.8,0.1-1.2,0.4c-0.3,0.3-0.6,0.7-0.7,1.2v4.7L165.3,40.1L165.3,40.1z"/>
	<path class="st1" d="M176.2,40.1h-0.5c-0.1,0-0.2,0-0.3-0.1c-0.1-0.1-0.1-0.2-0.1-0.3l-0.1-0.7c-0.2,0.1-0.3,0.3-0.6,0.5
		c-0.2,0.1-0.4,0.3-0.6,0.3c-0.2,0.1-0.4,0.2-0.6,0.2c-0.2,0.1-0.5,0.1-0.8,0.1c-0.3,0-0.5-0.1-0.8-0.1c-0.2-0.1-0.4-0.2-0.6-0.3
		c-0.2-0.1-0.4-0.4-0.4-0.6c-0.1-0.3-0.2-0.6-0.1-0.9c0-0.3,0.1-0.6,0.3-0.8c0.2-0.3,0.5-0.5,0.7-0.8c0.5-0.2,0.9-0.4,1.4-0.5
		c0.7-0.1,1.4-0.2,2.1-0.2v-0.5c0.1-0.5-0.1-0.9-0.3-1.3c-0.3-0.3-0.7-0.5-1.1-0.5c-0.3,0-0.6,0.1-0.8,0.1c-0.2,0.1-0.4,0.1-0.5,0.3
		l-0.4,0.3c-0.1,0.1-0.2,0.1-0.3,0.1c-0.1,0-0.1,0-0.2-0.1c-0.1-0.1-0.1-0.1-0.1-0.1l-0.2-0.4c0.4-0.4,0.8-0.7,1.3-0.9
		c0.5-0.2,1-0.3,1.6-0.3c0.4,0,0.7,0.1,1.1,0.2c0.3,0.1,0.6,0.3,0.8,0.5c0.2,0.3,0.4,0.6,0.5,0.9c0.1,0.4,0.2,0.8,0.1,1.2v4.7
		L176.2,40.1z M172.8,39.3c0.2,0,0.4,0,0.6-0.1c0.2-0.1,0.3-0.1,0.6-0.2c0.2-0.1,0.3-0.2,0.5-0.3l0.4-0.4v-1.5c-0.5,0-1,0-1.5,0.1
		c-0.3,0.1-0.7,0.1-1,0.3c-0.2,0.1-0.4,0.2-0.6,0.4c-0.1,0.2-0.2,0.3-0.2,0.5c0,0.2,0,0.3,0.1,0.5c0.1,0.1,0.1,0.3,0.3,0.3
		c0.1,0.1,0.3,0.2,0.4,0.2C172.5,39.3,172.7,39.3,172.8,39.3L172.8,39.3z"/>
	<path class="st1" d="M180.3,40.3c-0.5,0-1-0.1-1.3-0.5c-0.3-0.4-0.5-0.9-0.5-1.4v-4.5h-0.9c-0.1,0-0.2,0-0.2-0.1
		c0-0.1-0.1-0.1-0.1-0.2v-0.5l1.2-0.1l0.3-2.2c0-0.1,0.1-0.1,0.1-0.2c0.1,0,0.1-0.1,0.2-0.1h0.7v2.5h2.1v1h-2.1v4.4
		c0,0.2,0.1,0.5,0.2,0.7c0.2,0.2,0.4,0.2,0.6,0.2c0.1,0,0.2,0,0.3-0.1c0.1,0,0.2-0.1,0.3-0.1l0.2-0.1c0.1,0,0.1-0.1,0.1-0.1
		s0.1,0.1,0.2,0.1l0.3,0.6c-0.2,0.2-0.5,0.4-0.8,0.5C181,40.2,180.7,40.3,180.3,40.3z"/>
	<path class="st1" d="M186.4,32.7c0.4,0,0.8,0.1,1.2,0.2c0.4,0.1,0.7,0.3,0.9,0.6c0.3,0.3,0.5,0.6,0.6,1c0.2,0.4,0.2,0.9,0.2,1.4
		c0,0.1,0,0.3-0.1,0.4c-0.1,0.1-0.2,0.1-0.3,0.1h-4.9c0,0.4,0.1,0.8,0.2,1.2c0.1,0.3,0.3,0.6,0.5,0.9c0.2,0.2,0.5,0.4,0.7,0.5
		c0.3,0.2,0.7,0.2,1,0.1c0.3,0,0.6,0,0.8-0.1c0.2-0.1,0.4-0.2,0.6-0.3c0.1-0.1,0.3-0.1,0.4-0.3s0.2-0.1,0.3-0.1
		c0.1,0,0.2,0.1,0.3,0.1l0.3,0.5c-0.1,0.2-0.3,0.4-0.5,0.5c-0.2,0.1-0.4,0.2-0.7,0.3l-0.8,0.2c-0.3,0.1-0.5,0.1-0.8,0.1
		c-0.5,0-1-0.1-1.4-0.3c-0.4-0.2-0.8-0.4-1.1-0.8c-0.3-0.4-0.6-0.8-0.8-1.2c-0.2-0.5-0.3-1.1-0.3-1.7c0-0.5,0.1-1,0.3-1.4
		c0.2-0.4,0.4-0.8,0.7-1.2c0.3-0.3,0.7-0.6,1.1-0.8C185.3,32.8,185.8,32.7,186.4,32.7z M186.4,33.6c-0.6,0-1.1,0.2-1.5,0.5
		c-0.4,0.4-0.6,0.9-0.7,1.5h4c0-0.3-0.1-0.6-0.1-0.8c-0.1-0.2-0.2-0.5-0.3-0.7c-0.1-0.2-0.4-0.4-0.6-0.4
		C186.9,33.7,186.6,33.6,186.4,33.6L186.4,33.6z"/>
	<path class="st1" d="M196.1,40.1c-0.1,0-0.3-0.1-0.3-0.3l-0.1-0.9c-0.3,0.4-0.7,0.7-1.1,0.9c-0.4,0.2-0.9,0.3-1.4,0.3
		c-0.4,0-0.8-0.1-1.2-0.3c-0.4-0.1-0.7-0.4-0.9-0.7c-0.3-0.3-0.5-0.7-0.5-1.2c-0.1-0.5-0.2-1.1-0.2-1.6c0-0.5,0.1-1,0.2-1.5
		c0.1-0.4,0.3-0.9,0.6-1.2c0.3-0.3,0.6-0.6,1-0.8c0.4-0.2,0.9-0.3,1.4-0.3c0.4,0,0.8,0.1,1.2,0.2c0.3,0.1,0.6,0.3,0.8,0.6v-4.1h1.3
		v10.7L196.1,40.1L196.1,40.1z M193.6,39.1c0.4,0,0.8-0.1,1.1-0.3c0.3-0.2,0.6-0.5,0.9-0.8v-3.5c-0.2-0.3-0.4-0.5-0.7-0.7
		c-0.3-0.1-0.6-0.2-0.9-0.2c-0.6,0-1.2,0.2-1.6,0.7c-0.4,0.6-0.6,1.4-0.5,2.1c0,0.4,0.1,0.8,0.1,1.2c0.1,0.3,0.2,0.6,0.3,0.8
		c0.2,0.2,0.4,0.4,0.6,0.5C193.1,39.1,193.4,39.2,193.6,39.1L193.6,39.1z"/>
	<path class="st1" d="M198.6,39.3c0-0.1,0-0.2,0.1-0.3c0.1-0.1,0.1-0.2,0.2-0.3c0.1-0.1,0.2-0.1,0.3-0.2c0.1-0.1,0.2-0.1,0.3-0.1
		c0.1,0,0.2,0,0.3,0.1c0.1,0.1,0.2,0.1,0.3,0.2c0.1,0.1,0.1,0.2,0.2,0.3c0.1,0.2,0.1,0.5,0,0.7c0,0.1-0.1,0.2-0.2,0.3
		c-0.1,0.1-0.2,0.1-0.3,0.2c-0.1,0.1-0.2,0.1-0.3,0.1c-0.1,0-0.3,0-0.3-0.1c-0.1-0.1-0.2-0.1-0.3-0.2c-0.1-0.1-0.1-0.2-0.2-0.3
		C198.6,39.6,198.5,39.4,198.6,39.3z"/>
</g>
</svg>
