<svg width="198" height="51" viewBox="0 0 198 51" fill="none" xmlns="http://www.w3.org/2000/svg">
<path d="M68.8559 23.8687V36.6455H63.7168V14.8398H68.6287V18.5451H68.8843C69.3859 17.3242 70.1856 16.3541 71.2835 15.6348C72.3908 14.9155 73.7584 14.5559 75.3862 14.5559C76.891 14.5559 78.2018 14.8777 79.3186 15.5213C80.4449 16.1648 81.3156 17.0971 81.9307 18.3179C82.5554 19.5388 82.863 21.02 82.8535 22.7614V36.6455H77.7144V23.5564C77.7144 22.0989 77.3359 20.9585 76.5787 20.1351C75.831 19.3117 74.7947 18.9 73.4697 18.9C72.5706 18.9 71.7709 19.0987 71.0705 19.4962C70.3796 19.8843 69.8354 20.4474 69.4379 21.1856C69.0499 21.9238 68.8559 22.8182 68.8559 23.8687Z" fill="#222222"/>
<path d="M94.3526 37.0856C92.9708 37.0856 91.7262 36.8395 90.6189 36.3473C89.5211 35.8457 88.6504 35.1075 88.0068 34.1327C87.3727 33.1579 87.0556 31.9559 87.0556 30.5268C87.0556 29.2965 87.2828 28.2791 87.7371 27.4746C88.1913 26.6701 88.8113 26.0266 89.5968 25.5439C90.3823 25.0612 91.2672 24.6968 92.2515 24.4508C93.2453 24.1952 94.2721 24.0107 95.3321 23.8971C96.6098 23.7646 97.6461 23.6463 98.4411 23.5422C99.2361 23.4286 99.8134 23.2583 100.173 23.0311C100.542 22.7945 100.727 22.4302 100.727 21.938V21.8528C100.727 20.7834 100.41 19.9553 99.7756 19.3685C99.1415 18.7817 98.2282 18.4883 97.0357 18.4883C95.7769 18.4883 94.7785 18.7628 94.0403 19.3117C93.3115 19.8606 92.8194 20.5089 92.5638 21.2566L87.7655 20.5752C88.144 19.2502 88.7687 18.1429 89.6394 17.2532C90.5101 16.3541 91.5748 15.6822 92.8336 15.2373C94.0923 14.783 95.4835 14.5559 97.0073 14.5559C98.0578 14.5559 99.1036 14.6789 100.145 14.925C101.186 15.1711 102.137 15.578 102.998 16.1459C103.859 16.7043 104.55 17.4662 105.071 18.4315C105.601 19.3969 105.866 20.6036 105.866 22.0516V36.6455H100.925V33.65H100.755C100.443 34.2557 100.003 34.8236 99.4349 35.3536C98.8765 35.8741 98.1714 36.2953 97.3196 36.6171C96.4773 36.9294 95.4883 37.0856 94.3526 37.0856ZM95.687 33.3093C96.7186 33.3093 97.613 33.1058 98.3701 32.6989C99.1273 32.2824 99.7093 31.7335 100.116 31.0521C100.533 30.3707 100.741 29.6277 100.741 28.8233V26.2537C100.58 26.3862 100.306 26.5093 99.9176 26.6228C99.539 26.7364 99.1131 26.8358 98.6399 26.9209C98.1667 27.0061 97.6982 27.0818 97.2344 27.1481C96.7707 27.2143 96.3685 27.2711 96.0277 27.3184C95.2611 27.4226 94.575 27.5929 93.9693 27.8295C93.3636 28.0661 92.8856 28.3974 92.5354 28.8233C92.1853 29.2397 92.0102 29.7792 92.0102 30.4417C92.0102 31.3881 92.3556 32.1026 93.0465 32.5853C93.7374 33.068 94.6176 33.3093 95.687 33.3093Z" fill="#222222"/>
<path d="M120.545 37.0714C118.368 37.0714 116.499 36.5934 114.937 35.6375C113.385 34.6816 112.188 33.3614 111.346 31.6767C110.513 29.9826 110.096 28.033 110.096 25.8278C110.096 23.6132 110.522 21.6588 111.374 19.9647C112.226 18.2612 113.428 16.9362 114.98 15.9897C116.542 15.0339 118.387 14.5559 120.516 14.5559C122.286 14.5559 123.853 14.8824 125.215 15.5355C126.588 16.179 127.681 17.0923 128.495 18.2754C129.309 19.4489 129.773 20.8212 129.886 22.3923H124.974C124.775 21.3418 124.302 20.4663 123.555 19.766C122.816 19.0562 121.827 18.7012 120.587 18.7012C119.537 18.7012 118.614 18.9852 117.819 19.553C117.024 20.1114 116.404 20.9159 115.959 21.9664C115.524 23.0169 115.306 24.2757 115.306 25.7426C115.306 27.2285 115.524 28.5062 115.959 29.5757C116.395 30.6357 117.005 31.4543 117.791 32.0316C118.586 32.5995 119.518 32.8834 120.587 32.8834C121.345 32.8834 122.021 32.7415 122.618 32.4575C123.223 32.1641 123.73 31.743 124.137 31.1941C124.544 30.6451 124.823 29.9779 124.974 29.1924H129.886C129.763 30.735 129.309 32.1026 128.523 33.2951C127.738 34.4782 126.668 35.4056 125.315 36.0776C123.961 36.7401 122.371 37.0714 120.545 37.0714Z" fill="#222222"/>
<path d="M143.76 37.0714C141.573 37.0714 139.685 36.6171 138.095 35.7085C136.515 34.7905 135.298 33.4939 134.447 31.8187C133.595 30.1341 133.169 28.1513 133.169 25.8704C133.169 23.6274 133.595 21.6588 134.447 19.9647C135.308 18.2612 136.51 16.9362 138.053 15.9897C139.595 15.0339 141.408 14.5559 143.49 14.5559C144.834 14.5559 146.102 14.7736 147.294 15.2089C148.496 15.6348 149.556 16.2973 150.474 17.1964C151.402 18.0955 152.131 19.2407 152.661 20.632C153.191 22.0137 153.456 23.6605 153.456 25.5723V27.1481H135.582V23.6842H148.529C148.52 22.6999 148.307 21.8244 147.891 21.0578C147.474 20.2818 146.892 19.6713 146.144 19.2265C145.406 18.7817 144.545 18.5593 143.561 18.5593C142.51 18.5593 141.587 18.8148 140.792 19.3259C139.997 19.8275 139.378 20.49 138.933 21.3134C138.497 22.1273 138.275 23.0217 138.266 23.9965V27.0203C138.266 28.2885 138.497 29.3769 138.961 30.2855C139.425 31.1846 140.073 31.8755 140.906 32.3582C141.739 32.8314 142.714 33.068 143.83 33.068C144.578 33.068 145.255 32.9639 145.861 32.7557C146.466 32.538 146.992 32.2209 147.436 31.8045C147.881 31.3881 148.217 30.8723 148.444 30.2571L153.243 30.7966C152.94 32.0648 152.363 33.1721 151.511 34.1185C150.668 35.0555 149.589 35.7842 148.274 36.3048C146.958 36.8158 145.454 37.0714 143.76 37.0714Z" fill="#222222"/>
<path d="M162.942 7.57129V36.6455H157.803V7.57129H162.942Z" fill="#222222"/>
<path d="M173.366 7.57129V36.6455H168.227V7.57129H173.366Z" fill="#222222"/>
<path d="M188.304 37.0714C186.118 37.0714 184.23 36.6171 182.64 35.7085C181.059 34.7905 179.843 33.4939 178.991 31.8187C178.14 30.1341 177.714 28.1513 177.714 25.8704C177.714 23.6274 178.14 21.6588 178.991 19.9647C179.853 18.2612 181.055 16.9362 182.597 15.9897C184.14 15.0339 185.952 14.5559 188.034 14.5559C189.378 14.5559 190.647 14.7736 191.839 15.2089C193.041 15.6348 194.101 16.2973 195.019 17.1964C195.947 18.0955 196.675 19.2407 197.205 20.632C197.735 22.0137 198 23.6605 198 25.5723V27.1481H180.127V23.6842H193.074C193.065 22.6999 192.852 21.8244 192.435 21.0578C192.019 20.2818 191.437 19.6713 190.689 19.2265C189.951 18.7817 189.09 18.5593 188.105 18.5593C187.055 18.5593 186.132 18.8148 185.337 19.3259C184.542 19.8275 183.922 20.49 183.477 21.3134C183.042 22.1273 182.82 23.0217 182.81 23.9965V27.0203C182.81 28.2885 183.042 29.3769 183.506 30.2855C183.97 31.1846 184.618 31.8755 185.451 32.3582C186.284 32.8314 187.258 33.068 188.375 33.068C189.123 33.068 189.8 32.9639 190.405 32.7557C191.011 32.538 191.536 32.2209 191.981 31.8045C192.426 31.3881 192.762 30.8723 192.989 30.2571L197.787 30.7966C197.485 32.0648 196.907 33.1721 196.055 34.1185C195.213 35.0555 194.134 35.7842 192.819 36.3048C191.503 36.8158 189.998 37.0714 188.304 37.0714Z" fill="#222222"/>
<path fill-rule="evenodd" clip-rule="evenodd" d="M11.2176 4.24805C5.08397 8.33483 0.842349 15.0272 0.0732422 22.7364L7.51051 18.4501C9.29868 13.7455 12.8789 9.92734 17.4204 7.81679L11.2176 4.24805Z" fill="#5029F1"/>
<path fill-rule="evenodd" clip-rule="evenodd" d="M10.4752 37.2722C7.84104 33.9797 6.26053 29.8124 6.26053 25.2728C6.26053 24.5821 6.29898 23.899 6.37205 23.2236L0 26.8921C0.496074 34.6628 4.51466 41.4741 10.4752 45.7681V37.2722Z" fill="#A40DCE"/>
<path fill-rule="evenodd" clip-rule="evenodd" d="M28.657 44.2562C27.6418 44.4212 26.6035 44.5095 25.5422 44.5095C21.2352 44.5095 17.255 43.0974 14.0479 40.7144V47.9094C17.4281 49.5786 21.2352 50.5226 25.2653 50.5226C28.9762 50.5226 32.4987 49.7245 35.6751 48.2931L28.6609 44.2524L28.657 44.2562Z" fill="#A40DCE"/>
<path fill-rule="evenodd" clip-rule="evenodd" d="M43.728 31.6619C41.9629 36.6619 38.1866 40.7142 33.3643 42.8516L39.3095 46.2784C45.4431 42.1877 49.6847 35.4954 50.4538 27.7861L43.728 31.6619V31.6619Z" fill="#00D085"/>
<path fill-rule="evenodd" clip-rule="evenodd" d="M50.526 23.6304C50.0299 15.8636 46.0113 9.04847 40.0469 4.7583V12.6057C43.0156 15.9902 44.8192 20.4186 44.8192 25.269C44.8192 25.8407 44.7884 26.4048 44.7423 26.9612L50.526 23.6304V23.6304Z" fill="#00D085"/>
<path fill-rule="evenodd" clip-rule="evenodd" d="M25.2615 0C21.5505 0 18.028 0.79817 14.8555 2.2295L22.0197 6.3585C23.1618 6.14745 24.3386 6.03232 25.5422 6.03232C29.6069 6.03232 33.3717 7.29098 36.4789 9.43222V2.61324C33.0987 0.940152 29.2916 0 25.2615 0Z" fill="#5029F1"/>
</svg>
