<svg width="183" height="47" viewBox="0 0 183 47" fill="none" xmlns="http://www.w3.org/2000/svg">
<g clip-path="url(#clip0_9843_33714)">
<path d="M36.5808 34.0449C35.2847 32.9008 34.6373 31.382 34.6387 29.4883H38.8586C38.8586 30.2851 39.1202 30.9265 39.6434 31.4125C40.1666 31.8986 40.8638 32.1412 41.7349 32.1406H45.0605C45.9064 32.1406 46.572 31.9972 47.0574 31.7103C47.5427 31.4235 47.7858 31.0314 47.7864 30.5341V29.7124C47.7862 29.5404 47.7474 29.3705 47.6729 29.2154C47.5985 29.0603 47.4902 28.9239 47.3562 28.816C47.07 28.5671 46.6779 28.3928 46.1799 28.2932L39.7181 27.1727C38.2739 26.9237 37.1286 26.3945 36.282 25.5851C35.4354 24.7757 35.0112 23.8355 35.0092 22.7646V21.5325C35.0092 19.9888 35.6253 18.7684 36.8577 17.8714C38.09 16.9743 39.7898 16.5265 41.957 16.5278H44.9449C46.9123 16.5278 48.5058 17.063 49.7256 18.1333C50.9453 19.2036 51.5552 20.6106 51.5552 22.3542H47.3382C47.3382 21.6809 47.1201 21.1471 46.6839 20.7477C46.2477 20.3483 45.669 20.1501 44.9469 20.1501H41.9959C41.1254 20.1501 40.4535 20.2869 39.98 20.5605C39.5066 20.834 39.2696 21.2198 39.2689 21.7178V22.4658C39.2686 22.638 39.3072 22.8081 39.3819 22.9634C39.4565 23.1186 39.5654 23.2549 39.7002 23.3621C40.0257 23.6289 40.4207 23.7971 40.8386 23.8472L47.5245 25.0423C48.8929 25.3152 49.9885 25.8378 50.8112 26.61C51.6338 27.3822 52.0435 28.2918 52.0402 29.3389V30.7213C52.0402 32.2657 51.4054 33.4921 50.1359 34.4004C48.8664 35.3087 47.1732 35.7632 45.0565 35.7639H41.7349C39.5936 35.7639 37.8756 35.1909 36.5808 34.0449Z" fill="#000228"/>
<path d="M56.096 33.7839C54.7143 32.4633 54.0234 30.7203 54.0234 28.5551V23.8482C54.0234 22.404 54.3345 21.1278 54.9567 20.0197C55.5709 18.9206 56.4927 18.0247 57.6089 17.4421C58.7529 16.8339 60.0729 16.5291 61.5689 16.5278H64.5568C66.6981 16.5278 68.4228 17.144 69.7308 18.3763C71.0388 19.6087 71.6925 21.2334 71.6919 23.2506H67.47C67.47 22.3529 67.2021 21.6245 66.6662 21.0654C66.1304 20.5064 65.4269 20.2262 64.5558 20.2248H61.6017C60.631 20.2248 59.8405 20.586 59.2303 21.3085C58.6201 22.0309 58.3151 22.9644 58.3151 24.1091V28.2922C58.3151 29.413 58.6201 30.3216 59.2303 31.0181C59.8405 31.7146 60.6436 32.0632 61.6396 32.0639H64.5896C65.5099 32.0639 66.2506 31.7279 66.8116 31.056C67.3727 30.384 67.6529 29.5126 67.6522 28.4416H71.8731C71.8731 30.6327 71.2072 32.4005 69.8752 33.7451C68.5433 35.0896 66.7814 35.7626 64.5896 35.7639H61.6017C59.3123 35.7639 57.4761 35.1039 56.0931 33.7839" fill="#000228"/>
<path d="M75.5934 34.3247C74.4361 33.3666 73.8574 32.0904 73.8574 30.4962V29.1557C73.8574 27.586 74.461 26.3281 75.6681 25.382C76.8752 24.4358 78.4628 23.9627 80.4308 23.9627H82.7454C83.5018 23.9704 84.2544 24.0708 84.9864 24.2615C85.7244 24.4385 86.4391 24.7016 87.1157 25.0453V22.7267C87.1157 21.9558 86.8667 21.3337 86.3688 20.8603C85.8708 20.3869 85.2234 20.1501 84.4266 20.1501H81.2903C80.4677 20.1501 79.8077 20.3434 79.3103 20.7298C79.0731 20.9031 78.8813 21.1312 78.7513 21.3946C78.6212 21.658 78.5567 21.949 78.5634 22.2427H74.3803C74.3803 20.525 75.0151 19.1429 76.2846 18.0965C77.5541 17.05 79.223 16.5268 81.2913 16.5268H84.4276C86.5198 16.5268 88.201 17.0935 89.4712 18.2269C90.7414 19.3603 91.3761 20.8603 91.3755 22.7267V35.4651H87.3777V33.1116C86.7793 33.9075 86.0141 34.5629 85.1357 35.0319C84.24 35.5172 83.3566 35.7599 82.4855 35.7599H80.1689C78.2759 35.7599 76.7507 35.2805 75.5934 34.3217V34.3247ZM82.7454 32.3985C83.708 32.4096 84.6493 32.1157 85.4345 31.5589C86.2183 31.0169 86.8076 30.2377 87.1157 29.3359V28.4396C86.6928 28.091 86.0952 27.8108 85.323 27.599C84.5314 27.3854 83.7147 27.2789 82.8948 27.2823H80.5423C79.7954 27.2823 79.1915 27.4688 78.7307 27.842C78.5082 28.0136 78.3293 28.2352 78.2085 28.4889C78.0877 28.7426 78.0284 29.0212 78.0355 29.3021V30.3508C78.0263 30.6384 78.0859 30.924 78.2094 31.1839C78.333 31.4438 78.5168 31.6703 78.7456 31.8448C79.219 32.2186 79.8415 32.4052 80.6131 32.4045L82.7454 32.3985Z" fill="#000228"/>
<path d="M95.1267 34.1355C94.1685 33.2524 93.6891 31.8518 93.6885 29.9335V9.31701H97.9841V29.7533C97.9841 30.4763 98.1335 30.9913 98.4323 31.303C98.7311 31.6147 99.229 31.7701 99.9262 31.7701H101.719V35.4681H99.7031C97.6109 35.4681 96.0854 35.0259 95.1267 34.1415" fill="#000228"/>
<path d="M106.369 34.9044C105.256 34.3722 104.322 33.5287 103.68 32.4762C103.045 31.4305 102.727 30.2227 102.727 28.8529V23.8482C102.727 22.404 103.044 21.1279 103.68 20.0197C104.308 18.9187 105.242 18.0234 106.369 17.4421C107.527 16.8339 108.866 16.5291 110.386 16.5278H113.373C115.638 16.5278 117.456 17.1878 118.826 18.5078C120.197 19.8278 120.881 21.5843 120.88 23.7775V27.5113H107.022V28.8569C107.022 29.8529 107.327 30.6496 107.936 31.2472C108.548 31.8448 109.362 32.1436 110.386 32.1436H113.26C114.256 32.1436 115.059 31.9009 115.669 31.4155C115.963 31.1904 116.2 30.8985 116.359 30.5639C116.519 30.2294 116.596 29.8617 116.585 29.4913H120.805C120.805 31.3837 120.108 32.9025 118.714 34.0479C117.319 35.1932 115.489 35.7663 113.223 35.7669H110.386C108.866 35.7669 107.527 35.4804 106.369 34.9074V34.9044ZM116.659 24.2964V23.7775C116.659 22.6812 116.36 21.7971 115.763 21.1252C115.165 20.4533 114.381 20.1169 113.409 20.1163H110.386C109.362 20.1163 108.532 20.4708 107.896 21.18C107.26 21.8891 106.942 22.8187 106.943 23.9687V24.3043L116.659 24.2964Z" fill="#000228"/>
<path d="M125.324 20.5236H122.111V16.8266H125.324V15.5189C125.324 13.5011 125.928 11.9387 127.136 10.8319C128.344 9.72503 130.043 9.17094 132.234 9.16961H134.513V12.8298H132.309C131.389 12.8298 130.707 13.0489 130.273 13.4841C129.839 13.9194 129.62 14.6106 129.62 15.5567V16.8266H134.102V20.5236H129.62V35.4631H125.324V20.5236Z" fill="#000228"/>
<path d="M137.724 34.1873C136.766 33.3035 136.286 31.9029 136.285 29.9853V9.3688H140.582V29.7991C140.582 30.5221 140.731 31.0387 141.029 31.3488C141.327 31.6589 141.825 31.8146 142.523 31.8159H144.316V35.5139H142.3C140.206 35.5139 138.681 35.0717 137.724 34.1873Z" fill="#000228"/>
<path d="M149.243 34.7875C148.131 34.255 147.197 33.4116 146.554 32.3593C145.919 31.3129 145.601 30.1051 145.601 28.736V23.7303C145.601 22.2875 145.918 21.0113 146.554 19.9018C147.182 18.8011 148.116 17.9061 149.243 17.3252C150.401 16.7157 151.739 16.4106 153.259 16.4099H156.246C158.511 16.4099 160.329 17.0699 161.699 18.3899C163.07 19.7099 163.755 21.4655 163.754 23.6566V27.3954H149.896V28.74C149.896 29.736 150.201 30.5327 150.81 31.1303C151.422 31.7279 152.236 32.0267 153.259 32.0267H156.134C157.13 32.0267 157.933 31.784 158.543 31.2986C158.837 31.0735 159.074 30.7816 159.233 30.447C159.393 30.1125 159.47 29.7448 159.459 29.3744H163.679C163.679 31.2668 162.982 32.786 161.588 33.932C160.193 35.078 158.363 35.6494 156.097 35.646H153.259C151.74 35.646 150.401 35.3599 149.243 34.7875V34.7875ZM159.533 24.1795V23.6566C159.533 22.5597 159.234 21.6756 158.637 21.0043C158.039 20.333 157.255 19.9967 156.284 19.9954H153.259C152.236 19.9954 151.408 20.3503 150.775 21.0601C150.141 21.7699 149.824 22.6975 149.822 23.8428V24.1795H159.533Z" fill="#000228"/>
<path d="M170.611 26.0263L163.813 16.8754H168.594L173.076 22.8881L177.558 16.8754H182.339L175.542 26.0263L182.601 35.5139H177.782L173.076 29.1636L168.371 35.5139H163.553L170.611 26.0263Z" fill="#000228"/>
<path fill-rule="evenodd" clip-rule="evenodd" d="M0.601562 12.4712C0.601562 9.50824 3.457 7.49141 6.55147 6.16976H6.56939C7.64603 5.79328 8.6161 5.42079 9.60012 5.07419C10.5662 4.73955 11.5074 4.44474 12.2285 4.22862C15.5948 3.21871 17.768 2.51057 23.218 0.802491C23.218 0.747712 23.218 0.856273 23.218 0.856273V6.1847C23.2158 7.28397 22.8611 8.35356 22.2061 9.23634C21.0378 10.8707 19.008 12.0629 16.9205 12.9304C15.1148 13.6813 13.2693 14.1893 11.9038 14.5239C11.2967 14.6766 10.6982 14.8617 10.111 15.0787C9.09717 15.4553 8.11641 15.9157 7.17893 16.4551C6.72543 16.7134 6.27193 16.9933 5.81844 17.2947C4.08479 18.448 2.34981 19.9065 0.613514 21.67C0.613514 19.7617 0.75295 17.8624 0.75295 15.9541C0.75295 14.3945 0.653352 14.3317 0.613514 13.3158C0.605546 13.0927 0.601562 12.8218 0.601562 12.4712Z" fill="url(#paint0_linear_9843_33714)"/>
<path fill-rule="evenodd" clip-rule="evenodd" d="M0.753713 15.9581C0.753713 14.3984 0.654117 14.3357 0.614278 13.3198C0.694952 13.3427 0.771641 13.3666 0.852314 13.3975C4.92084 14.9382 16.9203 12.9284 16.9203 12.9284C15.1146 13.6793 13.269 14.1873 11.9036 14.5219C11.2965 14.6746 10.698 14.8597 10.1108 15.0767C9.09694 15.4533 8.11618 15.9137 7.1787 16.4531C4.99155 17.704 2.80308 19.4423 0.613281 21.668C0.614277 19.7657 0.753713 17.8664 0.753713 15.9581Z" fill="#EB2B66"/>
<path fill-rule="evenodd" clip-rule="evenodd" d="M0.601562 12.5459C0.601562 9.58293 3.3823 7.5661 6.47777 6.24445H6.4957C7.48486 5.82339 8.49666 5.45764 9.52643 5.14889C9.52643 5.14889 2.8644 12.7939 5.81047 17.3564C4.07749 18.5098 2.37538 20.0535 0.637417 21.8214C0.637417 19.9131 0.680245 17.9371 0.680245 16.0318C0.680245 14.4721 0.651361 14.4094 0.615506 13.3935C0.605546 13.1674 0.601562 12.8935 0.601562 12.5459Z" fill="#EB2B66"/>
<path fill-rule="evenodd" clip-rule="evenodd" d="M5.11153 13.9732C3.43233 13.9433 1.93638 13.7799 0.928466 13.3975C0.847792 13.3666 0.771103 13.3427 0.69043 13.3198C0.726284 14.3357 0.829866 14.3984 0.829866 15.9581C0.829866 17.8654 0.69043 19.7657 0.69043 21.673C0.790026 21.5734 0.896595 21.4658 0.99918 21.3642C2.47039 19.877 4.0817 18.5351 5.8107 17.3575C5.16033 16.3426 4.98803 15.1753 5.11153 13.9732Z" fill="#DC1476"/>
<path fill-rule="evenodd" clip-rule="evenodd" d="M0.601562 12.4712C0.601562 12.4712 3.65918 15.5438 7.17993 16.4551C4.99278 17.706 2.80431 19.4443 0.614511 21.67C0.614511 19.7617 0.753945 17.8624 0.753945 15.9541C0.753945 14.0459 0.601562 14.3825 0.601562 12.4712Z" fill="#B40A6A"/>
<path fill-rule="evenodd" clip-rule="evenodd" d="M10.1104 15.0827C18.1528 10.4763 18.2584 6.68169 23.2163 0.857269V6.18569C23.2163 11.3458 15.6808 13.5897 11.9041 14.5279C11.2967 14.6805 10.6979 14.8657 10.1104 15.0827V15.0827Z" fill="#FFC158"/>
<path d="M16.9207 12.9284C16.9207 12.9284 15.0782 13.2371 12.5923 13.52C11.8572 14.0329 11.0386 14.5528 10.1123 15.0827C10.6995 14.8657 11.2979 14.6805 11.905 14.5279C13.2655 14.1893 15.114 13.6823 16.9217 12.9344L16.9207 12.9284Z" fill="#F48166"/>
<path fill-rule="evenodd" clip-rule="evenodd" d="M6.57129 6.16378C12.9355 3.80235 14.9424 3.50754 23.2159 0.785561C23.2159 1.47178 23.2159 6.11399 23.2159 6.11399C23.2263 7.23637 22.8727 8.3319 22.208 9.23634C21.0566 7.01932 18.4094 5.65086 12.7881 5.5672C9.25542 5.51441 6.57129 6.16378 6.57129 6.16378Z" fill="#FFC158"/>
<path fill-rule="evenodd" clip-rule="evenodd" d="M23.216 0.857269C21.4033 2.98665 20.239 4.84114 19.0986 6.57113C20.6504 7.20158 21.6224 8.10791 22.208 9.23634C22.44 8.91245 22.6376 8.56531 22.7977 8.20054C22.7977 8.19157 22.8046 8.1836 22.8086 8.17464L22.8475 8.07504C23.0095 7.66381 23.1209 7.23438 23.1791 6.79622C23.1841 6.7524 23.1901 6.70858 23.1941 6.66376C23.209 6.50839 23.216 6.35003 23.216 6.18968V0.857269Z" fill="#FFDE70"/>
<path fill-rule="evenodd" clip-rule="evenodd" d="M23.2169 34.3048C23.2169 37.2678 20.3605 39.2847 17.266 40.6063H17.2521L17.2342 40.6123L16.7979 40.7776L16.4653 40.9081C15.9055 41.1262 15.4504 41.3065 14.9654 41.4857L14.551 41.6302H14.5421H14.5321H14.5241L14.2403 41.7228C13.5342 41.9459 12.9127 42.1441 12.3201 42.3343L11.9356 42.4578L11.7364 42.5215C10.7405 42.8412 9.80924 43.1341 8.83618 43.4388L8.71169 43.4777C6.60422 44.136 4.27266 44.8541 0.603522 46.0214V40.5834C0.601976 39.6228 0.874215 38.6818 1.38834 37.8704C1.41025 37.8345 1.43316 37.7997 1.45706 37.7628L1.53375 37.6503C1.56065 37.6114 1.58555 37.5726 1.61343 37.5337C2.7807 35.8994 4.81148 34.7072 6.89902 33.8387C8.70471 33.0878 10.5502 32.5798 11.9157 32.2452C12.5228 32.0926 13.1213 31.9074 13.7084 31.6904C14.7227 31.3138 15.7037 30.8534 16.6416 30.314C17.0947 30.056 17.5489 29.7742 18.0011 29.4734C19.7347 28.3201 21.4697 26.862 23.206 25.0991C23.206 27.0074 23.0675 28.9067 23.0675 30.815C23.0675 32.3746 23.1671 32.4374 23.206 33.4533C23.212 33.6833 23.2169 33.9562 23.2169 34.3048Z" fill="url(#paint1_linear_9843_33714)"/>
<path fill-rule="evenodd" clip-rule="evenodd" d="M23.065 30.8179C23.065 32.3776 23.1646 32.4404 23.2044 33.4562C23.1227 33.4333 23.047 33.4094 22.9664 33.3786C18.8978 31.8378 6.89844 33.8477 6.89844 33.8477C8.70313 33.0967 10.5497 32.5888 11.9141 32.2541C12.5213 32.1018 13.1198 31.9166 13.7069 31.6994C14.721 31.3225 15.7021 30.8621 16.64 30.3229C18.8265 29.072 21.0149 27.3337 23.2054 25.1081C23.2044 27.0104 23.065 28.9097 23.065 30.8179Z" fill="#1949B1"/>
<path fill-rule="evenodd" clip-rule="evenodd" d="M23.2171 34.3048C23.2171 37.2678 20.3607 39.2847 17.2672 40.6063C17.2672 40.6063 15.8091 41.185 14.5293 41.6362C14.5293 41.6362 20.9453 34.0389 17.9992 29.4774C19.7322 28.324 21.4672 26.8656 23.2042 25.1021C23.2042 27.0104 23.0647 28.9097 23.0647 30.8179C23.0647 32.3776 23.1643 32.4404 23.2042 33.4563C23.2131 33.6833 23.2171 33.9572 23.2171 34.3048Z" fill="#1848B2"/>
<path fill-rule="evenodd" clip-rule="evenodd" d="M22.8315 25.4756L22.704 25.6011L22.46 25.8411L22.3116 25.9835L22.0805 26.2026L21.9311 26.3431C21.8315 26.4307 21.7429 26.5174 21.6483 26.603L21.4202 26.8082C21.3534 26.8689 21.2867 26.9287 21.221 26.9875C21.1552 27.0462 21.0885 27.104 21.0218 27.1608L20.8575 27.3032C20.7877 27.3629 20.718 27.4227 20.6473 27.4815L20.5009 27.604C20.4262 27.6657 20.3525 27.7285 20.2778 27.7892L20.2589 27.8041C20.0829 27.9476 19.9073 28.088 19.732 28.2254L19.5956 28.331L19.3814 28.4943L19.2221 28.6149L19.0229 28.7613L18.8157 28.9117L18.6633 29.0212C18.5385 29.1109 18.4153 29.1962 18.2938 29.2772L18.2341 29.318L17.999 29.4774C18.6444 30.4733 18.8406 31.6227 18.753 32.8019C20.4461 32.8308 21.951 32.9941 22.9659 33.3786C23.0466 33.4094 23.1223 33.4333 23.204 33.4562C23.1671 32.4404 23.0645 32.3776 23.0645 30.8179C23.0645 28.9097 23.204 27.0104 23.204 25.1021C23.0798 25.2289 22.9556 25.3534 22.8315 25.4756Z" fill="#2F2E7B"/>
<path fill-rule="evenodd" clip-rule="evenodd" d="M23.217 34.3048C23.217 34.3048 20.1594 31.2323 16.6387 30.321C18.8251 29.07 21.0136 27.3317 23.2041 25.1061C23.2041 27.0144 23.0646 28.9137 23.0646 30.8219C23.0646 32.7302 23.217 32.3936 23.217 34.3048Z" fill="#292361"/>
<path fill-rule="evenodd" clip-rule="evenodd" d="M23.217 34.3048C23.217 34.3048 20.1594 31.2323 16.6387 30.321C18.8251 29.07 21.0136 27.3317 23.2041 25.1061C23.2041 27.0144 23.0646 28.9137 23.0646 30.8219C23.0646 32.7302 23.217 32.3936 23.217 34.3048Z" fill="#292361"/>
<path fill-rule="evenodd" clip-rule="evenodd" d="M13.7055 31.6934C7.38308 35.4173 0.602539 46.0294 0.602539 46.0294V40.5904C0.602539 35.4303 8.13703 33.1864 11.9137 32.2482C12.5206 32.0958 13.1187 31.9106 13.7055 31.6934Z" fill="#50CEFB"/>
<path fill-rule="evenodd" clip-rule="evenodd" d="M6.89846 33.8477C6.89846 33.8477 8.89039 33.514 11.5207 33.2232C12.2118 32.662 12.9421 32.1508 13.7059 31.6934C13.1188 31.9106 12.5203 32.0958 11.9131 32.2482C10.5527 32.5868 8.70514 33.0937 6.89746 33.8417L6.89846 33.8477Z" fill="#3B9AE0"/>
<path fill-rule="evenodd" clip-rule="evenodd" d="M23.2175 24.4617V33.8467C21.9735 31.2363 16.2019 28.8489 13.1582 28.2404V18.8175C14.4062 19.0386 15.9469 19.3275 17.4409 19.7508C19.0025 20.2199 20.5393 20.8364 21.5632 21.5614L21.5811 21.5754C21.8594 21.7672 22.113 21.9927 22.336 22.2467C22.4005 22.3217 22.4603 22.4005 22.5153 22.4827C22.7902 22.893 22.9964 23.1938 23.1129 23.5942C23.1189 23.6151 23.1249 23.636 23.1298 23.657C23.1428 23.7077 23.1547 23.7565 23.1647 23.8103L23.1737 23.8591C23.205 24.0584 23.2197 24.26 23.2175 24.4617V24.4617Z" fill="#22C1C0"/>
<path d="M23.2175 24.4617V33.8467C23.2175 25.5174 13.1582 18.8175 13.1582 18.8175C14.4061 19.0386 15.9469 19.3275 17.4409 19.7508C18.9846 20.188 20.4806 20.7667 21.5632 21.5614L21.5811 21.5754C21.8539 21.7741 22.1068 21.9989 22.336 22.2467C22.696 22.6273 22.9609 23.0877 23.1089 23.5902C23.1149 23.6111 23.1209 23.6321 23.1258 23.653C23.1388 23.7038 23.1507 23.7526 23.1607 23.8063L23.1697 23.8551C23.206 24.0552 23.222 24.2584 23.2175 24.4617V24.4617Z" fill="#68DBC3"/>
<path d="M23.2174 24.4617V33.8477C21.9734 31.2362 16.2028 28.8499 13.1631 28.2404C13.1631 28.2404 22.4256 26.5223 22.5162 22.4449C22.9584 23.1022 23.2174 23.5115 23.2174 24.4617Z" fill="#68DBC3"/>
<path d="M23.2119 24.2376C23.1724 23.5819 22.9286 22.955 22.5147 22.4449C22.4152 23.7675 21.467 24.8292 20.2041 25.6648C21.8913 28.0163 23.2159 30.8239 23.2159 33.8477V24.4617C23.2169 24.386 23.2149 24.3113 23.2119 24.2376Z" fill="#A9F0C2"/>
<path fill-rule="evenodd" clip-rule="evenodd" d="M14.5511 41.6292H14.5422H14.5322H14.5243L14.2404 41.7218C13.6149 41.921 12.9715 42.1262 12.3202 42.3333L11.9357 42.4568L8.83629 43.4378L8.71179 43.4767C4.38432 44.8432 0.603624 46.0244 0.603624 46.0244V40.4181C0.603624 40.4181 0.539882 39.2229 1.38944 37.8784C1.41135 37.8425 1.43426 37.8076 1.45816 37.7708C1.50796 37.6961 1.55776 37.6214 1.61652 37.5457C2.76587 40.4221 7.49273 41.8413 15.084 40.926L15.4396 40.8822C15.7383 40.8433 16.0501 40.7995 16.3638 40.7537C16.4754 40.7378 16.5869 40.7198 16.7004 40.7019C16.8777 40.6754 17.0553 40.6468 17.2333 40.6163H17.2512H17.2462C17.0779 40.678 16.9295 40.7318 16.7971 40.7816L16.4654 40.9081" fill="#65E3FD"/>
<path fill-rule="evenodd" clip-rule="evenodd" d="M0.603536 46.0264C0.636403 45.9756 2.31361 43.3582 4.76469 40.2806C3.15022 39.6512 2.08354 38.7199 1.61444 37.5447C1.54804 37.6343 1.48629 37.723 1.42919 37.8106C0.889944 38.6375 0.602736 39.6032 0.602539 40.5904V46.0264H0.603536Z" fill="#83F4FF"/>
<path fill-rule="evenodd" clip-rule="evenodd" d="M17.2472 40.6093C17.0788 40.671 16.9245 40.7358 16.792 40.7856C16.6595 40.8354 15.5132 41.2836 14.5541 41.6222H14.5451H14.5352C14.5521 41.6033 14.7672 41.3463 15.0929 40.9121L15.4435 40.8682C15.7423 40.8294 16.054 40.7856 16.3677 40.7398C16.4793 40.7238 16.5918 40.7059 16.7044 40.688C16.8816 40.6614 17.0593 40.6329 17.2372 40.6023L17.2472 40.6093Z" fill="#3B9AE0"/>
<path fill-rule="evenodd" clip-rule="evenodd" d="M0.604492 22.3144V12.9284C1.84845 15.5398 6.56336 17.3355 9.60305 17.9451V28.0661C6.04546 27.6557 2.95995 26.3261 1.5407 24.6967C0.948229 24.0435 0.615224 23.1962 0.604492 22.3144V22.3144Z" fill="#9119F7"/>
<path d="M0.604205 22.3144V12.9284C0.604205 21.2596 9.60276 28.0671 9.60276 28.0671C6.30811 27.6687 0.489669 25.8491 0.604205 22.3144Z" fill="#C64DFB"/>
<path d="M0.614258 22.3164V12.9304C1.85822 15.5418 6.57313 17.3365 9.61382 17.9471C9.61382 17.9471 1.5166 20.0615 1.30247 24.4009C0.862254 23.7436 0.614258 23.2665 0.614258 22.3164Z" fill="#C64DFB"/>
<path d="M1.29968 24.4009C1.35047 23.0803 2.15123 21.9618 3.23783 21.0465C1.75782 18.698 0.604493 15.9093 0.604493 12.9284V22.3144C0.604399 22.4847 0.613043 22.6549 0.630389 22.8243C0.714041 23.3987 0.944576 23.9418 1.29968 24.4009V24.4009Z" fill="#E977FD"/>
<path fill-rule="evenodd" clip-rule="evenodd" d="M9.04115 5.75942C9.35189 5.36103 9.56104 5.122 9.5959 5.08216L9.50627 5.11304C8.48739 5.51142 7.5482 5.80025 6.57812 6.16378C7.39123 5.98462 8.21344 5.84963 9.04115 5.75942V5.75942Z" fill="#F48166"/>
<path d="M17.1912 40.5217C17.2253 40.5187 17.257 40.5031 17.2801 40.478C17.3032 40.4528 17.316 40.4199 17.316 40.3857C17.316 40.3515 17.3032 40.3186 17.2801 40.2934C17.257 40.2683 17.2253 40.2527 17.1912 40.2498C17.1572 40.2527 17.1254 40.2683 17.1023 40.2934C17.0792 40.3186 17.0664 40.3515 17.0664 40.3857C17.0664 40.4199 17.0792 40.4528 17.1023 40.478C17.1254 40.5031 17.1572 40.5187 17.1912 40.5217V40.5217Z" fill="#1848B2"/>
</g>
<defs>
<linearGradient id="paint0_linear_9843_33714" x1="0.601562" y1="11.2303" x2="23.219" y2="11.2303" gradientUnits="userSpaceOnUse">
<stop stop-color="#FF057E"/>
<stop offset="0.12" stop-color="#FF2768"/>
<stop offset="0.35" stop-color="#FF6144"/>
<stop offset="0.56" stop-color="#FF8F26"/>
<stop offset="0.74" stop-color="#FFB011"/>
<stop offset="0.9" stop-color="#FFC505"/>
<stop offset="1" stop-color="#FFCC00"/>
</linearGradient>
<linearGradient id="paint1_linear_9843_33714" x1="23.2169" y1="35.5657" x2="0.602526" y2="35.5657" gradientUnits="userSpaceOnUse">
<stop stop-color="#0049E7"/>
<stop offset="0.32" stop-color="#0E78EF"/>
<stop offset="1" stop-color="#2DDAFF"/>
</linearGradient>
<clipPath id="clip0_9843_33714">
<rect width="182" height="45.2448" fill="white" transform="translate(0.600586 0.787552)"/>
</clipPath>
</defs>
</svg>
