<?xml version="1.0" encoding="UTF-8"?><svg id="Layer_1" xmlns="http://www.w3.org/2000/svg" viewBox="0 0 1600 390"><defs><style>.cls-1{fill:#047cff;}.cls-2{fill:#02043b;}.cls-3{fill:#44d4e6;}</style></defs><g><path class="cls-3" d="M91.97,390V183.36h206.2L91.97,390Z"/><path class="cls-1" d="M182.96,183.36H0V0L182.96,183.36Z"/><path class="cls-2" d="M0,183.36H91.97v92.16L0,183.36Z"/></g><path class="cls-2" d="M605.79,176.56c-8.63-10.94-21.13-18.17-38.91-18.17-34.51,0-61.8,27.35-61.8,65.28s27.29,65.28,61.8,65.28c17.61,0,30.11-7.06,38.91-18.17v14.82h26.94v-124.04h-26.94v15Zm-35.56,86.81c-23.24,0-37.32-18-37.32-39.7s14.08-39.7,37.32-39.7,37.32,17.11,37.32,39.7-15.14,39.7-37.32,39.7m-51.23-158.97h-146.13v27.7h58.45v153.5h29.23V132.1h58.45v-27.7Zm283.11,53.99c-38.21,0-66.55,28.05-66.55,65.28s28.35,65.28,66.55,65.28,66.55-28.05,66.55-65.28-28.35-65.28-66.55-65.28m0,104.98c-22.01,0-38.73-16.23-38.73-39.7s16.73-39.7,38.73-39.7,38.91,16.23,38.91,39.7c-.18,23.29-16.9,39.7-38.91,39.7m-127.12,22.23h27.11V104.4h-27.11v181.2Zm722.73-127.21c-12.68,0-27.99,3.88-38.03,18.35v-15.17h-26.76v124.04h27.11v-68.63c0-21.17,14.61-32.82,32.04-32.82s28.7,11.64,28.7,32.46v68.99h27.11v-77.99c0-28.94-20.78-49.23-50.18-49.23m-436.1,0c-12.68,0-27.99,3.88-38.03,18.35v-15.17h-26.94v124.04h27.29v-68.63c0-21.17,14.61-32.82,32.04-32.82s28.7,11.64,28.7,32.46v68.99h27.11v-77.99c0-28.94-20.78-49.23-50.18-49.23m638.4,65.11c0-38.64-23.94-65.11-58.45-65.11-36.44,0-61.62,26.47-61.62,65.28s26.06,65.28,63.21,65.28c18.66,0,35.74-4.59,50.71-17.47l-16.73-16.76c-9.68,6.7-21.3,10.59-32.22,10.59-17.43,0-33.28-9.35-36.8-31.58h91.38c.35-3.35,.53-6.7,.53-10.23m-91.73-10.59c2.64-18.17,13.56-30.52,32.75-30.52,17.08,0,28.35,11.29,31.34,30.52h-64.09Zm-300.71-111.86c-55.46,0-94.54,39.7-94.54,93.87s39.09,94.04,94.54,94.04,94.54-39.7,94.54-94.04c.18-54.17-39.09-93.87-94.54-93.87m0,159.85c-36.8,0-64.09-26.82-64.09-65.81s27.29-65.81,64.09-65.81,64.09,26.82,64.09,65.81-27.29,65.81-64.09,65.81m-138.21-17.47c-11.8,0-22.54,10.41-22.54,22.58s10.74,22.76,22.54,22.76,22.54-10.76,22.54-22.76-10.56-22.58-22.54-22.58"/></svg>